<?xml version="1.0" encoding="UTF-8"?>
<svg width="28px" height="28px" viewBox="0 0 28 28" version="1.1" xmlns="http://www.w3.org/2000/svg" xmlns:xlink="http://www.w3.org/1999/xlink">
    <title>AAPL</title>
    <g id="AAPL" stroke="none" stroke-width="1" fill="none" fill-rule="evenodd">
        <circle id="Oval" fill="#FFFFFF" cx="14" cy="14" r="14"></circle>
        <path d="M20.6856232,18.0274653 C20.4163137,18.6563351 20.0975389,19.2352061 19.7281999,19.7674126 C19.2247553,20.4929451 18.8125468,20.9951526 18.4948712,21.2740334 C18.0024193,21.7317971 17.4747921,21.9662343 16.9097912,21.9795675 C16.5041779,21.9795675 16.0150234,21.8629039 15.4456259,21.6262455 C14.8743597,21.3906955 14.3493705,21.2740334 13.8693396,21.2740334 C13.3658954,21.2740334 12.8259568,21.3906955 12.248425,21.6262455 C11.6700131,21.8629039 11.2040527,21.9862342 10.8477942,21.998456 C10.3059871,22.0217885 9.76593907,21.7806847 9.22687958,21.2740334 C8.88282304,20.9707088 8.45247721,20.4507242 7.93694117,19.7140796 C7.38381222,18.9274379 6.92906354,18.0152434 6.57280525,16.975275 C6.19126487,15.8519756 6,14.7642308 6,13.7111521 C6,12.5048554 6.25787781,11.4644424 6.7744028,10.5925799 C7.18034596,9.89226815 7.72039433,9.33984029 8.39630643,8.9342968 C9.07221913,8.52875392 9.80254311,8.32209356 10.5890376,8.30887145 C11.0193831,8.30887145 11.5837248,8.44342294 12.285029,8.70785945 C12.9843549,8.97318474 13.4333877,9.10773623 13.6302583,9.10773623 C13.7774443,9.10773623 14.2762718,8.95040738 15.1219044,8.63675066 C15.9215897,8.34587053 16.5965125,8.22542932 17.1494218,8.27287228 C18.6476634,8.3950909 19.773268,8.99207295 20.5218391,10.0675958 C19.1818861,10.8882378 18.5190543,12.0376472 18.5322448,13.5121579 C18.5443363,14.6606785 18.9565449,15.6164271 19.7666725,16.3752935 C20.1338128,16.7275045 20.5438234,16.9997185 21,17.1930462 C20.9010713,17.4830372 20.7966451,17.7608067 20.6856232,18.0274653 Z M17.2494515,4.36010249 C17.2494515,5.260308 16.9240809,6.10082733 16.2755396,6.87880331 C15.4928921,7.80366457 14.5462414,8.33809255 13.5196765,8.25376195 C13.5065959,8.14576506 13.4990112,8.03210206 13.4990112,7.91266138 C13.4990112,7.04846504 13.8712083,6.12360423 14.5321716,5.36740489 C14.8621578,4.98452792 15.2818414,4.6661709 15.7907819,4.41221147 C16.298623,4.16204127 16.7789837,4.02369176 17.2307641,4 C17.2439557,4.12034341 17.2494515,4.2406944 17.2494515,4.36009081 L17.2494515,4.36010249 Z" id="path4" fill="#ADADAD" fill-rule="nonzero"></path>
    </g>
</svg>