<?xml version="1.0" encoding="UTF-8"?>
<svg width="28px" height="28px" viewBox="0 0 28 28" version="1.1" xmlns="http://www.w3.org/2000/svg" xmlns:xlink="http://www.w3.org/1999/xlink">
    <title>AMC</title>
    <g id="AMC" stroke="none" stroke-width="1" fill="none" fill-rule="evenodd">
        <g id="Group-2">
            <circle id="Oval" fill="#FFFFFF" cx="14" cy="14" r="14"></circle>
            <g id="Amc_theatres_logo" transform="translate(4.000000, 4.000000)" fill-rule="nonzero">
                <circle id="Oval" fill="#CE2540" cx="9.99494949" cy="9.99494949" r="9.99494949"></circle>
                <g id="Group" transform="translate(1.565657, 7.777778)" fill="#FFFFFF">
                    <path d="M16.7828283,3.76767677 C16.7525253,3.71717172 16.7121212,3.67171717 16.6565657,3.64646465 C16.6060606,3.61616162 16.5454545,3.6010101 16.489899,3.6010101 C16.4343434,3.6010101 16.3737374,3.61616162 16.3232323,3.64646465 C16.2727273,3.67676768 16.2272727,3.71717172 16.1969697,3.76767677 C16.1666667,3.81818182 16.1515152,3.87878788 16.1515152,3.93434343 C16.1515152,3.99494949 16.1666667,4.05050505 16.1969697,4.10606061 C16.2272727,4.15656566 16.2676768,4.2020202 16.3232323,4.22727273 C16.3737374,4.25757576 16.4292929,4.27272727 16.489899,4.27272727 C16.5505051,4.27272727 16.6060606,4.25757576 16.6565657,4.22727273 C16.7070707,4.1969697 16.7474747,4.15656566 16.7828283,4.10606061 C16.8131313,4.05555556 16.8282828,3.99494949 16.8282828,3.93434343 C16.8282828,3.87878788 16.8131313,3.81818182 16.7828283,3.76767677 L16.7828283,3.76767677 Z M16.7373737,4.08080808 C16.7121212,4.12626263 16.6767677,4.16161616 16.6313131,4.18181818 C16.5858586,4.20707071 16.540404,4.21717172 16.489899,4.21717172 C16.4393939,4.21717172 16.3939394,4.20707071 16.3484848,4.18181818 C16.3030303,4.15656566 16.2676768,4.12121212 16.2424242,4.08080808 C16.2171717,4.03535354 16.2020202,3.98989899 16.2020202,3.93434343 C16.2020202,3.88383838 16.2171717,3.83333333 16.2424242,3.79292929 C16.2676768,3.74747475 16.3030303,3.71212121 16.3484848,3.68686869 C16.3939394,3.66161616 16.4393939,3.64646465 16.489899,3.64646465 C16.540404,3.64646465 16.5858586,3.66161616 16.6313131,3.68686869 C16.6767677,3.71212121 16.7121212,3.74747475 16.7373737,3.79292929 C16.7626263,3.83838384 16.7777778,3.88383838 16.7777778,3.93434343 C16.7727273,3.98989899 16.7626263,4.03535354 16.7373737,4.08080808 L16.7373737,4.08080808 Z" id="Shape"></path>
                    <path d="M4.75757576,0.146464646 C4.72222222,0.141414141 3.85353535,0.0202020202 2.84848485,0.373737374 C1.91414141,0.702020202 0.661616162,1.5 0.0707070707,3.46969697 C-0.0303030303,3.8030303 0.0707070707,4.25252525 0.762626263,4.19191919 L3.34343434,4.19191919 C3.63131313,4.19191919 3.86868687,3.95959596 3.86868687,3.66666667 C3.86868687,3.37878788 3.63131313,3.14141414 3.34343434,3.14141414 L1.31313131,3.14141414 C2.08080808,1.50505051 3.44444444,1.20707071 4.15656566,1.17171717 L4.15656566,3.68686869 C4.15656566,3.97474747 4.38888889,4.21212121 4.68181818,4.21212121 C4.96969697,4.21212121 5.20707071,3.97979798 5.20707071,3.68686869 L5.20707071,0.666666667 C5.20707071,0.404040404 5.01515152,0.181818182 4.75757576,0.146464646 L4.75757576,0.146464646 Z" id="Path"></path>
                    <path d="M10.0900814,0.166161616 C10.1400814,0.166161616 10.1000814,0.166161616 10.0900814,0.166161616 C10.0600814,0.166161616 10.0200814,0.166161616 10.0700814,0.166161616 C10.0700814,0.166161616 10.0700814,0.166161616 10.0900814,0.166161616 C10.0900814,0.166161616 10.0900814,0.166161616 10.0900814,0.166161616 L10.0900814,0.166161616 Z" id="Path"></path>
                    <path d="M10.0555556,0.141414141 C9.3989899,0.156565657 8.96969697,0.368686869 8.66161616,0.702020202 C8.38383838,0.393939394 7.90909091,0.136363636 7.26767677,0.141414141 C6.55050505,0.0909090909 5.30808081,0.737373737 5.3989899,1.9040404 L5.3989899,3.68686869 C5.3989899,3.97474747 5.63131313,4.21212121 5.92424242,4.21212121 C6.21717172,4.21212121 6.44949495,3.97979798 6.44949495,3.68686869 L6.44949495,1.90909091 C6.45454545,1.29292929 7.11616162,1.1969697 7.26767677,1.19191919 C8.01515152,1.17171717 8.12626263,1.81818182 8.12626263,1.90909091 L8.12626263,3.68686869 C8.12626263,3.97474747 8.37373737,4.21212121 8.66161616,4.21212121 C8.94949495,4.21212121 9.1969697,3.97979798 9.1969697,3.68686869 L9.1969697,1.90909091 C9.22727273,1.25252525 9.84848485,1.18181818 10.0555556,1.19191919 C10.1767677,1.2020202 10.8383838,1.23737374 10.8737374,1.90909091 L10.8737374,3.68686869 C10.8737374,3.97474747 11.1060606,4.21212121 11.3989899,4.21212121 C11.6868687,4.21212121 11.9242424,3.97979798 11.9242424,3.68686869 L11.9242424,1.9040404 C11.9444444,1.8030303 11.8636364,0.196969697 10.0555556,0.141414141 L10.0555556,0.141414141 Z" id="Path"></path>
                    <path d="M16.0757576,2.50505051 C15.8181818,2.37373737 15.5,2.47474747 15.3686869,2.73737374 C15.1717172,3.12121212 14.7828283,3.35858586 14.3535354,3.35858586 C14.0505051,3.35858586 13.7626263,3.24242424 13.5505051,3.02525253 C13.3333333,2.80808081 13.2171717,2.52525253 13.2171717,2.22222222 C13.2171717,1.91919192 13.3333333,1.63131313 13.5505051,1.41919192 C13.7676768,1.2020202 14.0505051,1.08585859 14.3535354,1.08585859 C14.8131313,1.08585859 15.2323232,1.34343434 15.3939394,1.72222222 C15.510101,1.98989899 15.8181818,2.11111111 16.0858586,1.99494949 C16.3535354,1.87878788 16.4747475,1.57070707 16.3585859,1.3030303 C16.030303,0.545454545 15.2222222,0.0353535354 14.3535354,0.0353535354 C13.1464646,0.0353535354 12.1666667,1.01515152 12.1666667,2.22222222 C12.1666667,2.80808081 12.3939394,3.35353535 12.8080808,3.76767677 C13.2222222,4.18181818 13.7676768,4.40909091 14.3535354,4.40909091 C15.1818182,4.40909091 15.9292929,3.94949495 16.3030303,3.21212121 C16.4393939,2.94949495 16.3333333,2.63131313 16.0757576,2.50505051 L16.0757576,2.50505051 Z" id="Path"></path>
                    <path d="M16.5858586,4.02020202 C16.5707071,3.98989899 16.5555556,3.96969697 16.540404,3.95959596 C16.5656566,3.94949495 16.5909091,3.92929293 16.6010101,3.90909091 C16.6161616,3.88888889 16.6212121,3.86363636 16.6212121,3.84343434 C16.6212121,3.82323232 16.6161616,3.8030303 16.6060606,3.78787879 C16.5959596,3.76767677 16.5808081,3.75757576 16.5656566,3.74747475 C16.5505051,3.73737374 16.5252525,3.73232323 16.489899,3.73232323 L16.3585859,3.73232323 L16.3585859,4.14646465 L16.4242424,4.14646465 L16.4242424,3.96969697 L16.4747475,3.96969697 C16.479798,3.96969697 16.4949495,3.98484848 16.510101,4.01010101 L16.5252525,4.03535354 L16.5808081,4.14141414 L16.6565657,4.14141414 L16.5858586,4.02020202 L16.5858586,4.02020202 Z M16.469697,3.91919192 L16.4242424,3.91919192 L16.4242424,3.77777778 L16.4747475,3.77777778 C16.5,3.77777778 16.5151515,3.78282828 16.5252525,3.78787879 C16.5353535,3.79292929 16.540404,3.8030303 16.5454545,3.81313131 C16.5505051,3.82323232 16.5505051,3.83333333 16.5505051,3.84343434 C16.5505051,3.86363636 16.5454545,3.87878788 16.530303,3.89393939 C16.520202,3.91414141 16.5,3.91919192 16.469697,3.91919192 L16.469697,3.91919192 Z" id="Shape"></path>
                </g>
            </g>
        </g>
    </g>
</svg>