<?xml version="1.0" encoding="UTF-8"?>
<svg width="28px" height="28px" viewBox="0 0 28 28" version="1.1" xmlns="http://www.w3.org/2000/svg" xmlns:xlink="http://www.w3.org/1999/xlink">
    <title>GME</title>
    <g id="GME" stroke="none" stroke-width="1" fill="none" fill-rule="evenodd">
        <g id="Group">
            <circle id="Oval" fill="#FFFFFF" cx="14" cy="14" r="14"></circle>
            <g id="GameStop" transform="translate(2.000000, 12.000000)" fill-rule="nonzero">
                <path d="M2.79433179,1.74415425 L1.59145491,1.74415425 L1.59145491,1.37086368 C1.59145349,1.13555 1.58002472,0.988265094 1.55716906,0.929009434 C1.53430962,0.869760849 1.48002283,0.840134434 1.39430868,0.84013066 C1.32002047,0.840134434 1.26954311,0.865528302 1.24287802,0.916312736 C1.21620915,0.967104245 1.20287566,1.09745943 1.20287708,1.30737877 L1.20287708,3.28048632 C1.20287566,3.46501604 1.21620915,3.58648396 1.24287802,3.64488915 C1.26954311,3.70329575 1.32287755,3.73249906 1.40288038,3.73249811 C1.49049925,3.73249906 1.55002377,3.69948632 1.58145491,3.63346179 C1.61288226,3.56743868 1.62859689,3.43877594 1.62859877,3.24747453 L1.62859877,2.75991085 L1.38573745,2.75991085 L1.38573745,2.13522075 L2.79433179,2.13522075 L2.79433179,4.34195236 L2.0371766,4.34195236 L1.92574594,4.04738255 C1.8438384,4.17435236 1.74050302,4.26957972 1.61574075,4.33306415 C1.49097566,4.39654906 1.34383038,4.42829151 1.17430538,4.42829151 C0.972395943,4.42829151 0.783345377,4.38469858 0.607152972,4.29751274 C0.430958915,4.21032689 0.297147358,4.10240283 0.205717689,3.97374057 C0.114287311,3.8450783 0.0571435849,3.71006745 0.0342862736,3.56870708 C0.0114285849,3.42734858 0,3.21530991 0,2.93259009 L0,1.71114245 C0,1.31838585 0.023809717,1.03312783 0.0714298113,0.855367453 C0.119049292,0.677613208 0.255718066,0.51466934 0.481436604,0.366534434 C0.707153679,0.218407075 0.999062925,0.144337736 1.35716528,0.144337736 C1.70955019,0.144337736 2.00193604,0.208672642 2.23432283,0.337331604 C2.46670491,0.465997642 2.61813604,0.618784434 2.68861623,0.795691509 C2.75909075,0.97260566 2.79433179,1.22950708 2.79433179,1.5663967 L2.79433179,1.74415425 L2.79433179,1.74415425 Z M4.1600167,2.27742642 L3.0771417,2.27742642 L3.0771417,2.05142075 C3.0771417,1.79071226 3.1109516,1.58967736 3.17857189,1.44831509 C3.24619217,1.30695896 3.38190821,1.18210519 3.58572189,1.07375519 C3.78953415,0.965410849 4.05429972,0.911233491 4.38002047,0.911233491 C4.77050113,0.911233491 5.11478981,0.97260566 5.31289075,1.09533962 C5.51098698,1.21808019 5.63003604,1.36875047 5.67003934,1.54735142 C5.71003745,1.72595802 5.73004028,2.09374623 5.73004028,2.65071745 L5.73004028,4.34195236 L4.55716623,4.34195236 L4.55716623,4.04230377 C4.48668745,4.16250189 4.39573368,4.25265047 4.28430443,4.31274906 C4.1728733,4.37284811 4.04001387,4.40289764 3.8857266,4.40289764 C3.68381764,4.40289764 3.49857708,4.35253302 3.33000302,4.2518033 C3.16142896,4.151075 3.0771417,3.93057123 3.0771417,3.59029198 L3.0771417,3.31349858 C3.0771417,3.0612533 3.12190443,2.8894217 3.21142991,2.79800189 C3.30095491,2.70658538 3.52286292,2.59993066 3.87715491,2.47803821 C4.25620774,2.34599198 4.45906811,2.25711321 4.48573651,2.21140236 C4.51240255,2.16569575 4.52573557,2.07258443 4.52573745,1.93206934 C4.52573557,1.75600708 4.5109733,1.64131179 4.48145066,1.5879816 C4.45192519,1.53465755 4.4028766,1.50799387 4.33430585,1.50799104 C4.25620774,1.50799387 4.20763557,1.530425 4.18858934,1.57528491 C4.16953981,1.62015 4.16001575,1.73653868 4.1600167,1.92445142 L4.1600167,2.27742642 Z M4.52573745,2.73959623 C4.34097142,2.85979528 4.2338266,2.96052406 4.20430349,3.04178349 C4.17477802,3.12304528 4.1600167,3.23985708 4.1600167,3.39221934 C4.1600167,3.56659198 4.1728733,3.6791717 4.19858887,3.72995896 C4.22430255,3.78074717 4.27525538,3.80614057 4.35144877,3.80614057 C4.42382943,3.80614057 4.4709733,3.78624953 4.49287943,3.74646462 C4.51478321,3.7066816 4.52573745,3.6021434 4.52573745,3.43284953 L4.52573745,2.73959623 L4.52573745,2.73959623 Z M7.21721104,0.972179245 L7.19721057,1.29214245 C7.28673415,1.16517594 7.39340255,1.06994906 7.51721575,1.00646085 C7.64102519,0.942979717 7.78197991,0.911233491 7.94007991,0.911233491 C8.24865396,0.911233491 8.49151481,1.0382066 8.6686634,1.29214245 C8.76580538,1.16517594 8.87533085,1.06994906 8.99724028,1.00646085 C9.11914406,0.942979717 9.25438415,0.911233491 9.40296151,0.911233491 C9.59915113,0.911233491 9.76153462,0.953560377 9.89011245,1.0382033 C10.0186813,1.1228533 10.1010639,1.22654434 10.1372592,1.34927925 C10.1734464,1.47201934 10.1915459,1.67136132 10.1915459,1.94730566 L10.1915459,4.34195236 L9.07152708,4.34195236 L9.07152708,2.14537783 C9.07152425,1.85758302 9.06057142,1.67940236 9.03866953,1.61083632 C9.01676104,1.54227547 8.96580821,1.50799387 8.88580962,1.50799104 C8.80390066,1.50799387 8.75104311,1.54185236 8.72723604,1.60956698 C8.70342283,1.67728632 8.69151811,1.85589009 8.69152094,2.14537783 L8.69152094,4.34195236 L7.57150255,4.34195236 L7.57150255,2.20124481 C7.57150066,1.87112642 7.56245302,1.67305377 7.54435915,1.60702736 C7.52626198,1.54100613 7.47626104,1.50799387 7.39435679,1.50799104 C7.34292566,1.50799387 7.29911528,1.52534623 7.26292566,1.56004858 C7.22673321,1.59475613 7.20673274,1.63707925 7.20292472,1.68701792 C7.1991134,1.73696179 7.19720915,1.8431934 7.19721057,2.00571132 L7.19721057,4.34195236 L6.03969311,4.34195236 L6.03969311,0.972179245 L7.21721104,0.972179245 L7.21721104,0.972179245 Z M13.2058818,2.71674151 L11.7115714,2.71674151 L11.7115714,3.4455467 C11.71157,3.59791085 11.7239511,3.69610094 11.7487148,3.74011604 C11.7734752,3.78413302 11.8210955,3.80614104 11.8915738,3.80614057 C11.9791931,3.80614104 12.0377653,3.77693821 12.0672912,3.71853113 C12.0968139,3.66012642 12.1115757,3.54712311 12.1115775,3.37952264 L12.1115775,2.93512877 L13.2058818,2.93512877 L13.2058818,3.18398962 C13.2058818,3.39222028 13.1911167,3.55220236 13.161595,3.66393443 C13.1320681,3.7756684 13.0630195,3.89501981 12.9544488,4.02198868 C12.8458728,4.14895849 12.7082521,4.24418585 12.5415851,4.30767028 C12.3749134,4.37115519 12.1658625,4.40289764 11.9144318,4.40289764 C11.6706167,4.40289764 11.4553752,4.3715783 11.2687063,4.30893962 C11.082036,4.24630189 10.9367959,4.16038585 10.8329851,4.05119151 C10.7291738,3.94199858 10.6572676,3.82180047 10.6172672,3.69059811 C10.5772662,3.55939717 10.5572662,3.36851981 10.5572662,3.11796509 L10.5572662,2.13522075 C10.5572662,1.84065377 10.6020285,1.60829953 10.691554,1.43815802 C10.781079,1.26802123 10.9277483,1.13766604 11.131561,1.04709104 C11.3353733,0.956523113 11.5696629,0.911233491 11.8344304,0.911233491 C12.1582436,0.911233491 12.4253903,0.965833962 12.6358719,1.07502453 C12.8463497,1.1842217 12.9939705,1.32896698 13.0787365,1.50926038 C13.1634974,1.68955991 13.2058818,1.94307547 13.2058818,2.26980849 L13.2058818,2.71674151 L13.2058818,2.71674151 Z M12.0487195,2.16823302 L12.0487195,1.92191179 C12.0487195,1.74754292 12.0382412,1.63496321 12.0172903,1.58417264 C11.996336,1.53338774 11.953478,1.50799104 11.8887172,1.50799104 C11.8087143,1.50799104 11.7591898,1.52957877 11.7401431,1.57274528 C11.7210936,1.61591745 11.7115714,1.7323066 11.7115714,1.92191179 L11.7115714,2.16823302 L12.0487195,2.16823302 Z" id="text2396" fill="#000000"></path>
                <path d="M16.168787,1.38063915 L15.0516257,1.38063915 L15.0516257,1.07591226 C15.0516242,0.933709434 15.0373379,0.843137736 15.0087681,0.80419717 C14.9801941,0.765263679 14.9325742,0.745794811 14.8659082,0.745791038 C14.7935247,0.745794811 14.738762,0.772035377 14.70162,0.824512264 C14.6644752,0.876996698 14.6459035,0.956564151 14.6459044,1.06321509 C14.6459035,1.20034528 14.6668563,1.30361368 14.7087629,1.37302123 C14.748762,1.44243396 14.8620974,1.52623396 15.0487681,1.62442075 C15.5840134,1.90714198 15.9211615,2.13907311 16.0602139,2.32021415 C16.199261,2.50135896 16.2687889,2.79338868 16.2687889,3.19630425 C16.2687889,3.4891816 16.2302139,3.70502972 16.1530728,3.84384953 C16.0759257,3.98266934 15.9268761,4.09905802 15.7059224,4.19301557 C15.4849643,4.28697311 15.2278172,4.33395189 14.9344808,4.33395189 C14.61257,4.33395189 14.3378035,4.2797783 14.1101813,4.17143066 C13.8825582,4.06308349 13.7335082,3.92510991 13.6630313,3.75750991 C13.5925535,3.58991038 13.5573148,3.35205425 13.5573153,3.04394057 L13.5573153,2.77476557 L14.6744766,2.77476557 L14.6744766,3.27502547 C14.6744752,3.42908302 14.6901898,3.52811887 14.72162,3.57213443 C14.7530478,3.61615094 14.8087634,3.63815943 14.8887662,3.63815849 C14.9687653,3.63815943 15.0282903,3.61022594 15.0673403,3.55435849 C15.1063865,3.49849292 15.125911,3.41553915 15.1259129,3.30549811 C15.125911,3.06341038 15.0887676,2.9051217 15.0144823,2.8306316 C14.9382889,2.75614434 14.7506672,2.63171415 14.4516158,2.45734151 C14.1525625,2.28127877 13.9169658,2.15346085 13.8198214,2.0738934 C13.7226771,1.99432594 13.6421997,1.88428774 13.5783889,1.74377217 C13.514578,1.60326179 13.4826733,1.42381132 13.4826733,1.20542123 C13.4826733,0.890539623 13.5279115,0.610304245 13.6183893,0.464708491 C13.7088672,0.319120755 13.8550596,0.205271226 14.0569681,0.123160377 C14.2588757,0.0410575472 14.5401875,0 14.8259077,0 C15.1382922,0 15.404487,0.0448665094 15.6244926,0.134587264 C15.8444936,0.224316981 15.9902101,0.33731934 16.0616422,0.473596226 C16.1330695,0.609880189 16.1687842,0.891386321 16.168787,1.21811792 L16.168787,1.38063915 L16.168787,1.38063915 Z M17.8816705,0.428367453 L17.8816705,0.834104245 L18.2056035,0.834104245 L18.2056035,1.36737642 L17.8816705,1.36737642 L17.8816705,3.29534057 C17.8816691,3.51711462 17.8945261,3.64069811 17.9202422,3.66609198 C17.9459558,3.69148585 18.0031021,3.70418302 18.191678,3.70418302 L18.191678,4.24761274 L17.7259558,4.24761274 C17.4630936,4.24761274 17.2754719,4.2378783 17.1630898,4.21840943 C17.0507058,4.19894057 16.9516573,4.1540783 16.8659422,4.0838217 C16.7802261,4.01356557 16.7268912,3.93315142 16.7059393,3.84257925 C16.684986,3.75200849 16.6745101,3.53912264 16.6745101,3.20392264 L16.6745101,1.36737642 L16.4259342,1.36737642 L16.4259342,0.834104245 L16.6745101,0.834104245 L16.6745101,0.428367453 L17.8816705,0.428367453 L17.8816705,0.428367453 Z M21.0963643,2.06119623 L21.0963643,2.88649858 C21.0963643,3.18953349 21.0792181,3.41173019 21.0449346,3.55308868 C21.0106459,3.69444858 20.9373115,3.82649717 20.8249308,3.94923396 C20.7125455,4.07197123 20.5682577,4.16254292 20.3920667,4.22094858 C20.2158714,4.27935472 20.0134875,4.30855802 19.7849139,4.30855802 C19.5296705,4.30855802 19.3134761,4.28358726 19.1363313,4.23364575 C18.9591851,4.18370472 18.8215639,4.10836934 18.7234676,4.00764009 C18.6253705,3.90691085 18.5553691,3.78502028 18.5134643,3.64196745 C18.4715587,3.49891604 18.4506058,3.28433726 18.4506058,2.9982316 L18.4506058,2.13483868 C18.4506058,1.82164953 18.4887016,1.5770217 18.5648931,1.40095472 C18.6410851,1.22489292 18.7782294,1.08353349 18.976329,0.976875943 C19.1744266,0.870225 19.4277639,0.816893868 19.7363417,0.816893868 C19.9953912,0.816893868 20.2177761,0.851179717 20.403495,0.919739623 C20.5892106,0.988306604 20.7325459,1.07760802 20.8335025,1.18764528 C20.934454,1.29768868 21.0035025,1.41111462 21.0406488,1.52792406 C21.0777893,1.64473868 21.0963643,1.82249575 21.0963643,2.06119623 L21.0963643,2.06119623 L21.0963643,2.06119623 Z M19.9420592,1.80725708 C19.9420592,1.63458113 19.9315813,1.52581038 19.9106299,1.48094528 C19.8896757,1.43608538 19.8449129,1.41365142 19.7763422,1.41365142 C19.7077686,1.41365142 19.662053,1.43608538 19.6391969,1.48094528 C19.6163379,1.52581038 19.6049106,1.63458113 19.6049106,1.80725708 L19.6049106,3.32835283 C19.6049106,3.48748868 19.6163379,3.59118066 19.6391969,3.6394283 C19.662053,3.68767689 19.7068158,3.71180094 19.7734851,3.71180094 C19.8420563,3.71180094 19.887295,3.6897934 19.9092016,3.64577642 C19.9311054,3.60176132 19.9420592,3.50695708 19.9420592,3.36136462 L19.9420592,1.80725708 L19.9420592,1.80725708 Z M22.591037,0.877839623 L22.5710365,1.17494811 C22.6738936,1.05475377 22.7872285,0.965028774 22.9110417,0.905772642 C23.0348516,0.846523585 23.1700922,0.816897642 23.3167629,0.816893868 C24.001695,0.792046698 24.2407058,1.16706887 24.248912,1.80979623 L24.248912,3.22931651 C24.248912,3.53573679 24.2284327,3.75370142 24.1874827,3.88320991 C23.9606035,4.33507877 23.3402129,4.40670425 22.9053275,4.21967925 C22.7834191,4.16042642 22.6719889,4.07239481 22.5710365,3.95558255 L22.5710365,4.72755755 L21.4167313,4.72755755 L21.4167313,0.877839623 L22.591037,0.877839623 L22.591037,0.877839623 Z M22.9196134,1.85804481 C22.9196134,1.64981745 22.9110403,1.52369434 22.8938988,1.47967547 C22.876754,1.43566226 22.8291346,1.41365142 22.7510389,1.41365142 C22.6748464,1.41365142 22.6257974,1.43904811 22.6038941,1.48983302 C22.5819875,1.54062358 22.5710365,1.66336085 22.5710365,1.85804481 L22.5710365,3.25471038 C22.5710365,3.45786274 22.5824639,3.58483208 22.6053224,3.63561934 C22.6281785,3.68640755 22.677703,3.71180094 22.7538964,3.71180094 C22.8281818,3.71180094 22.8743733,3.68852358 22.8924705,3.64196745 C22.9105643,3.59541274 22.9196134,3.48240991 22.9196134,3.30295849 L22.9196134,1.85804481 L22.9196134,1.85804481 Z" id="path2405" fill="#FD0000"></path>
            </g>
        </g>
    </g>
</svg>