<?xml version="1.0" encoding="UTF-8"?>
<svg width="28px" height="28px" viewBox="0 0 28 28" version="1.1" xmlns="http://www.w3.org/2000/svg" xmlns:xlink="http://www.w3.org/1999/xlink">
    <title>GOOGL</title>
    <g id="GOOGL" stroke="none" stroke-width="1" fill="none" fill-rule="evenodd">
        <circle id="Oval" fill="#FFFFFF" cx="14" cy="14" r="14"></circle>
        <g id="Group" transform="translate(6.000000, 5.000000)" fill-rule="nonzero">
            <path d="M16.7544673,8.74285628 C16.7544673,8.1619217 16.7073645,7.57784693 16.6068785,7.00633292 L8.54601869,7.00633292 L8.54601869,10.2972488 L13.1620935,10.2972488 C12.9705421,11.358632 12.3550654,12.2975479 11.4538318,12.8941834 L11.4538318,15.0295105 L14.2077757,15.0295105 C15.824972,13.5410619 16.7544673,11.342931 16.7544673,8.74285628 Z" id="Path" fill="#4285F4"></path>
            <path d="M8.54601869,17.0926133 C10.8509159,17.0926133 12.7946916,16.3358282 14.2109159,15.0295105 L11.456972,12.8941834 C10.6907664,13.4154544 9.70160748,13.710632 8.54915888,13.710632 C6.31962617,13.710632 4.42923364,12.2064824 3.75095327,10.1842021 L0.909084112,10.1842021 L0.909084112,12.3854731 C2.35985047,15.2713049 5.31476636,17.0926133 8.54601869,17.0926133 Z" id="Path" fill="#34A853"></path>
            <path d="M3.74781308,10.1842021 C3.38983178,9.1228189 3.38983178,7.97351049 3.74781308,6.91212731 L3.74781308,4.71085628 L0.909084112,4.71085628 C-0.303028037,7.12566002 -0.303028037,9.97066936 0.909084112,12.3854731 L3.74781308,10.1842021 L3.74781308,10.1842021 Z" id="Path" fill="#FBBC04"></path>
            <path d="M8.54601869,3.38255721 C9.76441121,3.36371609 10.9419813,3.82218338 11.8243738,4.66375348 L14.2642991,2.22382824 C12.7193271,0.773061888 10.668785,-0.0245455891 8.54601869,0.000575906276 C5.31476636,0.000575906276 2.35985047,1.82188432 0.909084112,4.71085628 L3.74781308,6.91212731 C4.42295327,4.88670675 6.31648598,3.38255721 8.54601869,3.38255721 Z" id="Path" fill="#EA4335"></path>
        </g>
    </g>
</svg>