<?xml version="1.0" encoding="utf-8"?>
<!-- Generator: Adobe Illustrator 19.0.0, SVG Export Plug-In . SVG Version: 6.00 Build 0)  -->
<svg version="1.1" id="Layer_1" xmlns="http://www.w3.org/2000/svg" xmlns:xlink="http://www.w3.org/1999/xlink" x="0px" y="0px"
	 viewBox="0 0 500 500" style="enable-background:new 0 0 500 500;" xml:space="preserve">
<style type="text/css">
	.st0{fill:#FFFFFF;}
	.st1{fill:#64A8F0;}
</style>
<g id="XMLID_24_">
	<rect id="XMLID_26_" x="75" y="75" class="st0" width="350" height="350"/>
	<rect id="XMLID_30_" x="100.1" y="100.1" class="st1" width="299.8" height="299.8"/>
	<path id="XMLID_31_" class="st0" d="M362.3,168.6h-10.4v-40.9h9.8v4.6c1.2-2.8,4.3-5.2,8.3-5.5c6.7-0.3,11.3,3.7,11.3,12.2v29.6
		h-10.7v-30.9c0-3.7,0-6.7-2.4-7.3c-0.9-0.3-2.4,0-3.7,0.9c-1.5,1.5-2.1,3.4-2.1,6.4C362.3,138.3,362.3,168.6,362.3,168.6z"/>
	<path id="XMLID_34_" class="st0" d="M185.7,130.4c-2.4-2.1-5.5-3.7-9.2-3.7c-3.7,0-6.4,1.5-9.2,3.7c-4.3,3.7-7,10.4-7,17.7
		c0,7.6,2.7,14.1,7,17.7c2.8,2.1,5.5,3.7,9.2,3.7c3.7,0,6.7-1.5,9.2-3.7c4.6-3.7,7-10.1,7-17.7C192.7,140.8,190.3,134,185.7,130.4z
		 M181.7,148.1c0,7.6,0,13.8-1.2,16.8c-0.9,1.5-1.8,2.4-4,2.4c-1.8,0-3.1-0.9-3.7-2.4c-1.5-3.1-1.5-9.2-1.5-16.8
		c0-7.3,0-13.7,1.5-16.8c0.6-1.5,1.8-2.4,3.7-2.4c2.1,0,3.1,0.9,4,2.4C182,134.3,181.7,140.8,181.7,148.1z"/>
	<path id="XMLID_35_" class="st0" d="M292.3,184.2v11h-2.1c-1.2-4.6-3.1-8.6-7.9-8.9c-3.1-0.3-5.8,1.5-6.1,4.3
		c-0.3,2.7,0.6,5.2,6.1,8.2c7,4,12.5,5.8,12.5,14.1c0,8.9-7.6,13.1-14.1,13.1c-2.8,0-12.2,0-12.2,0v-15.3h2.1
		c1.5,7.9,4,12.8,9.8,13.1c3.7,0,6.4-2.1,6.4-6.1s-2.4-6.4-8.2-9.8c-6.4-4-10.4-6.4-10.4-11.9c0-7.3,5.2-11.9,13.4-11.9
		C284.4,184.2,292.3,184.2,292.3,184.2z"/>
	<path id="XMLID_36_" class="st0" d="M305.8,168.6v-29.6c0-8.6-4.6-12.5-11.3-12.2c-4.6,0.3-7.3,3.4-8.6,5.8
		c-1.5-4.3-4.9-6.1-9.8-5.8c-4,0.3-7,2.8-8.2,5.5v-4.6h-9.5v40.9h10.4c0,0,0-29.9,0-30.9c0-3.1,0.3-4.9,2.1-6.4
		c1.2-0.9,2.4-1.2,3.4-0.9c2.4,0.6,2.4,3.7,2.4,7.3v30.9h10.4v-31.2c0-2.8,0.6-4.6,2.1-6.1c1.2-0.9,2.4-1.2,3.4-0.9
		c2.4,0.6,2.7,3.7,2.7,7.3v30.9H305.8z"/>
	<rect id="XMLID_37_" x="199.7" y="119.1" class="st0" width="10.7" height="49.5"/>
	<path id="XMLID_41_" class="st0" d="M248.3,168.6v-49.5h-10.7v11.6c-0.9-2.1-3.1-3.7-6.1-3.7c-7.6,0-13.8,7.9-14.1,20.2
		c-0.3,8.3,2.4,22,13.1,22c4.3,0,6.7-2.4,7.6-4.6v4H248.3z M235.8,131c2.1,3.1,2.1,10.4,2.1,16.2c0,6.1,0.3,14.1-2.1,17.4
		c-0.9,1.2-1.8,1.8-3.4,1.8c-2.1,0-3.4-2.4-4-6.4c-0.3-3.7-0.3-8.3-0.3-13.1c0-8.2,0.6-17.4,4.6-17.4
		C234.3,129.5,234.9,130.1,235.8,131z"/>
	<path id="XMLID_47_" class="st0" d="M337.5,128.8c2.7,1.5,4.6,4,4.6,9.5v30.2H332V164c-1.2,3.4-4.6,5.5-9.2,5.5
		c-3.7,0-10.1-1.8-10.1-11.3c0-8.9,5.8-10.7,12.2-13.4c5.8-2.4,6.4-2.8,6.4-5.2c0-2.1,0-4,0-6.7c0-2.7-1.5-4-4.6-4
		c-1.2,0.3-3.4,0.9-3.4,2.4c-0.3,1.8,1.8,1.8,2.1,4.6c0.3,4.3-3.1,5.8-6.1,5.5c-2.1,0-4.6-1.2-4.9-4.6c-0.3-5.5,5.8-10.1,14.4-10.1
		C333,126.7,335.4,127.6,337.5,128.8z M331.4,144.1l-3.4,2.1c-3.4,2.1-4,4.9-4.3,7.9c-0.3,2.4-0.3,4.6,0,8.2c0.3,3.4,2.4,4,4.3,3.4
		c2.1-0.9,3.4-4.9,3.4-9.2C331.4,156.7,331.4,145.7,331.4,144.1z"/>
	<path id="XMLID_50_" class="st0" d="M186.3,186c2.8,1.8,4.3,4,4.3,9.5V226h-9.8v-4.6c-1.2,3.1-4.6,5.2-9.2,5.2
		c-4,0-10.1-1.5-10.1-11c0-8.9,5.8-10.7,11.9-13.4c6.1-2.8,6.7-3.1,6.7-5.2c0-2.1,0-4,0-6.7c0-3.1-1.5-4.3-4.6-4
		c-1.2,0-3.4,0.6-3.4,2.1c-0.3,2.1,1.8,2.1,2.1,4.9c0.3,4-3.1,5.5-6.1,5.5c-2.1-0.3-4.6-1.5-4.9-4.9c-0.3-5.2,5.8-9.8,14.4-9.8
		C181.7,184.2,184.2,184.8,186.3,186z M180.2,201.3l-3.4,2.1c-3.4,2.1-4,4.9-4.3,7.9c-0.3,2.4-0.3,4.9,0,8.3c0,3.7,2.1,4.3,4,3.4
		c2.4-0.9,3.7-4.6,3.7-9.2C180.2,213.8,180.2,202.8,180.2,201.3z"/>
	<path id="XMLID_55_" class="st0" d="M260.2,196.4c0-8.6-4.6-12.8-11.3-12.2c-3.4,0.3-6.1,1.8-7.6,4v-11.9h-10.4v28.1
		c0,10.4-7.3,20.2-14.7,19.9c-5.2,0-6.4-4-7-8.2c-0.9-6.1-0.9-13.1-0.3-20.8c0.6-4.9,1.8-8.9,5.5-8.9c2.8,0,3.1,1.8,1.8,3.1
		c-1.2,1.5-3.1,3.1-2.1,6.4c0.9,3.7,6.7,4.3,9.5,1.5c2.1-2.4,1.8-6.4,0.3-8.9c-1.8-3.1-4.9-4.3-9.5-4.3c-5.8,0-16.8,5.2-16.8,21.7
		c0,17.7,11.3,20.8,17.7,20.8c7.3,0,13.7-6.4,15.6-11.6v11h10.4v-30.9c0-3.1,0.6-4.9,2.1-6.4c1.2-0.9,2.8-1.2,3.7-0.9
		c2.4,0.6,2.4,3.7,2.4,7.3V226h10.7V196.4z"/>
	<path id="XMLID_56_" class="st0" d="M153.3,118.2v17.4h-2.1c-1.8-8.6-5.8-15-11.3-15.3c-3.7-0.3-5.8,1.8-7.6,4.9
		c-1.8,3.7-2.8,11.3-2.8,20.5c0,8.6,0.3,15,1.2,19.6c0.6,2.1,2.1,5.5,6.1,5.5c2.1,0,3.7-0.6,4.6-1.8c1.5-1.8,1.8-5.5,1.8-7.9
		c0-4,0-5.2,0-8.3c0-3.1-0.9-4.9-2.4-5.8c-1.2-0.6-3.1-0.6-4-0.9v-2.1h17.1v43.7h-2.1c-0.9-3.4-1.5-5.8-3.1-8.6
		c-1.5-2.7-4.3-5.8-8.9-5.8c-4.9-0.3-8.6,2.8-8.6,7.3c0,6.1,3.7,7.6,10.4,11.3c6.4,3.7,14.7,6.7,14.7,17.4
		c0,10.4-8.9,16.8-18.9,16.8c-2.1,0-16.2,0-16.2,0v-21.1h2.1c2.8,15.9,9.5,18.6,14.1,18.6c5.8,0,8.6-3.7,8.6-8.9
		c-0.3-6.7-4.9-9.2-11.3-12.5c-9.2-5.2-13.4-7.6-13.4-16.2c0.3-7.3,6.1-11.9,12.5-13.7c-13.4-1.5-17.4-13.7-17.1-26.9
		c0-13.1,7.6-27.2,22.6-27.2C146,118.2,153.3,118.2,153.3,118.2z"/>
</g>
</svg>
