<?xml version="1.0" encoding="UTF-8"?>
<svg width="28px" height="28px" viewBox="0 0 28 28" version="1.1" xmlns="http://www.w3.org/2000/svg" xmlns:xlink="http://www.w3.org/1999/xlink">
    <title>MSFT</title>
    <defs>
        <polygon id="path-1" points="0 0.0225065739 7.6447258 0.0225065739 7.6447258 7.66747826 0 7.66747826"></polygon>
    </defs>
    <g id="MSFT" stroke="none" stroke-width="1" fill="none" fill-rule="evenodd">
        <circle id="Oval" fill="#FFFFFF" cx="14" cy="14" r="14"></circle>
        <g id="Group-12" transform="translate(6.000000, 6.000000)">
            <path d="M0,0 L7.64452174,0 C7.64406261,2.54817391 7.64452174,5.09634783 7.64406261,7.64452174 L0,7.64452174 L0,0 Z" id="Fill-1" fill="#F25022"></path>
            <path d="M16.06968,16.0695652 L16.06968,8.42504348 C13.5213913,8.42504348 10.9732174,8.42458435 8.42550261,8.42550261 C8.42458435,10.9732174 8.42550261,13.5213913 8.42504348,16.0695652 L7.64452174,16.0695652 C7.64452174,13.5213913 7.64498087,10.9736765 7.64452174,8.42550261 C5.09634783,8.42412522 2.54817391,8.42550261 0,8.42458435 L0,7.64452174 L7.64406261,7.64452174 C7.64452174,5.09634783 7.64406261,2.54817391 7.64452174,0 L8.42504348,0 C8.42504348,2.54817391 8.42458435,5.09634783 8.42550261,7.64452174 C10.9732174,7.64452174 13.5213913,7.64406261 16.0691061,7.64452174 C16.0700243,5.09634783 16.06968,2.54817391 16.06968,0" id="Fill-3" fill="#FEFEFE"></path>
            <path d="M8.42504348,0 L16.0695652,0 C16.0695652,2.54817391 16.0700243,5.09634783 16.0691061,7.64452174 C13.5213913,7.64406261 10.9732174,7.64452174 8.42550261,7.64452174 C8.42458435,5.09634783 8.42504348,2.54817391 8.42504348,0" id="Fill-5" fill="#80BA01"></path>
            <g id="Group-9" transform="translate(0.000000, 8.402087)">
                <mask id="mask-2" fill="white">
                    <use xlink:href="#path-1"></use>
                </mask>
                <g id="Clip-8"></g>
                <path d="M0,0.0225065739 C2.54817391,0.0234248348 5.09634783,0.0220474435 7.64452174,0.0234248348 C7.64498087,2.57159875 7.64452174,5.11931353 7.64452174,7.66748744 L0,7.66748744 L0,0.0225065739 Z" id="Fill-7" fill="#02A4EF" mask="url(#mask-2)"></path>
            </g>
            <path d="M8.42549343,8.42549343 C10.9732082,8.42457517 13.5213821,8.4250343 16.069556,8.4250343 L16.069556,16.069556 L8.4250343,16.069556 C8.42549343,13.5213821 8.42457517,10.9732082 8.42549343,8.42549343" id="Fill-10" fill="#FFB902"></path>
        </g>
    </g>
</svg>