<?xml version="1.0" encoding="UTF-8"?>
<svg width="28px" height="28px" viewBox="0 0 28 28" version="1.1" xmlns="http://www.w3.org/2000/svg" xmlns:xlink="http://www.w3.org/1999/xlink">
    <title>TSLA</title>
    <g id="TSLA" stroke="none" stroke-width="1" fill="none" fill-rule="evenodd">
        <circle id="Oval" fill="#FFFFFF" cx="14" cy="14" r="14"></circle>
        <g id="Group" transform="translate(5.000000, 6.000000)" fill="#E31837" fill-rule="nonzero">
            <path d="M8.96901186,17.8595132 L11.4782359,3.7474974 C13.8699771,3.7474974 14.6243853,4.00976493 14.7333098,5.08026628 C14.7333098,5.08026628 16.3377533,4.48203037 17.1469773,3.26702725 C13.9891575,1.80376118 10.8162721,1.73776992 10.8162721,1.73776992 L8.96483878,3.99278968 L8.96901186,3.99250676 L7.11757853,1.73741627 C7.11757853,1.73741627 3.94462243,1.80347826 0.787226961,3.26674433 C1.59574371,4.48174745 3.2008238,5.07998336 3.2008238,5.07998336 C3.31038486,4.00941128 4.06387352,3.74714375 6.43955898,3.74544622 L8.96901186,17.8595132" id="path35"></path>
            <path d="M8.96802164,1.08641564 C11.520674,1.06689411 14.4424672,1.48130227 17.4335053,2.78493031 C17.8332723,2.06539214 17.9360433,1.74738922 17.9360433,1.74738922 C14.666399,0.453804868 11.6044186,0.0111046391 8.96766798,-1.56319402e-14 C6.33105887,0.0111046391 3.26921989,0.453875598 1.42108547e-14,1.74738922 C1.42108547e-14,1.74738922 0.145845642,2.13909299 0.502184315,2.78493031 C3.49265654,1.48130227 6.41494487,1.06689411 8.96766798,1.08641564 L8.96802164,1.08641564" id="path37"></path>
        </g>
    </g>
</svg>