<svg xmlns="http://www.w3.org/2000/svg" viewBox="0 0 82 24">
  <path d="M7.673 0l3.462.801v3.855l3.462.8v12.438l-3.462-.8v3.854l-3.462-.801V24l-3.461-.8v-3.854L.75 18.545V6.106l3.462.8V3.054l3.461.8V0zm59.156 10.474c.806 0 1.555.125 2.246.375.69.251 1.289.6 1.797 1.045.506.447.9.978 1.181 1.596.281.616.422 1.298.422 2.043a4.771 4.771 0 01-1.613 3.639 5.305 5.305 0 01-1.806 1.036 6.907 6.907 0 01-2.282.367 6.613 6.613 0 01-2.236-.367 5.169 5.169 0 01-1.769-1.045 4.827 4.827 0 01-1.164-1.623c-.281-.629-.422-1.328-.422-2.098 0-.697.141-1.347.422-1.952a4.77 4.77 0 011.173-1.577 5.572 5.572 0 011.788-1.054 6.43 6.43 0 012.263-.385zm14.069.146c.103 0 .223.013.357.037v3.171a3.16 3.16 0 00-1.429-.33c-.77 0-1.348.229-1.733.688-.385.458-.577 1.127-.577 2.007v4.033h-3.318v-9.404h3.318v1.54c.355-.562.788-.993 1.302-1.292.513-.3 1.111-.45 1.796-.45h.284zm-21.08 0c.103 0 .223.013.357.037v3.171a3.166 3.166 0 00-1.429-.33c-.771 0-1.348.229-1.733.688-.385.458-.577 1.127-.577 2.007v4.033h-3.318v-9.404h3.318v1.54c.355-.562.788-.993 1.301-1.292.513-.3 1.112-.45 1.797-.45h.284zm-8.359 0c.104 0 .223.013.358.037v3.171a3.17 3.17 0 00-1.43-.33c-.77 0-1.347.229-1.732.688-.385.458-.578 1.127-.578 2.007v4.033h-3.318v-9.404h3.318v1.54c.354-.562.789-.993 1.301-1.292.514-.3 1.113-.45 1.797-.45h.284zm-8.79.202v9.404h-3.317v-9.404h3.317zM26.154 6.405l2.767 7.368 2.75-7.368h3.557l2.346 13.821h-3.575l-1.191-7.956-3.263 7.956h-1.43l-3.098-7.956-1.191 7.956H20.25l2.347-13.821h3.557zM3.52 9.315v7.302l4.847 1.121v-7.303L3.52 9.315zm63.309 4.037c-.293 0-.571.055-.833.165a2.01 2.01 0 00-.679.458 2.34 2.34 0 00-.458.679 1.975 1.975 0 00-.175.824c0 .318.059.608.175.871.115.263.268.492.458.687a2.132 2.132 0 001.512.624c.294 0 .571-.056.835-.166.262-.109.488-.262.677-.458a2.31 2.31 0 00.459-.687c.116-.263.174-.547.174-.852 0-.294-.058-.571-.174-.835a2.335 2.335 0 00-.459-.687 2.021 2.021 0 00-.677-.458 2.145 2.145 0 00-.835-.165zM41.001 5.341c.257 0 .498.049.724.147a1.896 1.896 0 01.999.999c.099.226.148.467.148.724 0 .257-.049.498-.148.724a1.89 1.89 0 01-.999.999 1.799 1.799 0 01-.724.147c-.256 0-.498-.049-.724-.147a1.875 1.875 0 01-.595-.403 1.874 1.874 0 01-.551-1.32 1.874 1.874 0 01.551-1.32c.17-.171.369-.305.595-.403.226-.098.468-.147.724-.147z"/>
</svg>
