<svg xmlns="http://www.w3.org/2000/svg" width="94.05" height="17.1" viewBox="0 0 94.05 17.1"><defs><style>.r,.s,.t{fill:#fff;}.s{fill:#fff;opacity:0.7;}.t{fill:#fff;opacity:0.4;}</style></defs><g transform="translate(-2.8 -2.7)"><g transform="translate(24.979 4.243)"><path class="r" d="M47.714,15.779a5.806,5.806,0,0,1-2.443,2.379,8.126,8.126,0,0,1-3.857.836H37.3V5.3h4.114a7.954,7.954,0,0,1,3.857.836,5.471,5.471,0,0,1,2.443,2.379,8.032,8.032,0,0,1,.836,3.6A7.35,7.35,0,0,1,47.714,15.779Zm-2.764-.064a4.7,4.7,0,0,0,1.35-3.6,4.7,4.7,0,0,0-1.35-3.6,5.3,5.3,0,0,0-3.793-1.286H39.421V17h1.736A4.942,4.942,0,0,0,44.95,15.714Z" transform="translate(-37.3 -5.171)"/><path class="r" d="M60.15,7.1v4.179h5.079v1.736H60.15v4.243h5.657v1.8H57.9V5.3h7.843V7.1Z" transform="translate(-44.657 -5.171)"/><path class="r" d="M75.236,18.286h5.143v.707H74.4V5.3h.9l-.064,12.986Z" transform="translate(-50.55 -5.171)"/><path class="r" d="M87.9,5.3V19.057H87V5.3Z" transform="translate(-55.05 -5.171)"/><path class="r" d="M103.079,6.257a5.971,5.971,0,0,1,2.25,3.15h-.9A5.309,5.309,0,0,0,102.5,6.9a5.493,5.493,0,0,0-3.279-.964,5.407,5.407,0,0,0-2.893.771,5.042,5.042,0,0,0-2.057,2.121,6.858,6.858,0,0,0-.771,3.279,6.937,6.937,0,0,0,.771,3.343,5.634,5.634,0,0,0,2.057,2.186,5.8,5.8,0,0,0,2.957.771,5.951,5.951,0,0,0,2.829-.707,5.555,5.555,0,0,0,2.057-1.993,6.444,6.444,0,0,0,.836-3.086H98.9v-.707h6.814v.643a7.455,7.455,0,0,1-.9,3.407,6.329,6.329,0,0,1-2.314,2.379,6.459,6.459,0,0,1-3.343.836,6.566,6.566,0,0,1-3.407-.9,5.977,5.977,0,0,1-2.379-2.507,8.5,8.5,0,0,1-.771-3.664,7.265,7.265,0,0,1,.836-3.6A6.377,6.377,0,0,1,95.814,6a6.737,6.737,0,0,1,3.407-.9A6.516,6.516,0,0,1,103.079,6.257Z" transform="translate(-57.05 -5.1)"/><path class="r" d="M126.971,5.3V19.057h-.9V12.371H118.1v6.686h-.9V5.3h.9v6.3h7.971V5.3Z" transform="translate(-65.836 -5.171)"/><path class="r" d="M144.207,5.3v.771h-3.986V19.057h-.9V6.071H135.4V5.3Z" transform="translate(-72.336 -5.171)"/></g><path class="r" d="M23.85,11.25A8.546,8.546,0,0,0,15.3,2.7v8.55Z" transform="translate(-4.464 0)"/><path class="s" d="M23.85,16a8.546,8.546,0,0,1-8.55,8.55V16Z" transform="translate(-4.464 -4.75)"/><rect class="t" width="8.036" height="8.55" transform="translate(2.8 2.7)"/></g></svg>
