<svg xmlns="http://www.w3.org/2000/svg" width="20" height="20" viewBox="0 0 20 20">
    <path data-name="Path 211" d="M0 0h20v20H0z" style="fill:none"/>
    <path data-name="Path 212" d="M13.513 1H3.645A1.657 1.657 0 0 0 2 2.659v11.614h1.645V2.659h9.868zm2.467 3.318H6.934a1.657 1.657 0 0 0-1.645 1.659v11.614a1.657 1.657 0 0 0 1.645 1.659h9.046a1.657 1.657 0 0 0 1.645-1.659V5.977a1.657 1.657 0 0 0-1.645-1.659zm0 13.273H6.934V5.977h9.046z" transform="translate(-.25 -.125)" style="fill:#fff"/>
</svg>
