<svg xmlns="http://www.w3.org/2000/svg" width="24" height="24">
    <g data-name="Group 63">
        <path data-name="Rectangle 128" style="fill:none;opacity:.502" d="M0 0h24v24H0z"/>
        <path d="M17.945 6.3A8.185 8.185 0 0 0 20 4.174a8.563 8.563 0 0 1-2.362.648 4.078 4.078 0 0 0 1.8-2.266 8.2 8.2 0 0 1-2.6.993 4.1 4.1 0 0 0-7.093 2.8 4.222 4.222 0 0 0 .1.935A11.608 11.608 0 0 1 1.393 3a4.1 4.1 0 0 0 1.26 5.48A4.053 4.053 0 0 1 .8 7.972v.045a4.119 4.119 0 0 0 3.285 4.029 4.077 4.077 0 0 1-1.075.135 3.619 3.619 0 0 1-.776-.07 4.141 4.141 0 0 0 3.831 2.857 8.242 8.242 0 0 1-5.084 1.748A7.755 7.755 0 0 1 0 16.66a11.547 11.547 0 0 0 6.29 1.84A11.59 11.59 0 0 0 17.945 6.3z" transform="translate(2 1.625)" style="fill:#fff"/>
    </g>
</svg>
