<svg xmlns="http://www.w3.org/2000/svg" width="24" height="24" viewBox="0 0 24 24">
    <g data-name="dropdown button">
        <path data-name="Rectangle 167" style="fill:none" d="M0 0h24v24H0z"/>
        <path data-name="Path 31" d="M5.5 104.141a.729.729 0 0 1-.545-.252l-4.73-5.28a.932.932 0 0 1 0-1.216.715.715 0 0 1 1.089 0l4.186 4.672 4.185-4.672a.715.715 0 0 1 1.089 0 .932.932 0 0 1 0 1.216l-4.73 5.28a.729.729 0 0 1-.544.252z" transform="translate(6.999 -88.141)" style="fill:#0222ba"/>
    </g>
</svg>
