<svg xmlns="http://www.w3.org/2000/svg" width="24" height="24">
    <g data-name="Group 64">
        <path data-name="Rectangle 127" style="fill:none;opacity:.502" d="M0 0h24v24H0z"/>
        <path d="M10 .5a9.913 9.913 0 0 0-10 9.827 9.843 9.843 0 0 0 6.837 9.323c.5.093.683-.212.683-.472 0-.233-.008-.852-.013-1.671-2.78.593-3.367-1.319-3.367-1.319a2.619 2.619 0 0 0-1.112-1.438c-.906-.609.07-.6.07-.6a2.092 2.092 0 0 1 1.532 1.012 2.153 2.153 0 0 0 2.912.818 2.081 2.081 0 0 1 .633-1.314c-2.221-.242-4.555-1.087-4.555-4.852a3.754 3.754 0 0 1 1.029-2.636 3.438 3.438 0 0 1 .088-2.6s.838-.263 2.75 1.008a9.588 9.588 0 0 1 5 0c1.9-1.271 2.738-1.007 2.738-1.007a3.533 3.533 0 0 1 .1 2.6 3.77 3.77 0 0 1 1.025 2.637c0 3.775-2.337 4.606-4.562 4.847a2.332 2.332 0 0 1 .675 1.818c0 1.315-.013 2.372-.013 2.691 0 .257.175.565.688.467A9.813 9.813 0 0 0 20 10.327 9.915 9.915 0 0 0 10 .5z" transform="translate(2 1.917)" style="fill:#fff"/>
    </g>
</svg>
