<svg xmlns="http://www.w3.org/2000/svg" width="24" height="24">
    <defs>
        <style>
            .cls-2{fill:#fff}
        </style>
    </defs>
    <g id="Group_62" data-name="Group 62" transform="translate(-131 -960)">
        <path id="Rectangle_129" data-name="Rectangle 129" transform="translate(131 960)" style="fill:none;opacity:.502" d="M0 0h24v24H0z"/>
        <g id="discord_1_" data-name="discord (1)" transform="translate(132.833 962)">
            <path id="Path_198" data-name="Path 198" class="cls-2" d="M3.15 17.663h11.883l-.567-1.838 1.358 1.165 1.244 1.115L19.333 20V2.063A2.212 2.212 0 0 0 17.127 0H3.154A2.127 2.127 0 0 0 1 2.067V15.6a2.085 2.085 0 0 0 2.15 2.063zm8.79-12.927-.027.01.01-.01zM5.581 5.793a5.141 5.141 0 0 1 2.943-1.058l.114.112a6.066 6.066 0 0 0-2.716 1.281s.227-.111.622-.28a9.516 9.516 0 0 1 7.812.335 6.854 6.854 0 0 0-2.6-1.281l.155-.153a5.146 5.146 0 0 1 2.9 1.05 12.864 12.864 0 0 1 1.537 5.85 4.441 4.441 0 0 1-3.276 1.438s-.393-.445-.673-.833a3.366 3.366 0 0 0 1.867-1.17 12.263 12.263 0 0 1-1.182.614 7.913 7.913 0 0 1-1.523.446 8.107 8.107 0 0 1-5.027-.78l-.436-.222A3.345 3.345 0 0 0 7.9 12.313c-.343.391-.682.835-.682.835a3.706 3.706 0 0 1-3.168-1.505 12.9 12.9 0 0 1 1.528-5.85z"/>
            <path id="Path_199" data-name="Path 199" class="cls-2" d="M14.308 12.771a1.338 1.338 0 0 0 0-2.675 1.337 1.337 0 0 0 0 2.672z" transform="translate(-2.269 -1.894)"/>
            <path id="Path_200" data-name="Path 200" class="cls-2" d="M9.69 12.771a1.338 1.338 0 0 0 0-2.675 1.337 1.337 0 0 0 0 2.672z" transform="translate(-1.397 -1.894)"/>
        </g>
    </g>
</svg>
