<svg viewBox="0 0 84 24">
  <path d="M6.74 0l3.37.8v3.85l3.37.8V17.9l-3.37-.8v3.85l-3.37-.8V24l-3.37-.8v-3.85L0 18.54V6.1l3.37.8V3.06l3.37.8V0zm62.11 10.47c.85 0 1.64.13 2.36.38s1.35.6 1.89 1.04a4.73 4.73 0 011.24 1.6 4.68 4.68 0 01.44 2.04c0 .75-.15 1.43-.45 2.05a4.88 4.88 0 01-1.24 1.6c-.53.44-1.16.79-1.9 1.03a7.6 7.6 0 01-2.4.37 7.26 7.26 0 01-2.34-.37 5.5 5.5 0 01-1.86-1.04 4.87 4.87 0 01-1.22-1.63 4.9 4.9 0 010-4.05 4.81 4.81 0 011.23-1.58 5.93 5.93 0 011.88-1.05 7.08 7.08 0 012.37-.39zm14.78.15c.1 0 .23.01.37.04v3.17a3.44 3.44 0 00-1.5-.33c-.81 0-1.42.23-1.82.69-.4.46-.6 1.13-.6 2v4.04h-3.49v-9.4h3.48v1.53a3.93 3.93 0 011.37-1.3c.54-.3 1.17-.44 1.89-.44h.3zm-22.14 0c.11 0 .23.01.38.04v3.17a3.45 3.45 0 00-1.5-.33c-.81 0-1.42.23-1.82.69-.4.46-.61 1.13-.61 2v4.04h-3.49v-9.4h3.49v1.53a3.93 3.93 0 011.37-1.3c.54-.3 1.16-.44 1.88-.44h.3zm-8.78 0c.11 0 .24.01.38.04v3.17a3.44 3.44 0 00-1.5-.33c-.81 0-1.42.23-1.82.69-.4.46-.6 1.13-.6 2v4.04h-3.49v-9.4h3.48v1.53a3.92 3.92 0 011.37-1.3c.54-.3 1.17-.44 1.89-.44h.3zm-9.23.2v9.41H40v-9.4h3.48zM26.14 6.4l2.9 7.37 2.9-7.37h3.73l2.46 13.83h-3.75l-1.25-7.96-3.43 7.96h-1.5l-3.25-7.96-1.25 7.96h-3.75L22.4 6.4h3.73zM2.7 9.31v7.3l4.72 1.13v-7.3L2.7 9.3zm66.16 4.04c-.3 0-.6.06-.87.17a2.12 2.12 0 00-.72.46c-.2.2-.36.42-.48.67a1.9 1.9 0 00-.18.83c0 .32.06.6.18.87a2.3 2.3 0 00.48.69c.2.2.44.35.71.46a2.39 2.39 0 002.47-.46c.2-.2.36-.43.48-.69a2.01 2.01 0 00.18-.85 1.97 1.97 0 00-.18-.84 2.34 2.34 0 00-.48-.68 2.13 2.13 0 00-.71-.46 2.36 2.36 0 00-.88-.17zM41.73 5.34a1.99 1.99 0 011.81 1.14 1.74 1.74 0 010 1.45 1.9 1.9 0 01-.42.6 2 2 0 01-1.39.55c-.27 0-.52-.05-.76-.15a1.98 1.98 0 01-.62-.4 1.9 1.9 0 01-.43-.6 1.73 1.73 0 01-.15-.72c0-.26.05-.5.15-.73a1.98 1.98 0 011.05-1 1.99 1.99 0 01.76-.14z"/>
</svg>
