<svg xmlns="http://www.w3.org/2000/svg" width="184" height="38.529" viewBox="0 0 184 38.529"><defs><style>.a,.b,.c{fill:#fff;}.a{opacity:0.702;}.b{opacity:0.4;}</style></defs><g transform="translate(-0.8 -0.8)"><path class="a" d="M32.1.8a14.437,14.437,0,1,1,0,28.874Z" transform="translate(-2.518)"/><rect class="b" width="28.782" height="28.874" transform="translate(0.8 0.8)"/><path class="c" d="M30.837,29.674A14.437,14.437,0,1,1,30.837.8Z" transform="translate(-1.255 0)"/><g transform="translate(50.087 4.846)"><path class="c" d="M63.871,25.178H59.733V8.994H54.4V5.5H69.3V8.994H63.963l-.092,16.184Z" transform="translate(-54.4 -5.224)"/><path class="c" d="M77.724,25.84a7.728,7.728,0,0,1-5.7-2.023A7.507,7.507,0,0,1,70,18.208a8.407,8.407,0,0,1,1.931-5.885,7.714,7.714,0,0,1,10.207-.184A6.772,6.772,0,0,1,83.885,17.2V19.22H74.138a3.494,3.494,0,0,0,3.77,3.77,11.633,11.633,0,0,0,2.575-.276,10.9,10.9,0,0,0,2.575-.92v3.218a9.783,9.783,0,0,1-2.3.828A16.647,16.647,0,0,1,77.724,25.84Zm-.644-12.69a2.568,2.568,0,0,0-2.023.828,4.342,4.342,0,0,0-.828,2.391h5.793a3.285,3.285,0,0,0-.828-2.391A2.77,2.77,0,0,0,77.08,13.151Z" transform="translate(-55.655 -5.61)"/><path class="c" d="M97.068,10.3a6.089,6.089,0,0,1,1.379.092l-.276,3.862a4.858,4.858,0,0,0-1.2-.092,4.468,4.468,0,0,0-3.034,1.011,3.672,3.672,0,0,0-1.1,2.851v7.632H88.7V10.576h3.126l.644,2.575h.184a5.111,5.111,0,0,1,1.931-2.023A3.539,3.539,0,0,1,97.068,10.3Z" transform="translate(-57.16 -5.61)"/><path class="c" d="M110.668,10.3a6.089,6.089,0,0,1,1.379.092l-.276,3.862a4.858,4.858,0,0,0-1.2-.092,4.468,4.468,0,0,0-3.034,1.011,3.672,3.672,0,0,0-1.1,2.851v7.632H102.3V10.576h3.126l.644,2.575h.184a5.111,5.111,0,0,1,1.931-2.023A4.993,4.993,0,0,1,110.668,10.3Z" transform="translate(-58.254 -5.61)"/><path class="c" d="M124.075,25.556l-.828-2.023h-.092a7.564,7.564,0,0,1-2.115,1.839,6.385,6.385,0,0,1-2.851.46,4.528,4.528,0,0,1-3.4-1.2,4.8,4.8,0,0,1-1.287-3.494,3.931,3.931,0,0,1,1.655-3.494,9.858,9.858,0,0,1,5.057-1.287l2.575-.092v-.736a2.008,2.008,0,0,0-2.3-2.3,10.681,10.681,0,0,0-4.23,1.1l-1.379-2.759a12.245,12.245,0,0,1,5.793-1.379,7.689,7.689,0,0,1,4.69,1.287,4.767,4.767,0,0,1,1.655,4.046V25.556Zm-1.2-6.9-1.563.092a4.925,4.925,0,0,0-2.667.644,2.141,2.141,0,0,0-.92,1.839c0,1.2.644,1.747,2.023,1.747a3.205,3.205,0,0,0,2.3-.828,2.983,2.983,0,0,0,.828-2.207Z" transform="translate(-59.155 -5.602)"/><g transform="translate(72.828)"><path class="c" d="M145.738,20.1a4.629,4.629,0,0,1-1.839,3.862,7.793,7.793,0,0,1-4.782,1.471A14.5,14.5,0,0,1,133.6,24.6V23.223a13.084,13.084,0,0,0,5.425.92,6.034,6.034,0,0,0,3.862-1.1,3.856,3.856,0,0,0,.92-4.782,4.748,4.748,0,0,0-1.563-1.379,15.325,15.325,0,0,0-3.126-1.287,11.823,11.823,0,0,1-4.138-2.207,4.608,4.608,0,0,1-1.2-3.218,4.277,4.277,0,0,1,1.747-3.586A7.024,7.024,0,0,1,139.945,5.2a14.367,14.367,0,0,1,5.241,1.011l-.46,1.2a13.073,13.073,0,0,0-4.69-1.011,5.832,5.832,0,0,0-3.494,1.011,3.322,3.322,0,0,0-1.287,2.759,3.288,3.288,0,0,0,.368,1.747A4.285,4.285,0,0,0,136.91,13.2a22.729,22.729,0,0,0,3.126,1.379,16.037,16.037,0,0,1,3.494,1.563,4.723,4.723,0,0,1,1.655,1.655A4.479,4.479,0,0,1,145.738,20.1Z" transform="translate(-133.6 -5.2)"/><path class="c" d="M162.5,25.613l-3.218-9.839c-.184-.644-.46-1.655-.828-2.943h-.092l-.276,1.011-.644,1.931-3.218,9.747h-1.287L148.8,10.992h1.471l2.3,8.46c.552,2.115.92,3.678,1.1,4.6h.092c.552-2.115.92-3.494,1.2-4.23L158,10.9h1.2l2.851,8.92c.644,2.115,1.012,3.494,1.2,4.23h.092q.138-.828,1.1-4.69l2.207-8.368h1.379l-3.954,14.621Z" transform="translate(-134.823 -5.659)"/><path class="c" d="M181.423,25.6l-.368-2.3h-.092a6.637,6.637,0,0,1-2.3,2.023,6.141,6.141,0,0,1-2.759.552,4.5,4.5,0,0,1-3.31-1.1,3.822,3.822,0,0,1-1.2-3.034,3.6,3.6,0,0,1,1.747-3.31,9.851,9.851,0,0,1,5.149-1.287l2.759-.092V16.041a4.887,4.887,0,0,0-.828-3.126,3.227,3.227,0,0,0-2.759-1.1,9.36,9.36,0,0,0-4.23,1.1l-.368-1.011a11.326,11.326,0,0,1,4.782-1.1,4.73,4.73,0,0,1,3.586,1.287,5.262,5.262,0,0,1,1.2,3.862V25.7h-1.012V25.6Zm-5.333-.92a4.924,4.924,0,0,0,3.678-1.379,5,5,0,0,0,1.379-3.77V18.064l-2.575.092a11.372,11.372,0,0,0-4.414.92,2.692,2.692,0,0,0-1.287,2.575,2.638,2.638,0,0,0,.828,2.115A2.991,2.991,0,0,0,176.09,24.685Z" transform="translate(-136.641 -5.651)"/><path class="c" d="M193.845,25.872a5.352,5.352,0,0,1-4.966-2.575h-.092v1.1c0,.644.092,1.379.092,2.207v11.31H187.5V10.976h1.1l.276,2.115h.092a5.28,5.28,0,0,1,4.782-2.391,5.46,5.46,0,0,1,4.506,1.931,9.153,9.153,0,0,1,1.563,5.7,8.674,8.674,0,0,1-1.655,5.609A5.214,5.214,0,0,1,193.845,25.872Zm-.092-1.1a4.152,4.152,0,0,0,3.494-1.655,7.7,7.7,0,0,0,1.2-4.69c0-4.322-1.563-6.437-4.69-6.437a4.733,4.733,0,0,0-3.77,1.379c-.828.92-1.2,2.483-1.2,4.6v.368c0,2.3.368,3.954,1.2,4.874A4.529,4.529,0,0,0,193.753,24.769Z" transform="translate(-137.937 -5.643)"/></g></g><g transform="translate(84.478 30.593)"><path class="c" d="M95.754,35.439a1.715,1.715,0,0,1-.644,1.471,2.741,2.741,0,0,1-1.839.46h-.736v2.391H91.8V33.6h1.563C95.018,33.692,95.754,34.244,95.754,35.439Zm-3.218,1.379h.644a2.584,2.584,0,0,0,1.379-.276,1.186,1.186,0,0,0,.46-1.011,1.066,1.066,0,0,0-.368-.92,2.225,2.225,0,0,0-1.287-.276h-.828S92.536,36.818,92.536,36.818Z" transform="translate(-91.8 -33.232)"/><path class="c" d="M101.33,37.691a2.489,2.489,0,0,1-.552,1.747,1.894,1.894,0,0,1-1.563.644,2.448,2.448,0,0,1-1.1-.276,2.171,2.171,0,0,1-.736-.828,2.937,2.937,0,0,1-.276-1.287,2.489,2.489,0,0,1,.552-1.747,2.22,2.22,0,0,1,3.126,0A2.489,2.489,0,0,1,101.33,37.691Zm-3.494,0A2.216,2.216,0,0,0,98.2,39.07a1.317,1.317,0,0,0,1.011.46,1.186,1.186,0,0,0,1.011-.46,1.909,1.909,0,0,0,.368-1.379,2.216,2.216,0,0,0-.368-1.379,1.317,1.317,0,0,0-1.011-.46,1.186,1.186,0,0,0-1.011.46A1.909,1.909,0,0,0,97.836,37.691Z" transform="translate(-92.226 -33.369)"/><path class="c" d="M106.822,39.99l-.828-2.667a4.586,4.586,0,0,1-.276-1.1h0a9.539,9.539,0,0,1-.276,1.1l-.828,2.667h-.828l-1.287-4.6h.736c.276,1.2.552,2.023.644,2.667a6.043,6.043,0,0,1,.276,1.2h0a2.339,2.339,0,0,1,.184-.644,5.857,5.857,0,0,1,.184-.644l.828-2.667h.736l.828,2.667a3.6,3.6,0,0,1,.276,1.2h0a1,1,0,0,1,.092-.46c.092-.184.368-1.379.92-3.4h.736l-1.287,4.6h-.828v.092Z" transform="translate(-92.661 -33.369)"/><path class="c" d="M112.307,40.082a2.216,2.216,0,0,1-1.655-.644,2.651,2.651,0,0,1-.552-1.747,2.489,2.489,0,0,1,.552-1.747,1.715,1.715,0,0,1,1.471-.644,1.871,1.871,0,0,1,1.379.552,2.025,2.025,0,0,1,.46,1.471v.46h-3.218a2.047,2.047,0,0,0,.368,1.2,1.523,1.523,0,0,0,1.1.46,4.165,4.165,0,0,0,1.471-.276v.644c-.276.092-.46.184-.736.276C112.859,39.99,112.583,40.082,112.307,40.082Zm-.184-4.23a1.181,1.181,0,0,0-.92.368,1.673,1.673,0,0,0-.368,1.011h2.391a1.652,1.652,0,0,0-.276-1.011A.9.9,0,0,0,112.123,35.852Z" transform="translate(-93.272 -33.369)"/><path class="c" d="M117.723,35.3a1.166,1.166,0,0,1,.552.092l-.092.644a3.982,3.982,0,0,1-.46-.092,1.132,1.132,0,0,0-.92.46,1.466,1.466,0,0,0-.368,1.1V39.99H115.7v-4.6h.552l.092.828h0a2.479,2.479,0,0,1,.644-.736A1.732,1.732,0,0,1,117.723,35.3Z" transform="translate(-93.723 -33.369)"/><path class="c" d="M121.407,40.082a2.216,2.216,0,0,1-1.655-.644,2.651,2.651,0,0,1-.552-1.747,2.489,2.489,0,0,1,.552-1.747,1.715,1.715,0,0,1,1.471-.644,1.871,1.871,0,0,1,1.379.552,2.025,2.025,0,0,1,.46,1.471v.46h-3.126a2.047,2.047,0,0,0,.368,1.2,1.523,1.523,0,0,0,1.1.46,4.165,4.165,0,0,0,1.471-.276v.644c-.276.092-.46.184-.736.276C121.959,39.99,121.683,40.082,121.407,40.082Zm-.184-4.23a1.181,1.181,0,0,0-.92.368,1.673,1.673,0,0,0-.368,1.011h2.391a1.652,1.652,0,0,0-.276-1.011A.9.9,0,0,0,121.223,35.852Z" transform="translate(-94.005 -33.369)"/><path class="c" d="M127.81,39.177h0a1.787,1.787,0,0,1-1.471.736,1.452,1.452,0,0,1-1.379-.644,2.479,2.479,0,0,1-.46-1.747,3.046,3.046,0,0,1,.46-1.747,1.654,1.654,0,0,1,1.379-.644,1.715,1.715,0,0,1,1.471.644h.092V33.2h.736v6.529h-.552Zm-1.379.092a1.146,1.146,0,0,0,1.011-.368,2.143,2.143,0,0,0,.368-1.287V37.43a1.909,1.909,0,0,0-.368-1.379,1.186,1.186,0,0,0-1.011-.46,1.132,1.132,0,0,0-.92.46,2.481,2.481,0,0,0-.368,1.379,2.216,2.216,0,0,0,.368,1.379A.934.934,0,0,0,126.431,39.269Z" transform="translate(-94.431 -33.2)"/><path class="c" d="M135,35.131a1.452,1.452,0,0,1,1.379.644,2.479,2.479,0,0,1,.46,1.747,2.489,2.489,0,0,1-.552,1.747,1.654,1.654,0,0,1-1.379.644,2.685,2.685,0,0,1-.828-.184,1.236,1.236,0,0,1-.644-.552h-.092l-.184.552h-.46V33.2h.736v2.575h0A2.017,2.017,0,0,1,135,35.131Zm-.092.552a1.146,1.146,0,0,0-1.012.368,2.584,2.584,0,0,0-.276,1.379,1.909,1.909,0,0,0,.368,1.379,1.186,1.186,0,0,0,1.012.46,1.015,1.015,0,0,0,.92-.46,2.584,2.584,0,0,0,.276-1.379,2.815,2.815,0,0,0-.276-1.379C135.734,35.683,135.367,35.683,134.907,35.683Z" transform="translate(-95.091 -33.2)"/><path class="c" d="M137.892,35.4h.736l1.011,2.667a7.5,7.5,0,0,1,.368,1.287h0a1.836,1.836,0,0,1,.276-.736c.092-.368.46-1.379,1.1-3.218h.736L140.1,40.641a2.87,2.87,0,0,1-.644,1.1,1.673,1.673,0,0,1-1.012.368,1.565,1.565,0,0,1-.644-.092v-.552c.184,0,.368.092.552.092a1.055,1.055,0,0,0,1.012-.828l.276-.644Z" transform="translate(-95.501 -33.377)"/><path class="c" d="M150.866,36.734a2.924,2.924,0,0,1-.828,2.3,3.285,3.285,0,0,1-2.391.828H145.9V33.7h1.931a2.844,2.844,0,0,1,2.207.828A2.715,2.715,0,0,1,150.866,36.734Zm-.736,0a2.371,2.371,0,0,0-.644-1.839,2.6,2.6,0,0,0-1.839-.644h-1.012v4.966h.828a2.59,2.59,0,0,0,1.931-.644A2.282,2.282,0,0,0,150.13,36.734Z" transform="translate(-96.153 -33.24)"/><path class="c" d="M156.2,39.861h-3.4V33.7h3.4v.644h-2.759v2.023h2.575v.644h-2.575v2.3H156.2Z" transform="translate(-96.708 -33.24)"/><path class="c" d="M158,39.861V33.7h.736v5.517h2.759v.644Z" transform="translate(-97.126 -33.24)"/><path class="c" d="M162.9,39.861V33.7h.736v6.161Z" transform="translate(-97.521 -33.24)"/><path class="c" d="M168.134,36.651h2.115v3.034c-.368.092-.644.184-1.012.276a4.858,4.858,0,0,1-1.2.092,2.983,2.983,0,0,1-2.207-.828,3.024,3.024,0,0,1-.736-2.3,2.912,2.912,0,0,1,3.126-3.126,4.117,4.117,0,0,1,1.839.368l-.276.644a3.5,3.5,0,0,0-1.563-.368,2.163,2.163,0,0,0-1.747.644,2.5,2.5,0,0,0-.644,1.839,2.59,2.59,0,0,0,.644,1.931,2.163,2.163,0,0,0,1.747.644,6.209,6.209,0,0,0,1.287-.184V37.386h-1.379v-.736Z" transform="translate(-97.698 -33.248)"/><path class="c" d="M176.99,39.861h-.736V36.918h-3.218v2.943H172.3V33.7h.736v2.575h3.218V33.7h.736Z" transform="translate(-98.277 -33.24)"/><path class="c" d="M181.067,39.861h-.736V34.344H178.4V33.7H183v.644h-1.931v5.517Z" transform="translate(-98.768 -33.24)"/></g></g></svg>