<?xml version="1.0" encoding="utf-8"?>
<!-- Generator: Adobe Illustrator 24.2.3, SVG Export Plug-In . SVG Version: 6.00 Build 0)  -->
<svg version="1.1" id="Layer_1" xmlns="http://www.w3.org/2000/svg" xmlns:xlink="http://www.w3.org/1999/xlink" x="0px" y="0px"
	 viewBox="0 0 80 80" style="enable-background:new 0 0 80 80;" xml:space="preserve">
<style type="text/css">
	.st0{display:none;opacity:0.2;fill:#FF1749;enable-background:new    ;}
	.st1{display:none;fill:#0E3CA5;}
	.st2{fill:#0E3CA5;}
	.st3{fill:#5493F7;}
	.st4{display:none;opacity:0.3;fill:#FF1A82;enable-background:new    ;}
	.st5{opacity:0.3;}
	.st6{fill:url(#SVGID_1_);fill-opacity:0;}
	.st7{opacity:6.250000e-02;fill:url(#SVGID_2_);enable-background:new    ;}
	.st8{opacity:0.125;fill:url(#SVGID_3_);enable-background:new    ;}
	.st9{opacity:0.1875;fill:url(#SVGID_4_);enable-background:new    ;}
	.st10{opacity:0.25;fill:url(#SVGID_5_);enable-background:new    ;}
	.st11{opacity:0.3125;fill:url(#SVGID_6_);enable-background:new    ;}
	.st12{opacity:0.375;fill:url(#SVGID_7_);enable-background:new    ;}
	.st13{opacity:0.4375;fill:url(#SVGID_8_);enable-background:new    ;}
	.st14{opacity:0.5;fill:url(#SVGID_9_);enable-background:new    ;}
	.st15{opacity:0.5625;fill:url(#SVGID_10_);enable-background:new    ;}
	.st16{opacity:0.625;fill:url(#SVGID_11_);enable-background:new    ;}
	.st17{opacity:0.6875;fill:url(#SVGID_12_);enable-background:new    ;}
	.st18{opacity:0.75;fill:url(#SVGID_13_);enable-background:new    ;}
	.st19{opacity:0.8125;fill:url(#SVGID_14_);enable-background:new    ;}
	.st20{opacity:0.875;fill:url(#SVGID_15_);enable-background:new    ;}
	.st21{opacity:0.9375;fill:url(#SVGID_16_);enable-background:new    ;}
	.st22{fill:url(#SVGID_17_);}
	.st23{fill:url(#SVGID_18_);}
	.st24{fill:url(#SVGID_19_);}
	.st25{fill:url(#SVGID_20_);}
	.st26{fill:url(#SVGID_21_);}
	.st27{fill:url(#SVGID_22_);}
	.st28{fill:url(#SVGID_23_);}
	.st29{fill:url(#SVGID_24_);}
	.st30{fill:url(#SVGID_25_);}
	.st31{fill:url(#SVGID_26_);}
	.st32{fill:url(#SVGID_27_);}
	.st33{fill:url(#SVGID_28_);}
	.st34{fill:url(#SVGID_29_);}
	.st35{fill:url(#SVGID_30_);}
	.st36{fill:url(#SVGID_31_);}
	.st37{fill:url(#SVGID_32_);}
	.st38{fill:url(#SVGID_33_);}
	.st39{fill:url(#SVGID_34_);}
	.st40{fill:url(#SVGID_35_);}
	.st41{fill:url(#SVGID_36_);}
	.st42{fill:url(#SVGID_37_);}
	.st43{fill:url(#SVGID_38_);}
	.st44{fill:url(#SVGID_39_);}
	.st45{fill:url(#SVGID_40_);}
	.st46{opacity:0.19;}
	.st47{fill:url(#SVGID_41_);}
</style>
<rect class="st0" width="80" height="80"/>
<g>
	<g>
		<g id="Symbol_2_">
			<g>
				<g>
					<path class="st1" d="M21.6,16.1c-9.2,12.2,26.2,20.7,38.8,18.6c2.2-0.4,8.9-1.5,4.3-10.2c-0.7-1.1-1.5-2.5-2.3-3.6
						c-0.9-1.1-2.1-2.5-3-3.5c-0.3-0.3-0.6-0.6-0.9-0.9c-2.5-2.1-7.5-6.6-20.6-6.7C30.2,9.9,24.7,12.1,21.6,16.1"/>
					<g>
						<path class="st2" d="M33.7,55.7c1.7,6.2,7.7,10.9,10.7,10.7c0.1,0,11.5-2.1,17.7-12.5c4.8-8.1,3.2-15.9-3.4-16
							C56.2,38,30.5,44,33.7,55.7"/>
					</g>
					<g>
						<path class="st2" d="M58,16.1L58,16.1L58,16.1c-5-4.3-11.6-6.9-18.7-6.9c-4.2,0-8.1,0.9-11.7,2.5c-0.6,0.3-1.2,0.6-1.8,0.9
							c-0.4,0.2-0.8,0.4-1.2,0.7l0.1,0c-1.2,0.8-2.2,1.8-3,2.9c-8.3,10.9,19.5,18.9,34.3,18.9C62.8,40,64.7,21.3,58,16.1z"/>
					</g>
					<path class="st1" d="M64.1,48.9c1.9-6.2-0.2-11.2-5.5-11.4c-2.4,0.2-28.1,6.1-24.9,17.9c1.7,6.2,7.7,10.9,10.7,10.7
						c0.1,0,9-1.7,15.4-9.3c2.7-1.7,4.7-3.1,4.7-3.1c0.7-1.2,1.2-2.4,1.8-3.7l0,0C66,49.8,65.2,49.4,64.1,48.9z"/>
				</g>
			</g>
			<g>
				<path class="st3" d="M29.2,16.3c-3.8,5.7-16.5,9.8-18.6,9.1c0,0,0,0,0,0c0.1-0.2,0.2-0.3,0.3-0.5c0.7-1.4,1.6-2.7,2.5-4
					s1.9-2.4,3-3.5s2.3-2.1,3.5-3c0.8-0.6,1.6-1.1,2.4-1.6c1.8-1,3.6-1.1,4.2-1.1C32.2,11.7,29.3,16.3,29.2,16.3"/>
				<path class="st3" d="M26.1,56.8c0.3,1.8,0,8.9-0.4,9.5c-0.3,0-1,0.1-2.9-1c-1-0.6-2-1.2-2.9-1.9c-1.3-0.9-2.4-1.9-3.5-3
					c-1.1-1.1-2.1-2.3-3-3.5c-0.9-1.3-1.8-2.6-2.5-4S9.6,50,9.1,48.5c-0.5-1.5-0.9-3.1-1.2-4.7s-0.4-3.2-0.4-4.9s0.1-3.3,0.4-4.9
					c0.3-1.6,0.7-3.2,1.2-4.7c0.1-0.3,0.2-0.6,0.3-0.9l0,0c2.2,2.9,4.7,5.5,6.9,8.5c2,2.8,4.9,7.4,5.4,8.3
					C25.3,51.3,25.9,55,26.1,56.8"/>
				<path class="st3" d="M68.3,38.9c0,3.9-0.8,7.7-2.1,11.2c-3.6,3.8-27.7-5.6-28-5.7c-3.3-1.5-13.4-5.8-14.3-12.8
					c-1.3-10,18.9-16.9,27.8-17.1c1.1,0,4.3,0.1,6.2,1.6C64.3,21.6,68.3,29.8,68.3,38.9"/>
				<path class="st3" d="M52,65.9c-2.6,1.2-5.5,0.3-4.8-2.2c1.5-4.9,14.1-10,16.9-10.2c0.3,0,0.5,0.2,0.3,0.5
					C61.5,59,57.2,63.2,52,65.9"/>
			</g>
		</g>
		<circle class="st4" cx="37.9" cy="38.9" r="30.4"/>
	</g>
	<g class="st5">
		
			<linearGradient id="SVGID_1_" gradientUnits="userSpaceOnUse" x1="20.96" y1="21.6777" x2="79.5" y2="21.6777" gradientTransform="matrix(1 0 0 -1 0 80)">
			<stop  offset="0.375" style="stop-color:#000000;stop-opacity:0"/>
			<stop  offset="1" style="stop-color:#000000;stop-opacity:0"/>
		</linearGradient>
		<path class="st6" d="M22.9,38.1c-1.1,0-2,0.7-2,1.7c0,9.4,0,21.4,0,30.9c0,1.2,0.9,2.3,2,2.3c28.7,0.4,56.6,8.6,56.6,4.4
			c0-10.3,0-24.5,0-34.8C79.5,38.3,51.6,38.1,22.9,38.1z"/>
		
			<linearGradient id="SVGID_2_" gradientUnits="userSpaceOnUse" x1="20.96" y1="21.8327" x2="79.11" y2="21.8327" gradientTransform="matrix(1 0 0 -1 0 80)">
			<stop  offset="0.375" style="stop-color:#000000;stop-opacity:6.250000e-02"/>
			<stop  offset="1" style="stop-color:#000000;stop-opacity:0"/>
		</linearGradient>
		<path class="st7" d="M22.9,38.1c-1.1,0-2,0.7-2,1.7c0,9.4,0,21.4,0,30.9c0,1.2,0.9,2.2,2,2.3c28.5,0.2,56.2,8.2,56.2,4.2
			c0-10.2,0-24.2,0-34.4C79.1,38.6,51.4,38.1,22.9,38.1z"/>
		
			<linearGradient id="SVGID_3_" gradientUnits="userSpaceOnUse" x1="20.95" y1="21.9785" x2="78.7" y2="21.9785" gradientTransform="matrix(1 0 0 -1 0 80)">
			<stop  offset="0.375" style="stop-color:#000000;stop-opacity:0.125"/>
			<stop  offset="1" style="stop-color:#000000;stop-opacity:0"/>
		</linearGradient>
		<path class="st8" d="M22.9,38.1c-1.1,0-2,0.7-2,1.7c0,9.4,0,21.4,0,30.9c0,1.2,0.9,2.2,2,2.3c28.3,0.2,55.8,7.8,55.8,3.9
			c0-10,0-23.9,0-34C78.7,38.9,51.2,38.2,22.9,38.1z"/>
		
			<linearGradient id="SVGID_4_" gradientUnits="userSpaceOnUse" x1="20.95" y1="22.1246" x2="78.31" y2="22.1246" gradientTransform="matrix(1 0 0 -1 0 80)">
			<stop  offset="0.375" style="stop-color:#000000;stop-opacity:0.1875"/>
			<stop  offset="1" style="stop-color:#000000;stop-opacity:0"/>
		</linearGradient>
		<path class="st9" d="M22.9,38.1c-1.1,0-2,0.7-2,1.7c0,9.4,0,21.4,0,30.9c0,1.2,0.9,2.2,2,2.3c28.1,0.2,55.4,7.4,55.4,3.6
			c0-9.9,0-23.6,0-33.5C78.3,39.2,51,38.2,22.9,38.1z"/>
		
			<linearGradient id="SVGID_5_" gradientUnits="userSpaceOnUse" x1="20.95" y1="22.2685" x2="77.91" y2="22.2685" gradientTransform="matrix(1 0 0 -1 0 80)">
			<stop  offset="0.375" style="stop-color:#000000;stop-opacity:0.25"/>
			<stop  offset="1" style="stop-color:#000000;stop-opacity:0"/>
		</linearGradient>
		<path class="st10" d="M22.9,38.1c-1.1,0-2,0.7-2,1.7c0,9.4,0,21.4,0,30.9c0,1.2,0.9,2.2,2,2.3c27.9,0.2,55,7,55,3.3
			c0-9.8,0-23.3,0-33.1C77.9,39.5,50.8,38.2,22.9,38.1z"/>
		
			<linearGradient id="SVGID_6_" gradientUnits="userSpaceOnUse" x1="20.95" y1="22.4141" x2="77.52" y2="22.4141" gradientTransform="matrix(1 0 0 -1 0 80)">
			<stop  offset="0.375" style="stop-color:#000000;stop-opacity:0.3125"/>
			<stop  offset="1" style="stop-color:#000000;stop-opacity:0"/>
		</linearGradient>
		<path class="st11" d="M22.9,38.1c-1.1,0-2,0.7-2,1.7c0,9.4,0,21.4,0,30.9c0,1.2,0.9,2.2,2,2.3c27.7,0.1,54.6,6.6,54.6,3.1
			c0-9.6,0-23,0-32.7C77.5,39.8,50.7,38.2,22.9,38.1z"/>
		
			<linearGradient id="SVGID_7_" gradientUnits="userSpaceOnUse" x1="20.95" y1="22.5571" x2="77.12" y2="22.5571" gradientTransform="matrix(1 0 0 -1 0 80)">
			<stop  offset="0.375" style="stop-color:#000000;stop-opacity:0.375"/>
			<stop  offset="1" style="stop-color:#000000;stop-opacity:0"/>
		</linearGradient>
		<path class="st12" d="M22.9,38.1c-1.1,0-2,0.7-2,1.7c0,9.4,0,21.4,0,30.9c0,1.2,0.9,2.2,2,2.3c27.5,0.1,54.2,6.2,54.2,2.8
			c0-9.5,0-22.8,0-32.2C77.1,40.1,50.5,38.2,22.9,38.1z"/>
		
			<linearGradient id="SVGID_8_" gradientUnits="userSpaceOnUse" x1="20.95" y1="22.7015" x2="76.73" y2="22.7015" gradientTransform="matrix(1 0 0 -1 0 80)">
			<stop  offset="0.375" style="stop-color:#000000;stop-opacity:0.4375"/>
			<stop  offset="1" style="stop-color:#000000;stop-opacity:0"/>
		</linearGradient>
		<path class="st13" d="M22.9,38.1c-1.1,0-2,0.7-2,1.7c0,9.4,0,21.4,0,30.9c0,1.2,0.9,2.2,2,2.3c27.3,0.1,53.8,5.8,53.8,2.5
			c0-9.3,0-22.5,0-31.8C76.7,40.4,50.2,38.2,22.9,38.1z"/>
		
			<linearGradient id="SVGID_9_" gradientUnits="userSpaceOnUse" x1="20.95" y1="22.836" x2="76.33" y2="22.836" gradientTransform="matrix(1 0 0 -1 0 80)">
			<stop  offset="0.375" style="stop-color:#000000;stop-opacity:0.5"/>
			<stop  offset="1" style="stop-color:#000000;stop-opacity:0"/>
		</linearGradient>
		<path class="st14" d="M22.9,38.1c-1.1,0-2,0.7-2,1.7c0,9.4,0,21.4,0,30.9c0,1.2,0.9,2.2,2,2.3c27.1,0.1,53.4,5.4,53.4,2.3
			c0-9.2,0-22.2,0-31.4C76.3,40.7,50,38.2,22.9,38.1z"/>
		
			<linearGradient id="SVGID_10_" gradientUnits="userSpaceOnUse" x1="20.95" y1="22.98" x2="75.94" y2="22.98" gradientTransform="matrix(1 0 0 -1 0 80)">
			<stop  offset="0.375" style="stop-color:#000000;stop-opacity:0.5625"/>
			<stop  offset="1" style="stop-color:#000000;stop-opacity:0"/>
		</linearGradient>
		<path class="st15" d="M22.9,38.1c-1.1,0-2,0.7-2,1.7c0,9.4,0,21.4,0,30.9c0,1.2,0.9,2.2,2,2.3c26.9,0.1,53,5,53,2
			c0-9,0-21.9,0-30.9C75.9,41,49.8,38.2,22.9,38.1z"/>
		
			<linearGradient id="SVGID_11_" gradientUnits="userSpaceOnUse" x1="20.95" y1="23.1234" x2="75.54" y2="23.1234" gradientTransform="matrix(1 0 0 -1 0 80)">
			<stop  offset="0.375" style="stop-color:#000000;stop-opacity:0.625"/>
			<stop  offset="1" style="stop-color:#000000;stop-opacity:0"/>
		</linearGradient>
		<path class="st16" d="M22.9,38.1c-1.1,0-2,0.7-2,1.7c0,9.4,0,21.4,0,30.9c0,1.2,0.9,2.2,2,2.3c26.7,0.1,52.7,4.6,52.6,1.7
			c0-8.9,0-21.6,0-30.5C75.6,41.2,49.7,38.2,22.9,38.1z"/>
		
			<linearGradient id="SVGID_12_" gradientUnits="userSpaceOnUse" x1="20.95" y1="23.264" x2="75.14" y2="23.264" gradientTransform="matrix(1 0 0 -1 0 80)">
			<stop  offset="0.375" style="stop-color:#000000;stop-opacity:0.6875"/>
			<stop  offset="1" style="stop-color:#000000;stop-opacity:0"/>
		</linearGradient>
		<path class="st17" d="M22.9,38.1c-1.1,0-2,0.7-2,1.7c0,9.4,0,21.4,0,30.9c0,1.2,0.9,2.2,2,2.3c26.5,0.1,52.3,4.2,52.2,1.5
			c0-8.8,0-21.3,0-30.1C75.2,41.5,49.5,38.2,22.9,38.1z"/>
		
			<linearGradient id="SVGID_13_" gradientUnits="userSpaceOnUse" x1="20.95" y1="23.4086" x2="74.75" y2="23.4086" gradientTransform="matrix(1 0 0 -1 0 80)">
			<stop  offset="0.375" style="stop-color:#000000;stop-opacity:0.75"/>
			<stop  offset="1" style="stop-color:#000000;stop-opacity:0"/>
		</linearGradient>
		<path class="st18" d="M22.9,38.1c-1.1,0-2,0.7-2,1.7c0,9.4,0,21.4,0,30.9c0,1.2,0.9,2.2,2,2.2c26.3,0.1,51.9,3.8,51.8,1.2
			c0-8.6,0-21,0-29.7C74.8,41.8,49.2,38.2,22.9,38.1z"/>
		
			<linearGradient id="SVGID_14_" gradientUnits="userSpaceOnUse" x1="20.95" y1="23.5532" x2="74.35" y2="23.5532" gradientTransform="matrix(1 0 0 -1 0 80)">
			<stop  offset="0.375" style="stop-color:#000000;stop-opacity:0.8125"/>
			<stop  offset="1" style="stop-color:#000000;stop-opacity:0"/>
		</linearGradient>
		<path class="st19" d="M22.9,38.1c-1.1,0-2,0.7-2,1.7c0,9.4,0,21.4,0,30.9c0,1.2,0.9,2.2,2,2.2C49,73,74.4,76.3,74.3,73.9
			c0-8.5,0-20.8,0-29.2C74.4,42.1,49.1,38.2,22.9,38.1z"/>
		
			<linearGradient id="SVGID_15_" gradientUnits="userSpaceOnUse" x1="20.95" y1="23.692" x2="73.96" y2="23.692" gradientTransform="matrix(1 0 0 -1 0 80)">
			<stop  offset="0.375" style="stop-color:#000000;stop-opacity:0.875"/>
			<stop  offset="1" style="stop-color:#000000;stop-opacity:0"/>
		</linearGradient>
		<path class="st20" d="M22.9,38.1c-1.1,0-2,0.7-2,1.7c0,9.4,0,21.4,0,30.9c0,1.2,0.9,2.2,2,2.2C48.8,73,74,75.9,74,73.6
			c0-8.3,0-20.5,0-28.8C74,42.4,48.9,38.2,22.9,38.1z"/>
		
			<linearGradient id="SVGID_16_" gradientUnits="userSpaceOnUse" x1="20.95" y1="23.8285" x2="73.56" y2="23.8285" gradientTransform="matrix(1 0 0 -1 0 80)">
			<stop  offset="0.375" style="stop-color:#000000;stop-opacity:0.9375"/>
			<stop  offset="1" style="stop-color:#000000;stop-opacity:0"/>
		</linearGradient>
		<path class="st21" d="M22.9,38.1c-1.1,0-2,0.7-2,1.7c0,9.4,0,21.4,0,30.9c0,1.2,0.9,2.2,2,2.2c25.7,0.1,50.7,2.6,50.7,0.4
			c0-8.2,0-20.2,0-28.4C73.6,42.7,48.7,38.2,22.9,38.1z"/>
		
			<linearGradient id="SVGID_17_" gradientUnits="userSpaceOnUse" x1="20.95" y1="23.9551" x2="73.17" y2="23.9551" gradientTransform="matrix(1 0 0 -1 0 80)">
			<stop  offset="0.375" style="stop-color:#000000"/>
			<stop  offset="1" style="stop-color:#000000;stop-opacity:0"/>
		</linearGradient>
		<path class="st22" d="M22.9,38.1c-1.1,0-2,0.7-2,1.7c0,9.4,0,21.4,0,30.9c0,1.2,0.9,2.2,2,2.2c25.5,0.1,50.3,2.2,50.3,0.1
			c0-8,0-19.9,0-27.9C73.2,43,48.5,38.4,22.9,38.1z"/>
	</g>
	<g>
		<g>
			
				<linearGradient id="SVGID_18_" gradientUnits="userSpaceOnUse" x1="20.95" y1="11.7414" x2="73.17" y2="11.7414" gradientTransform="matrix(1 0 0 -1 0 80)">
				<stop  offset="0" style="stop-color:#808080"/>
				<stop  offset="0.3275" style="stop-color:#838383"/>
				<stop  offset="0.5905" style="stop-color:#8D8D8D"/>
				<stop  offset="0.8302" style="stop-color:#9E9E9E"/>
				<stop  offset="1" style="stop-color:#AFAFAF"/>
			</linearGradient>
			<path class="st23" d="M21,70.7c0,1.2,0.9,2.2,1.9,2.3c25.6,0.2,50.3-1,50.3-4.8C73.2,56.5,21,70.7,21,70.7z"/>
			<g>
				
					<linearGradient id="SVGID_19_" gradientUnits="userSpaceOnUse" x1="47.06" y1="16.4487" x2="47.06" y2="7.0245" gradientTransform="matrix(1 0 0 -1 0 80)">
					<stop  offset="0.35" style="stop-color:#DFDFDF"/>
					<stop  offset="0.6454" style="stop-color:#DDDDDD"/>
					<stop  offset="0.7517" style="stop-color:#D6D6D6"/>
					<stop  offset="0.8276" style="stop-color:#CBCBCB"/>
					<stop  offset="0.8889" style="stop-color:#BABABA"/>
					<stop  offset="0.9414" style="stop-color:#A4A4A4"/>
					<stop  offset="0.987" style="stop-color:#898989"/>
					<stop  offset="1" style="stop-color:#808080"/>
				</linearGradient>
				<path class="st24" d="M21,70.7L21,70.7c0,1.2,0.9,2.3,2,2.3c25.6,0.2,50.2-0.6,50.3-4.8C73.2,56.5,21,70.7,21,70.7z M22.9,72.8
					c-0.1,0-0.1,0-0.2,0c-0.8-0.1-1.4-0.7-1.7-1.5C21.3,72.2,22,72.8,22.9,72.8c25.6-0.2,49.9-8,49.9-4.6
					C72.8,71.8,48.5,73,22.9,72.8z"/>
			</g>
		</g>
		
			<linearGradient id="SVGID_20_" gradientUnits="userSpaceOnUse" x1="20.96" y1="27.5942" x2="73.18" y2="27.5942" gradientTransform="matrix(1 0 0 -1 0 80)">
			<stop  offset="0" style="stop-color:#DFDFDF"/>
			<stop  offset="2.100000e-02" style="stop-color:#E1E1E1"/>
			<stop  offset="0.2435" style="stop-color:#F2F2F2"/>
			<stop  offset="0.4872" style="stop-color:#FCFCFC"/>
			<stop  offset="0.7911" style="stop-color:#FFFFFF"/>
			<stop  offset="0.8444" style="stop-color:#FCFCFC"/>
			<stop  offset="0.8871" style="stop-color:#F2F2F2"/>
			<stop  offset="0.9263" style="stop-color:#E1E1E1"/>
			<stop  offset="0.963" style="stop-color:#C9C9C9"/>
			<stop  offset="0.966" style="stop-color:#C7C7C7"/>
			<stop  offset="1" style="stop-color:#FFFFFF"/>
		</linearGradient>
		<path class="st25" d="M22.9,37.8L22.9,37.8c-1.1,0-2,0.9-2,2c0,10.3,0,20.6,0,30.9c0,1.1,0.9,1.9,1.9,1.9
			c25.6-0.2,50.3-8.7,50.3-4.5c0-11.6,0-23.2,0-34.8C73.2,29.2,48.5,37.6,22.9,37.8z"/>
		<g>
			
				<linearGradient id="SVGID_21_" gradientUnits="userSpaceOnUse" x1="20.9541" y1="38.165" x2="73.1714" y2="38.165" gradientTransform="matrix(1 0 0 -1 0 80)">
				<stop  offset="0" style="stop-color:#242424"/>
				<stop  offset="0.3346" style="stop-color:#2D2D2D"/>
				<stop  offset="0.7911" style="stop-color:#303030"/>
				<stop  offset="0.8668" style="stop-color:#2D2D2D"/>
				<stop  offset="0.9275" style="stop-color:#232323"/>
				<stop  offset="0.966" style="stop-color:#181818"/>
				<stop  offset="1" style="stop-color:#303030"/>
			</linearGradient>
			<path class="st26" d="M57.8,43.8c0.5-0.4,0.7-0.6,1.2-1c-0.4-0.6-0.8-1-1.1-1.5c-0.3-0.4-0.7-0.9-1.1-1.5c-0.5,0.4-0.7,0.6-1.2,1
				c0.4,0.6,0.8,1,1.1,1.5C57,42.8,57.3,43.2,57.8,43.8z"/>
			
				<linearGradient id="SVGID_22_" gradientUnits="userSpaceOnUse" x1="20.9492" y1="34.69" x2="73.173" y2="34.69" gradientTransform="matrix(1 0 0 -1 0 80)">
				<stop  offset="0" style="stop-color:#242424"/>
				<stop  offset="0.3346" style="stop-color:#2D2D2D"/>
				<stop  offset="0.7911" style="stop-color:#303030"/>
				<stop  offset="0.8668" style="stop-color:#2D2D2D"/>
				<stop  offset="0.9275" style="stop-color:#232323"/>
				<stop  offset="0.966" style="stop-color:#181818"/>
				<stop  offset="1" style="stop-color:#303030"/>
			</linearGradient>
			<path class="st27" d="M60.4,47.3c0.5-0.4,0.7-0.6,1.2-1c-0.4-0.6-0.8-1-1.1-1.5c-0.3-0.4-0.7-0.9-1.1-1.5c-0.5,0.4-0.7,0.6-1.2,1
				c0.4,0.6,0.8,1,1.1,1.5C59.6,46.2,60,46.7,60.4,47.3z"/>
			
				<linearGradient id="SVGID_23_" gradientUnits="userSpaceOnUse" x1="20.9544" y1="37.945" x2="73.1714" y2="37.945" gradientTransform="matrix(1 0 0 -1 0 80)">
				<stop  offset="0" style="stop-color:#242424"/>
				<stop  offset="0.3346" style="stop-color:#2D2D2D"/>
				<stop  offset="0.7911" style="stop-color:#303030"/>
				<stop  offset="0.8668" style="stop-color:#2D2D2D"/>
				<stop  offset="0.9275" style="stop-color:#232323"/>
				<stop  offset="0.966" style="stop-color:#181818"/>
				<stop  offset="1" style="stop-color:#303030"/>
			</linearGradient>
			<path class="st28" d="M59.8,42.6c0.4,0.5,0.7,1,1.1,1.5s0.8,1.1,1.3,1.7c0.5-0.4,0.7-0.6,1.2-1c-0.5-0.7-0.9-1.2-1.3-1.7
				s-0.8-1-1.1-1.5s-0.7-1-1.1-1.5s-0.8-1.1-1.3-1.7c-0.5,0.4-0.7,0.6-1.2,1c0.5,0.6,0.9,1.2,1.3,1.7C59.1,41.6,59.4,42.1,59.8,42.6
				z"/>
			
				<linearGradient id="SVGID_24_" gradientUnits="userSpaceOnUse" x1="20.9547" y1="41.215" x2="73.1708" y2="41.215" gradientTransform="matrix(1 0 0 -1 0 80)">
				<stop  offset="0" style="stop-color:#242424"/>
				<stop  offset="0.3346" style="stop-color:#2D2D2D"/>
				<stop  offset="0.7911" style="stop-color:#303030"/>
				<stop  offset="0.8668" style="stop-color:#2D2D2D"/>
				<stop  offset="0.9275" style="stop-color:#232323"/>
				<stop  offset="0.966" style="stop-color:#181818"/>
				<stop  offset="1" style="stop-color:#303030"/>
			</linearGradient>
			<path class="st29" d="M61.4,40.8c0.5-0.4,0.7-0.6,1.2-1c-0.4-0.6-0.8-1-1.1-1.5c-0.3-0.4-0.7-0.9-1.1-1.5c-0.5,0.4-0.7,0.6-1.2,1
				c0.4,0.6,0.8,1,1.1,1.5C60.6,39.7,61,40.2,61.4,40.8z"/>
			
				<linearGradient id="SVGID_25_" gradientUnits="userSpaceOnUse" x1="20.955" y1="37.73" x2="73.1713" y2="37.73" gradientTransform="matrix(1 0 0 -1 0 80)">
				<stop  offset="0" style="stop-color:#242424"/>
				<stop  offset="0.3346" style="stop-color:#2D2D2D"/>
				<stop  offset="0.7911" style="stop-color:#303030"/>
				<stop  offset="0.8668" style="stop-color:#2D2D2D"/>
				<stop  offset="0.9275" style="stop-color:#232323"/>
				<stop  offset="0.966" style="stop-color:#181818"/>
				<stop  offset="1" style="stop-color:#303030"/>
			</linearGradient>
			<path class="st30" d="M63,40.3c-0.5,0.4-0.7,0.6-1.2,1c0.4,0.6,0.8,1,1.1,1.5c0.3,0.4,0.7,0.9,1.1,1.5c0.5-0.4,0.7-0.6,1.2-1
				c-0.4-0.6-0.8-1-1.1-1.5C63.8,41.3,63.5,40.9,63,40.3z"/>
			
				<linearGradient id="SVGID_26_" gradientUnits="userSpaceOnUse" x1="20.9529" y1="17.845" x2="73.1712" y2="17.845" gradientTransform="matrix(1 0 0 -1 0 80)">
				<stop  offset="0" style="stop-color:#242424"/>
				<stop  offset="0.3346" style="stop-color:#2D2D2D"/>
				<stop  offset="0.7911" style="stop-color:#303030"/>
				<stop  offset="0.8668" style="stop-color:#2D2D2D"/>
				<stop  offset="0.9275" style="stop-color:#232323"/>
				<stop  offset="0.966" style="stop-color:#181818"/>
				<stop  offset="1" style="stop-color:#303030"/>
			</linearGradient>
			<path class="st31" d="M36.2,61.7c-0.4-0.5-0.7-1-1.1-1.6c-0.4-0.5-0.8-1.2-1.3-1.8c-0.5,0.4-0.7,0.5-1.2,0.9
				c0.5,0.7,0.9,1.3,1.3,1.8c0.4,0.5,0.8,1.1,1.1,1.6s0.7,1,1.1,1.6s0.8,1.1,1.3,1.8c0.5-0.4,0.7-0.6,1.2-0.9
				c-0.5-0.7-0.9-1.3-1.3-1.8C37,62.7,36.6,62.2,36.2,61.7z"/>
			
				<linearGradient id="SVGID_27_" gradientUnits="userSpaceOnUse" x1="20.9513" y1="18.32" x2="73.1759" y2="18.32" gradientTransform="matrix(1 0 0 -1 0 80)">
				<stop  offset="0" style="stop-color:#242424"/>
				<stop  offset="0.3346" style="stop-color:#2D2D2D"/>
				<stop  offset="0.7911" style="stop-color:#303030"/>
				<stop  offset="0.8668" style="stop-color:#2D2D2D"/>
				<stop  offset="0.9275" style="stop-color:#232323"/>
				<stop  offset="0.966" style="stop-color:#181818"/>
				<stop  offset="1" style="stop-color:#303030"/>
			</linearGradient>
			<path class="st32" d="M31.9,62.1c0.3,0.5,0.7,0.9,1.1,1.6c0.5-0.4,0.7-0.5,1.2-0.9c-0.4-0.6-0.8-1.1-1.1-1.6s-0.7-0.9-1.1-1.6
				c-0.5,0.4-0.7,0.5-1.2,0.9C31.2,61.2,31.6,61.7,31.9,62.1z"/>
			
				<linearGradient id="SVGID_28_" gradientUnits="userSpaceOnUse" x1="20.9544" y1="14.625" x2="73.1666" y2="14.625" gradientTransform="matrix(1 0 0 -1 0 80)">
				<stop  offset="0" style="stop-color:#242424"/>
				<stop  offset="0.3346" style="stop-color:#2D2D2D"/>
				<stop  offset="0.7911" style="stop-color:#303030"/>
				<stop  offset="0.8668" style="stop-color:#2D2D2D"/>
				<stop  offset="0.9275" style="stop-color:#232323"/>
				<stop  offset="0.966" style="stop-color:#181818"/>
				<stop  offset="1" style="stop-color:#303030"/>
			</linearGradient>
			<path class="st33" d="M34.6,63.4c-0.5,0.4-0.7,0.5-1.2,0.9c0.4,0.6,0.8,1.1,1.1,1.6c0.3,0.5,0.7,0.9,1.1,1.6
				c0.5-0.4,0.7-0.6,1.2-0.9c-0.4-0.6-0.8-1.1-1.1-1.6C35.4,64.4,35.1,64,34.6,63.4z"/>
			
				<linearGradient id="SVGID_29_" gradientUnits="userSpaceOnUse" x1="20.9521" y1="15.12" x2="73.1723" y2="15.12" gradientTransform="matrix(1 0 0 -1 0 80)">
				<stop  offset="0" style="stop-color:#242424"/>
				<stop  offset="0.3346" style="stop-color:#2D2D2D"/>
				<stop  offset="0.7911" style="stop-color:#303030"/>
				<stop  offset="0.8668" style="stop-color:#2D2D2D"/>
				<stop  offset="0.9275" style="stop-color:#232323"/>
				<stop  offset="0.966" style="stop-color:#181818"/>
				<stop  offset="1" style="stop-color:#303030"/>
			</linearGradient>
			<path class="st34" d="M32.6,64.4c-0.4-0.5-0.7-1-1.1-1.6c-0.4-0.6-0.8-1.2-1.3-1.9c-0.5,0.3-0.7,0.5-1.2,0.9
				c0.5,0.7,0.9,1.3,1.3,1.9c0.4,0.6,0.8,1.1,1.1,1.6c0.4,0.5,0.7,1,1.1,1.6s0.8,1.2,1.3,1.8c0.5-0.4,0.7-0.6,1.2-0.9
				c-0.5-0.7-0.9-1.3-1.3-1.8C33.3,65.5,33,65,32.6,64.4z"/>
			
				<linearGradient id="SVGID_30_" gradientUnits="userSpaceOnUse" x1="20.9531" y1="33.125" x2="73.1709" y2="33.125" gradientTransform="matrix(1 0 0 -1 0 80)">
				<stop  offset="0" style="stop-color:#242424"/>
				<stop  offset="0.3346" style="stop-color:#2D2D2D"/>
				<stop  offset="0.7911" style="stop-color:#303030"/>
				<stop  offset="0.8668" style="stop-color:#2D2D2D"/>
				<stop  offset="0.9275" style="stop-color:#232323"/>
				<stop  offset="0.966" style="stop-color:#181818"/>
				<stop  offset="1" style="stop-color:#303030"/>
			</linearGradient>
			<path class="st35" d="M36.2,44.8c-0.4,0.6-0.8,1.2-1.1,1.8c-0.4,0.6-0.7,1.2-1.1,1.8c-0.4,0.6-0.8,1.3-1.3,2.1
				c0.5,0.3,0.7,0.4,1.2,0.7c0.5-0.8,0.9-1.4,1.3-2.1c0.4-0.6,0.8-1.2,1.1-1.8c0.4-0.6,0.7-1.2,1.1-1.8s0.8-1.3,1.3-2.1
				c-0.5-0.3-0.7-0.4-1.2-0.7C37,43.5,36.6,44.1,36.2,44.8z"/>
			
				<linearGradient id="SVGID_31_" gradientUnits="userSpaceOnUse" x1="20.9522" y1="34.18" x2="73.1723" y2="34.18" gradientTransform="matrix(1 0 0 -1 0 80)">
				<stop  offset="0" style="stop-color:#242424"/>
				<stop  offset="0.3346" style="stop-color:#2D2D2D"/>
				<stop  offset="0.7911" style="stop-color:#303030"/>
				<stop  offset="0.8668" style="stop-color:#2D2D2D"/>
				<stop  offset="0.9275" style="stop-color:#232323"/>
				<stop  offset="0.966" style="stop-color:#181818"/>
				<stop  offset="1" style="stop-color:#303030"/>
			</linearGradient>
			<path class="st36" d="M33.2,45.5c-0.4,0.6-0.7,1.2-1.1,1.8c-0.4,0.6-0.8,1.3-1.3,2c0.5,0.3,0.7,0.4,1.2,0.7
				c0.5-0.8,0.9-1.4,1.3-2s0.8-1.2,1.1-1.8c0.4-0.6,0.7-1.2,1.1-1.8c0.4-0.6,0.8-1.3,1.3-2.1c-0.5-0.3-0.7-0.4-1.2-0.7
				c-0.5,0.8-0.9,1.4-1.3,2.1C34,44.3,33.6,44.9,33.2,45.5z"/>
			
				<linearGradient id="SVGID_32_" gradientUnits="userSpaceOnUse" x1="20.9521" y1="35.245" x2="73.1723" y2="35.245" gradientTransform="matrix(1 0 0 -1 0 80)">
				<stop  offset="0" style="stop-color:#242424"/>
				<stop  offset="0.3346" style="stop-color:#2D2D2D"/>
				<stop  offset="0.7911" style="stop-color:#303030"/>
				<stop  offset="0.8668" style="stop-color:#2D2D2D"/>
				<stop  offset="0.9275" style="stop-color:#232323"/>
				<stop  offset="0.966" style="stop-color:#181818"/>
				<stop  offset="1" style="stop-color:#303030"/>
			</linearGradient>
			<path class="st37" d="M31.5,46.9c0.4-0.6,0.8-1.2,1.1-1.8s0.7-1.2,1.1-1.8s0.8-1.3,1.3-2.1c-0.5-0.3-0.7-0.4-1.2-0.7
				c-0.5,0.8-0.9,1.4-1.3,2s-0.8,1.2-1.1,1.8s-0.7,1.1-1.1,1.8c-0.4,0.6-0.8,1.3-1.3,2c0.5,0.3,0.7,0.4,1.2,0.7
				C30.7,48.2,31.1,47.5,31.5,46.9z"/>
			
				<linearGradient id="SVGID_33_" gradientUnits="userSpaceOnUse" x1="20.9541" y1="18.95" x2="73.1714" y2="18.95" gradientTransform="matrix(1 0 0 -1 0 80)">
				<stop  offset="0" style="stop-color:#242424"/>
				<stop  offset="0.3346" style="stop-color:#2D2D2D"/>
				<stop  offset="0.7911" style="stop-color:#303030"/>
				<stop  offset="0.8668" style="stop-color:#2D2D2D"/>
				<stop  offset="0.9275" style="stop-color:#232323"/>
				<stop  offset="0.966" style="stop-color:#181818"/>
				<stop  offset="1" style="stop-color:#303030"/>
			</linearGradient>
			<path class="st38" d="M59,59.5c-0.5-0.2-0.7-0.4-1.2-0.6c-0.4,0.7-0.8,1.3-1.1,1.8c-0.3,0.6-0.7,1.1-1.1,1.8
				c0.5,0.2,0.7,0.4,1.2,0.6c0.4-0.7,0.8-1.3,1.1-1.8S58.6,60.2,59,59.5z"/>
			
				<linearGradient id="SVGID_34_" gradientUnits="userSpaceOnUse" x1="20.9493" y1="23.33" x2="73.173" y2="23.33" gradientTransform="matrix(1 0 0 -1 0 80)">
				<stop  offset="0" style="stop-color:#242424"/>
				<stop  offset="0.3346" style="stop-color:#2D2D2D"/>
				<stop  offset="0.7911" style="stop-color:#303030"/>
				<stop  offset="0.8668" style="stop-color:#2D2D2D"/>
				<stop  offset="0.9275" style="stop-color:#232323"/>
				<stop  offset="0.966" style="stop-color:#181818"/>
				<stop  offset="1" style="stop-color:#303030"/>
			</linearGradient>
			<path class="st39" d="M59.4,58.8c0.4-0.7,0.8-1.3,1.1-1.8c0.3-0.6,0.7-1.1,1.1-1.8c-0.5-0.2-0.7-0.4-1.2-0.6
				c-0.4,0.7-0.8,1.3-1.1,1.8c-0.3,0.6-0.7,1.1-1.1,1.8C58.7,58.5,58.9,58.6,59.4,58.8z"/>
			
				<linearGradient id="SVGID_35_" gradientUnits="userSpaceOnUse" x1="20.9538" y1="18.06" x2="73.1719" y2="18.06" gradientTransform="matrix(1 0 0 -1 0 80)">
				<stop  offset="0" style="stop-color:#242424"/>
				<stop  offset="0.3346" style="stop-color:#2D2D2D"/>
				<stop  offset="0.7911" style="stop-color:#303030"/>
				<stop  offset="0.8668" style="stop-color:#2D2D2D"/>
				<stop  offset="0.9275" style="stop-color:#232323"/>
				<stop  offset="0.966" style="stop-color:#181818"/>
				<stop  offset="1" style="stop-color:#303030"/>
			</linearGradient>
			<path class="st40" d="M60.8,60.4c-0.5-0.2-0.7-0.3-1.2-0.6c-0.4,0.7-0.8,1.3-1.1,1.8c-0.3,0.6-0.7,1.1-1.1,1.8
				c0.5,0.2,0.7,0.4,1.2,0.6c0.4-0.7,0.8-1.3,1.1-1.8C60,61.7,60.4,61.1,60.8,60.4z"/>
			
				<linearGradient id="SVGID_36_" gradientUnits="userSpaceOnUse" x1="20.9549" y1="22.445" x2="73.1711" y2="22.445" gradientTransform="matrix(1 0 0 -1 0 80)">
				<stop  offset="0" style="stop-color:#242424"/>
				<stop  offset="0.3346" style="stop-color:#2D2D2D"/>
				<stop  offset="0.7911" style="stop-color:#303030"/>
				<stop  offset="0.8668" style="stop-color:#2D2D2D"/>
				<stop  offset="0.9275" style="stop-color:#232323"/>
				<stop  offset="0.966" style="stop-color:#181818"/>
				<stop  offset="1" style="stop-color:#303030"/>
			</linearGradient>
			<path class="st41" d="M62.3,57.9c0.3-0.5,0.7-1.1,1.1-1.8c-0.5-0.2-0.7-0.4-1.2-0.6c-0.4,0.7-0.8,1.3-1.1,1.8
				c-0.3,0.5-0.7,1.1-1.1,1.8c0.5,0.2,0.7,0.3,1.2,0.6C61.6,59,62,58.4,62.3,57.9z"/>
			
				<linearGradient id="SVGID_37_" gradientUnits="userSpaceOnUse" x1="20.9548" y1="17.18" x2="73.1712" y2="17.18" gradientTransform="matrix(1 0 0 -1 0 80)">
				<stop  offset="0" style="stop-color:#242424"/>
				<stop  offset="0.3346" style="stop-color:#2D2D2D"/>
				<stop  offset="0.7911" style="stop-color:#303030"/>
				<stop  offset="0.8668" style="stop-color:#2D2D2D"/>
				<stop  offset="0.9275" style="stop-color:#232323"/>
				<stop  offset="0.966" style="stop-color:#181818"/>
				<stop  offset="1" style="stop-color:#303030"/>
			</linearGradient>
			<path class="st42" d="M60.3,62.5c-0.3,0.6-0.7,1.1-1.1,1.8c0.5,0.2,0.7,0.4,1.2,0.6c0.4-0.7,0.8-1.3,1.1-1.8
				c0.3-0.6,0.7-1.1,1.1-1.8c-0.5-0.2-0.7-0.4-1.2-0.6C61,61.4,60.6,62,60.3,62.5z"/>
			
				<linearGradient id="SVGID_38_" gradientUnits="userSpaceOnUse" x1="20.955" y1="21.535" x2="73.1713" y2="21.535" gradientTransform="matrix(1 0 0 -1 0 80)">
				<stop  offset="0" style="stop-color:#242424"/>
				<stop  offset="0.3346" style="stop-color:#2D2D2D"/>
				<stop  offset="0.7911" style="stop-color:#303030"/>
				<stop  offset="0.8668" style="stop-color:#2D2D2D"/>
				<stop  offset="0.9275" style="stop-color:#232323"/>
				<stop  offset="0.966" style="stop-color:#181818"/>
				<stop  offset="1" style="stop-color:#303030"/>
			</linearGradient>
			<path class="st43" d="M62.9,58.2c-0.3,0.5-0.7,1.1-1.1,1.8c0.5,0.2,0.7,0.4,1.2,0.6c0.4-0.7,0.8-1.3,1.1-1.8
				c0.3-0.5,0.7-1.1,1.1-1.8c-0.5-0.2-0.7-0.4-1.2-0.6C63.6,57.1,63.2,57.6,62.9,58.2z"/>
		</g>
		
			<linearGradient id="SVGID_39_" gradientUnits="userSpaceOnUse" x1="20.9526" y1="28.4696" x2="73.172" y2="28.4696" gradientTransform="matrix(1 0 0 -1 0 80)">
			<stop  offset="0" style="stop-color:#B41B00"/>
			<stop  offset="2.100000e-02" style="stop-color:#B61D01"/>
			<stop  offset="0.2435" style="stop-color:#C72E0B"/>
			<stop  offset="0.4872" style="stop-color:#D13811"/>
			<stop  offset="0.7911" style="stop-color:#D43B13"/>
			<stop  offset="0.8415" style="stop-color:#D13812"/>
			<stop  offset="0.8819" style="stop-color:#C72F0F"/>
			<stop  offset="0.919" style="stop-color:#B61F0A"/>
			<stop  offset="0.9537" style="stop-color:#9E0903"/>
			<stop  offset="0.966" style="stop-color:#940000"/>
			<stop  offset="1" style="stop-color:#D43B13"/>
		</linearGradient>
		<path class="st44" d="M55.3,48.8C55,48,54.6,47.3,54,46.7c-0.6-0.6-1.2-1.2-2-1.5c-0.7-0.3-1.4-0.6-2.1-0.7
			c-0.7-0.1-1.5-0.2-2.2-0.1c-0.8,0.1-1.5,0.2-2.2,0.5s-1.4,0.6-2.1,1c-0.7,0.4-1.3,0.9-1.9,1.5c-0.6,0.6-1.1,1.2-1.5,1.9
			c-0.5,0.8-0.8,1.7-1,2.5c-0.2,0.8-0.2,1.7,0,2.5s0.5,1.5,1,2.2c0.5,0.7,1.1,1.2,1.8,1.6c0.8,0.4,1.6,0.6,2.4,0.7
			c0.8,0,1.7-0.1,2.5-0.4c0.8-0.3,1.6-0.7,2.3-1.3c0.7-0.6,1.3-1.3,1.8-2.1c0.7,0.4,1.3,0.6,1.8,0.9s1.1,0.5,1.8,0.9
			c0.5-0.9,0.9-1.8,1.2-2.7s0.3-1.8,0.3-2.7C55.8,50.4,55.6,49.6,55.3,48.8z"/>
		<g>
			
				<linearGradient id="SVGID_40_" gradientUnits="userSpaceOnUse" x1="20.9524" y1="24.4281" x2="73.1718" y2="24.4281" gradientTransform="matrix(1 0 0 -1 0 80)">
				<stop  offset="0" style="stop-color:#00209F"/>
				<stop  offset="2.100000e-02" style="stop-color:#0222A1"/>
				<stop  offset="0.2435" style="stop-color:#1333B2"/>
				<stop  offset="0.4872" style="stop-color:#1D3DBC"/>
				<stop  offset="0.7911" style="stop-color:#2040BF"/>
				<stop  offset="0.8415" style="stop-color:#1E3DBC"/>
				<stop  offset="0.8819" style="stop-color:#1933B2"/>
				<stop  offset="0.919" style="stop-color:#1122A1"/>
				<stop  offset="0.9537" style="stop-color:#050A89"/>
				<stop  offset="0.966" style="stop-color:#00007F"/>
				<stop  offset="1" style="stop-color:#2040BF"/>
			</linearGradient>
			<path class="st45" d="M53.2,50.9c-0.7-0.3-1.4-0.5-2.2-0.4c-0.8,0.1-1.5,0.3-2.2,0.8s-1.3,1-1.7,1.8c-0.4,0.7-1,1.3-1.7,1.8
				c-0.7,0.4-1.4,0.7-2.2,0.7c-0.8,0-1.5-0.1-2.2-0.5c-0.7-0.4-1.2-0.9-1.5-1.5c-0.3-0.6-0.5-1.4-0.4-2.1c0-0.8,0.3-1.5,0.7-2.2
				c-0.5,0.9-0.9,1.8-1.2,2.7c-0.2,0.9-0.3,1.8-0.3,2.7s0.2,1.8,0.5,2.6c0.3,0.8,0.7,1.5,1.3,2.2c0.6,0.7,1.2,1.2,2,1.6
				c0.7,0.4,1.4,0.6,2.1,0.8c0.7,0.1,1.5,0.2,2.2,0.1c0.7-0.1,1.5-0.2,2.2-0.5s1.4-0.6,2.1-1c0.7-0.4,1.3-1,1.9-1.5
				c0.6-0.6,1.1-1.3,1.5-2c0.4-0.7,0.7-1.5,0.7-2.3S55,53,54.7,52.4C54.3,51.8,53.8,51.3,53.2,50.9z"/>
		</g>
		<g class="st46">
			
				<linearGradient id="SVGID_41_" gradientUnits="userSpaceOnUse" x1="20.96" y1="27.5942" x2="73.18" y2="27.5942" gradientTransform="matrix(1 0 0 -1 0 80)">
				<stop  offset="0" style="stop-color:#404040"/>
				<stop  offset="0.7911" style="stop-color:#FFFFFF"/>
				<stop  offset="0.966" style="stop-color:#FFFFFF"/>
				<stop  offset="1" style="stop-color:#FFFFFF"/>
			</linearGradient>
			<path class="st47" d="M22.9,37.8L22.9,37.8c-1.1,0-2,0.9-2,2l0,0c0,10.3,0,20.6,0,30.9l0,0c0,1.1,0.9,1.9,1.9,1.9l0,0
				c25.6-0.2,50.3-8.7,50.3-4.5c0-11.6,0-23.2,0-34.8C73.2,29.2,48.5,37.6,22.9,37.8z"/>
		</g>
	</g>
</g>
</svg>
