<?xml version="1.0" encoding="utf-8"?>
<!-- Generator: Adobe Illustrator 24.2.3, SVG Export Plug-In . SVG Version: 6.00 Build 0)  -->
<svg version="1.1" id="Layer_1" xmlns="http://www.w3.org/2000/svg" xmlns:xlink="http://www.w3.org/1999/xlink" x="0px" y="0px"
	 viewBox="0 0 80 80" style="enable-background:new 0 0 80 80;" xml:space="preserve">
<style type="text/css">
	.st0{fill:#EF7730;}
	.st1{fill:#F9D85E;}
</style>
<path class="st0" d="M79.3,32.8L79.3,32.8c0-0.1,0-0.2,0-0.2l0,0c-0.2-1.1-0.5-2.3-0.8-3.4c0,0,0-0.1,0-0.1l0,0
	c-0.2-0.5-0.3-1.1-0.5-1.6c0,0,0-0.1,0-0.1l0,0c-0.4-1.1-0.8-2.2-1.2-3.2c0,0,0,0,0-0.1l0,0c-0.2-0.5-0.4-1-0.7-1.5l0,0c0,0,0,0,0,0
	c-0.2-0.5-0.5-1-0.8-1.5l0,0c0,0,0,0,0,0l0,0c-0.3-0.5-0.6-1-0.9-1.5c0,0,0,0,0,0l0,0c-0.3-0.5-0.6-0.9-0.9-1.4l0,0
	c0,0-0.1-0.1-0.1-0.1l0,0c-0.6-0.9-1.3-1.8-2-2.7c0-0.1-0.1-0.1-0.1-0.2l0,0c-0.4-0.5-0.8-0.9-1.1-1.4l0,0l0,0
	c-0.4-0.4-0.8-0.8-1.2-1.2c0,0,0,0-0.1-0.1l0,0c-0.4-0.4-0.7-0.7-1.1-1.1l0,0c-0.1-0.1-0.1-0.1-0.2-0.1l0,0
	c-0.4-0.4-0.8-0.7-1.2-1.1c-0.1,0-0.1-0.1-0.1-0.1l0,0c-0.4-0.4-0.8-0.7-1.2-1l0,0c0,0-0.1-0.1-0.1-0.1l0,0c-0.4-0.4-0.9-0.7-1.3-1
	c0,0,0,0,0,0l0,0c-0.5-0.3-0.9-0.7-1.4-1c0,0,0,0,0,0l0,0c-0.9-0.6-1.9-1.2-2.9-1.8l0,0c0,0-0.1,0-0.1-0.1c-0.5-0.3-1-0.5-1.5-0.8
	l0,0c-0.1,0-0.1-0.1-0.2-0.1l0,0c-1-0.5-2.1-1-3.1-1.4c-0.1,0-0.1,0-0.2-0.1l0,0c-0.6-0.2-1.1-0.4-1.7-0.6c0,0,0,0,0,0l0,0
	c-0.5-0.2-1-0.3-1.6-0.5c0,0-0.1,0-0.1,0l0,0c-0.6-0.2-1.1-0.3-1.7-0.4c0,0,0,0,0,0l0,0c-0.5-0.1-1.1-0.2-1.7-0.4c0,0-0.1,0-0.1,0
	l0,0c-0.6-0.1-1.2-0.2-1.8-0.3h0l0,0c-0.9-0.1-1.8-0.2-2.8-0.3c0.2,0,0.3,0,0.5,0l0,0c0.4,0,0.7,0.1,1.1,0.1l0,0
	c0.3,0,0.7,0.1,1,0.1c0,0,0,0,0,0c0.3,0.1,0.6,0.1,0.9,0.2c0,0,0,0,0,0c0.3,0.1,0.6,0.1,0.9,0.2c0,0,0,0,0,0
	c0.3,0.1,0.5,0.1,0.8,0.2c0,0,0,0,0,0C48.3,1,48.6,1,48.8,1.1c0,0,0,0,0.1,0c0.2,0.1,0.5,0.1,0.7,0.2c0,0,0,0,0.1,0
	c0.2,0.1,0.4,0.2,0.6,0.2c0,0,0.1,0,0.1,0c0.2,0.1,0.4,0.2,0.6,0.3c0,0,0.1,0,0.1,0.1c0.2,0.1,0.4,0.2,0.5,0.3c0,0,0.1,0,0.1,0.1
	c0.2,0.1,0.3,0.2,0.5,0.3c0,0,0.1,0.1,0.2,0.1c0.1,0.1,0.3,0.2,0.4,0.3c0.1,0,0.1,0.1,0.2,0.1c0.1,0.1,0.2,0.2,0.4,0.3
	c0.1,0.1,0.1,0.1,0.2,0.2c0.1,0.1,0.2,0.2,0.3,0.3C54,4,54.1,4,54.1,4.1c0.1,0.1,0.1,0.1,0.2,0.2c0.2,0.2,0.3,0.3,0.5,0.5
	c0.2,0.3,1.4,1.7,2,4.3c0.7,3.1,0.6,6.2,1.3,9.3c0.1,0.5,0.2,1,0.4,1.5c0,0.1,0.1,0.3,0.1,0.4c0.1,0.4,0.2,0.8,0.3,1.1
	c0,0.1,0.1,0.2,0.1,0.3c3.6,11.6,10.8,17.1,20.5,24.5c0.3-2.1,0.5-4.2,0.5-6.3C80,37.5,79.8,35.1,79.3,32.8z"/>
<path class="st1" d="M76.5,53.2c0.6-0.2,1.2,0.5,0.9,1.1C71.6,69.5,56.7,80.3,39.3,80C17.7,79.6,0.2,61.9,0,40.3
	c-0.1-12.1,5.2-23,13.6-30.4c0.5-0.4,1.3-0.1,1.3,0.6C15.6,26.4,26.4,42.2,43.8,50C54.8,54.9,66.4,55.7,76.5,53.2z M79.6,34.5
	C76.9,15,60.2,0,40,0c-2.2,0-4.4,0.2-6.5,0.5c-0.7,0.1-1.4,0.2-2,0.4c-13.8,3-10.3,9.7,8.8,16.6C78.2,31.2,78.2,31.2,79.6,34.5"/>
</svg>
