<?xml version="1.0" encoding="utf-8"?>
<!-- Generator: Adobe Illustrator 24.2.3, SVG Export Plug-In . SVG Version: 6.00 Build 0)  -->
<svg version="1.1" id="Layer_1" xmlns="http://www.w3.org/2000/svg" xmlns:xlink="http://www.w3.org/1999/xlink" x="0px" y="0px"
	 viewBox="0 0 80 80" style="enable-background:new 0 0 80 80;" xml:space="preserve">
<style type="text/css">
	.st0{display:none;opacity:0.2;fill:#FF1749;enable-background:new    ;}
	.st1{display:none;fill:#0E3CA5;}
	.st2{fill:#0E3CA5;}
	.st3{fill:#5493F7;}
	.st4{display:none;opacity:0.3;fill:#FF1A82;enable-background:new    ;}
	.st5{opacity:0.3;}
	.st6{fill:url(#SVGID_1_);fill-opacity:0;}
	.st7{opacity:6.250000e-02;fill:url(#SVGID_2_);enable-background:new    ;}
	.st8{opacity:0.125;fill:url(#SVGID_3_);enable-background:new    ;}
	.st9{opacity:0.1875;fill:url(#SVGID_4_);enable-background:new    ;}
	.st10{opacity:0.25;fill:url(#SVGID_5_);enable-background:new    ;}
	.st11{opacity:0.3125;fill:url(#SVGID_6_);enable-background:new    ;}
	.st12{opacity:0.375;fill:url(#SVGID_7_);enable-background:new    ;}
	.st13{opacity:0.4375;fill:url(#SVGID_8_);enable-background:new    ;}
	.st14{opacity:0.5;fill:url(#SVGID_9_);enable-background:new    ;}
	.st15{opacity:0.5625;fill:url(#SVGID_10_);enable-background:new    ;}
	.st16{opacity:0.625;fill:url(#SVGID_11_);enable-background:new    ;}
	.st17{opacity:0.6875;fill:url(#SVGID_12_);enable-background:new    ;}
	.st18{opacity:0.75;fill:url(#SVGID_13_);enable-background:new    ;}
	.st19{opacity:0.8125;fill:url(#SVGID_14_);enable-background:new    ;}
	.st20{opacity:0.875;fill:url(#SVGID_15_);enable-background:new    ;}
	.st21{opacity:0.9375;fill:url(#SVGID_16_);enable-background:new    ;}
	.st22{fill:url(#SVGID_17_);}
	.st23{fill:url(#SVGID_18_);}
	.st24{fill:none;}
	.st25{fill:url(#SVGID_19_);}
	.st26{fill:url(#SVGID_20_);}
	.st27{fill:url(#SVGID_21_);}
	.st28{fill:url(#SVGID_22_);}
	.st29{fill:url(#SVGID_23_);}
	.st30{fill:url(#SVGID_24_);}
	.st31{fill:url(#SVGID_25_);}
	.st32{fill:url(#SVGID_26_);}
	.st33{fill:url(#SVGID_27_);}
	.st34{fill:url(#SVGID_28_);}
	.st35{fill:url(#SVGID_29_);}
	.st36{fill:url(#SVGID_30_);}
	.st37{fill:url(#SVGID_31_);}
	.st38{fill:url(#SVGID_32_);}
	.st39{fill:url(#SVGID_33_);}
	.st40{fill:url(#SVGID_34_);}
	.st41{display:none;opacity:0.38;}
	.st42{display:inline;fill:url(#SVGID_35_);}
</style>
<rect class="st0" width="80" height="80"/>
<g>
	<g>
		<g id="Symbol_3_">
			<g>
				<g>
					<path class="st1" d="M21.6,16.1c-9.2,12.2,26.2,20.7,38.8,18.6c2.2-0.4,8.9-1.5,4.3-10.2c-0.7-1.1-1.5-2.5-2.3-3.6
						c-0.9-1.1-2.1-2.5-3-3.5c-0.3-0.3-0.6-0.6-0.9-0.9c-2.5-2.1-7.5-6.6-20.6-6.7C30.2,9.9,24.7,12.1,21.6,16.1"/>
					<g>
						<path class="st2" d="M33.7,55.7c1.7,6.2,7.7,10.9,10.7,10.7c0.1,0,11.5-2.1,17.7-12.5c4.8-8.1,3.2-15.9-3.4-16
							C56.2,38,30.5,44,33.7,55.7"/>
					</g>
					<g>
						<path class="st2" d="M58,16.1L58,16.1L58,16.1c-5-4.3-11.6-6.9-18.7-6.9c-4.2,0-8.1,0.9-11.7,2.5c-0.6,0.3-1.2,0.6-1.8,0.9
							c-0.4,0.2-0.8,0.4-1.2,0.7l0.1,0c-1.2,0.8-2.2,1.8-3,2.9c-8.3,10.9,19.5,18.9,34.3,18.9C62.8,40,64.7,21.3,58,16.1z"/>
					</g>
					<path class="st1" d="M64.1,48.9c1.9-6.2-0.2-11.2-5.5-11.4c-2.4,0.2-28.1,6.1-24.9,17.9c1.7,6.2,7.7,10.9,10.7,10.7
						c0.1,0,9-1.7,15.4-9.3c2.7-1.7,4.7-3.1,4.7-3.1c0.7-1.2,1.2-2.4,1.8-3.7l0,0C66,49.8,65.2,49.4,64.1,48.9z"/>
				</g>
			</g>
			<g>
				<path class="st3" d="M29.2,16.3c-3.8,5.7-16.5,9.8-18.6,9.1c0,0,0,0,0,0c0.1-0.2,0.2-0.3,0.3-0.5c0.7-1.4,1.6-2.7,2.5-4
					s1.9-2.4,3-3.5s2.3-2.1,3.5-3c0.8-0.6,1.6-1.1,2.4-1.6c1.8-1,3.6-1.1,4.2-1.1C32.2,11.7,29.3,16.3,29.2,16.3"/>
				<path class="st3" d="M26.1,56.8c0.3,1.8,0,8.9-0.4,9.5c-0.3,0-1,0.1-2.9-1c-1-0.6-2-1.2-2.9-1.9c-1.3-0.9-2.4-1.9-3.5-3
					c-1.1-1.1-2.1-2.3-3-3.5c-0.9-1.3-1.8-2.6-2.5-4S9.6,50,9.1,48.5c-0.5-1.5-0.9-3.1-1.2-4.7s-0.4-3.2-0.4-4.9s0.1-3.3,0.4-4.9
					c0.3-1.6,0.7-3.2,1.2-4.7c0.1-0.3,0.2-0.6,0.3-0.9l0,0c2.2,2.9,4.7,5.5,6.9,8.5c2,2.8,4.9,7.4,5.4,8.3
					C25.3,51.3,25.9,55,26.1,56.8"/>
				<path class="st3" d="M68.3,38.9c0,3.9-0.8,7.7-2.1,11.2c-3.6,3.8-27.7-5.6-28-5.7c-3.3-1.5-13.4-5.8-14.3-12.8
					c-1.3-10,18.9-16.9,27.8-17.1c1.1,0,4.3,0.1,6.2,1.6C64.3,21.6,68.3,29.8,68.3,38.9"/>
				<path class="st3" d="M52,65.9c-2.6,1.2-5.5,0.3-4.8-2.2c1.5-4.9,14.1-10,16.9-10.2c0.3,0,0.5,0.2,0.3,0.5
					C61.5,59,57.2,63.2,52,65.9"/>
			</g>
		</g>
		<circle class="st4" cx="37.9" cy="38.9" r="30.4"/>
	</g>
	<g class="st5">
		
			<linearGradient id="SVGID_1_" gradientUnits="userSpaceOnUse" x1="20.96" y1="21.6777" x2="79.5" y2="21.6777" gradientTransform="matrix(1 0 0 -1 0 80)">
			<stop  offset="0.375" style="stop-color:#000000;stop-opacity:0"/>
			<stop  offset="1" style="stop-color:#000000;stop-opacity:0"/>
		</linearGradient>
		<path class="st6" d="M22.9,38.1c-1.1,0-2,0.7-2,1.7c0,9.4,0,21.4,0,30.9c0,1.2,0.9,2.3,2,2.3c28.7,0.4,56.6,8.6,56.6,4.4
			c0-10.3,0-24.5,0-34.8C79.5,38.3,51.6,38.1,22.9,38.1z"/>
		
			<linearGradient id="SVGID_2_" gradientUnits="userSpaceOnUse" x1="20.96" y1="21.8327" x2="79.11" y2="21.8327" gradientTransform="matrix(1 0 0 -1 0 80)">
			<stop  offset="0.375" style="stop-color:#000000;stop-opacity:6.250000e-02"/>
			<stop  offset="1" style="stop-color:#000000;stop-opacity:0"/>
		</linearGradient>
		<path class="st7" d="M22.9,38.1c-1.1,0-2,0.7-2,1.7c0,9.4,0,21.4,0,30.9c0,1.2,0.9,2.2,2,2.3c28.5,0.2,56.2,8.2,56.2,4.2
			c0-10.2,0-24.2,0-34.4C79.1,38.6,51.4,38.1,22.9,38.1z"/>
		
			<linearGradient id="SVGID_3_" gradientUnits="userSpaceOnUse" x1="20.95" y1="21.9785" x2="78.7" y2="21.9785" gradientTransform="matrix(1 0 0 -1 0 80)">
			<stop  offset="0.375" style="stop-color:#000000;stop-opacity:0.125"/>
			<stop  offset="1" style="stop-color:#000000;stop-opacity:0"/>
		</linearGradient>
		<path class="st8" d="M22.9,38.1c-1.1,0-2,0.7-2,1.7c0,9.4,0,21.4,0,30.9c0,1.2,0.9,2.2,2,2.3c28.3,0.2,55.8,7.8,55.8,3.9
			c0-10,0-23.9,0-34C78.7,38.9,51.2,38.2,22.9,38.1z"/>
		
			<linearGradient id="SVGID_4_" gradientUnits="userSpaceOnUse" x1="20.95" y1="22.1246" x2="78.31" y2="22.1246" gradientTransform="matrix(1 0 0 -1 0 80)">
			<stop  offset="0.375" style="stop-color:#000000;stop-opacity:0.1875"/>
			<stop  offset="1" style="stop-color:#000000;stop-opacity:0"/>
		</linearGradient>
		<path class="st9" d="M22.9,38.1c-1.1,0-2,0.7-2,1.7c0,9.4,0,21.4,0,30.9c0,1.2,0.9,2.2,2,2.3c28.1,0.2,55.4,7.4,55.4,3.6
			c0-9.9,0-23.6,0-33.5C78.3,39.2,51,38.2,22.9,38.1z"/>
		
			<linearGradient id="SVGID_5_" gradientUnits="userSpaceOnUse" x1="20.95" y1="22.2685" x2="77.91" y2="22.2685" gradientTransform="matrix(1 0 0 -1 0 80)">
			<stop  offset="0.375" style="stop-color:#000000;stop-opacity:0.25"/>
			<stop  offset="1" style="stop-color:#000000;stop-opacity:0"/>
		</linearGradient>
		<path class="st10" d="M22.9,38.1c-1.1,0-2,0.7-2,1.7c0,9.4,0,21.4,0,30.9c0,1.2,0.9,2.2,2,2.3c27.9,0.2,55,7,55,3.3
			c0-9.8,0-23.3,0-33.1C77.9,39.5,50.8,38.2,22.9,38.1z"/>
		
			<linearGradient id="SVGID_6_" gradientUnits="userSpaceOnUse" x1="20.95" y1="22.4141" x2="77.52" y2="22.4141" gradientTransform="matrix(1 0 0 -1 0 80)">
			<stop  offset="0.375" style="stop-color:#000000;stop-opacity:0.3125"/>
			<stop  offset="1" style="stop-color:#000000;stop-opacity:0"/>
		</linearGradient>
		<path class="st11" d="M22.9,38.1c-1.1,0-2,0.7-2,1.7c0,9.4,0,21.4,0,30.9c0,1.2,0.9,2.2,2,2.3c27.7,0.1,54.6,6.6,54.6,3.1
			c0-9.6,0-23,0-32.7C77.5,39.8,50.7,38.2,22.9,38.1z"/>
		
			<linearGradient id="SVGID_7_" gradientUnits="userSpaceOnUse" x1="20.95" y1="22.5571" x2="77.12" y2="22.5571" gradientTransform="matrix(1 0 0 -1 0 80)">
			<stop  offset="0.375" style="stop-color:#000000;stop-opacity:0.375"/>
			<stop  offset="1" style="stop-color:#000000;stop-opacity:0"/>
		</linearGradient>
		<path class="st12" d="M22.9,38.1c-1.1,0-2,0.7-2,1.7c0,9.4,0,21.4,0,30.9c0,1.2,0.9,2.2,2,2.3c27.5,0.1,54.2,6.2,54.2,2.8
			c0-9.5,0-22.8,0-32.2C77.1,40.1,50.5,38.2,22.9,38.1z"/>
		
			<linearGradient id="SVGID_8_" gradientUnits="userSpaceOnUse" x1="20.95" y1="22.7015" x2="76.73" y2="22.7015" gradientTransform="matrix(1 0 0 -1 0 80)">
			<stop  offset="0.375" style="stop-color:#000000;stop-opacity:0.4375"/>
			<stop  offset="1" style="stop-color:#000000;stop-opacity:0"/>
		</linearGradient>
		<path class="st13" d="M22.9,38.1c-1.1,0-2,0.7-2,1.7c0,9.4,0,21.4,0,30.9c0,1.2,0.9,2.2,2,2.3c27.3,0.1,53.8,5.8,53.8,2.5
			c0-9.3,0-22.5,0-31.8C76.7,40.4,50.2,38.2,22.9,38.1z"/>
		
			<linearGradient id="SVGID_9_" gradientUnits="userSpaceOnUse" x1="20.95" y1="22.836" x2="76.33" y2="22.836" gradientTransform="matrix(1 0 0 -1 0 80)">
			<stop  offset="0.375" style="stop-color:#000000;stop-opacity:0.5"/>
			<stop  offset="1" style="stop-color:#000000;stop-opacity:0"/>
		</linearGradient>
		<path class="st14" d="M22.9,38.1c-1.1,0-2,0.7-2,1.7c0,9.4,0,21.4,0,30.9c0,1.2,0.9,2.2,2,2.3c27.1,0.1,53.4,5.4,53.4,2.3
			c0-9.2,0-22.2,0-31.4C76.3,40.7,50,38.2,22.9,38.1z"/>
		
			<linearGradient id="SVGID_10_" gradientUnits="userSpaceOnUse" x1="20.95" y1="22.98" x2="75.94" y2="22.98" gradientTransform="matrix(1 0 0 -1 0 80)">
			<stop  offset="0.375" style="stop-color:#000000;stop-opacity:0.5625"/>
			<stop  offset="1" style="stop-color:#000000;stop-opacity:0"/>
		</linearGradient>
		<path class="st15" d="M22.9,38.1c-1.1,0-2,0.7-2,1.7c0,9.4,0,21.4,0,30.9c0,1.2,0.9,2.2,2,2.3c26.9,0.1,53,5,53,2
			c0-9,0-21.9,0-30.9C75.9,41,49.8,38.2,22.9,38.1z"/>
		
			<linearGradient id="SVGID_11_" gradientUnits="userSpaceOnUse" x1="20.95" y1="23.1234" x2="75.54" y2="23.1234" gradientTransform="matrix(1 0 0 -1 0 80)">
			<stop  offset="0.375" style="stop-color:#000000;stop-opacity:0.625"/>
			<stop  offset="1" style="stop-color:#000000;stop-opacity:0"/>
		</linearGradient>
		<path class="st16" d="M22.9,38.1c-1.1,0-2,0.7-2,1.7c0,9.4,0,21.4,0,30.9c0,1.2,0.9,2.2,2,2.3c26.7,0.1,52.7,4.6,52.6,1.7
			c0-8.9,0-21.6,0-30.5C75.6,41.2,49.7,38.2,22.9,38.1z"/>
		
			<linearGradient id="SVGID_12_" gradientUnits="userSpaceOnUse" x1="20.95" y1="23.264" x2="75.14" y2="23.264" gradientTransform="matrix(1 0 0 -1 0 80)">
			<stop  offset="0.375" style="stop-color:#000000;stop-opacity:0.6875"/>
			<stop  offset="1" style="stop-color:#000000;stop-opacity:0"/>
		</linearGradient>
		<path class="st17" d="M22.9,38.1c-1.1,0-2,0.7-2,1.7c0,9.4,0,21.4,0,30.9c0,1.2,0.9,2.2,2,2.3c26.5,0.1,52.3,4.2,52.2,1.5
			c0-8.8,0-21.3,0-30.1C75.2,41.5,49.5,38.2,22.9,38.1z"/>
		
			<linearGradient id="SVGID_13_" gradientUnits="userSpaceOnUse" x1="20.95" y1="23.4086" x2="74.75" y2="23.4086" gradientTransform="matrix(1 0 0 -1 0 80)">
			<stop  offset="0.375" style="stop-color:#000000;stop-opacity:0.75"/>
			<stop  offset="1" style="stop-color:#000000;stop-opacity:0"/>
		</linearGradient>
		<path class="st18" d="M22.9,38.1c-1.1,0-2,0.7-2,1.7c0,9.4,0,21.4,0,30.9c0,1.2,0.9,2.2,2,2.2c26.3,0.1,51.9,3.8,51.8,1.2
			c0-8.6,0-21,0-29.7C74.8,41.8,49.2,38.2,22.9,38.1z"/>
		
			<linearGradient id="SVGID_14_" gradientUnits="userSpaceOnUse" x1="20.95" y1="23.5532" x2="74.35" y2="23.5532" gradientTransform="matrix(1 0 0 -1 0 80)">
			<stop  offset="0.375" style="stop-color:#000000;stop-opacity:0.8125"/>
			<stop  offset="1" style="stop-color:#000000;stop-opacity:0"/>
		</linearGradient>
		<path class="st19" d="M22.9,38.1c-1.1,0-2,0.7-2,1.7c0,9.4,0,21.4,0,30.9c0,1.2,0.9,2.2,2,2.2C49,73,74.4,76.3,74.3,73.9
			c0-8.5,0-20.8,0-29.2C74.4,42.1,49.1,38.2,22.9,38.1z"/>
		
			<linearGradient id="SVGID_15_" gradientUnits="userSpaceOnUse" x1="20.95" y1="23.692" x2="73.96" y2="23.692" gradientTransform="matrix(1 0 0 -1 0 80)">
			<stop  offset="0.375" style="stop-color:#000000;stop-opacity:0.875"/>
			<stop  offset="1" style="stop-color:#000000;stop-opacity:0"/>
		</linearGradient>
		<path class="st20" d="M22.9,38.1c-1.1,0-2,0.7-2,1.7c0,9.4,0,21.4,0,30.9c0,1.2,0.9,2.2,2,2.2C48.8,73,74,75.9,74,73.6
			c0-8.3,0-20.5,0-28.8C74,42.4,48.9,38.2,22.9,38.1z"/>
		
			<linearGradient id="SVGID_16_" gradientUnits="userSpaceOnUse" x1="20.95" y1="23.8285" x2="73.56" y2="23.8285" gradientTransform="matrix(1 0 0 -1 0 80)">
			<stop  offset="0.375" style="stop-color:#000000;stop-opacity:0.9375"/>
			<stop  offset="1" style="stop-color:#000000;stop-opacity:0"/>
		</linearGradient>
		<path class="st21" d="M22.9,38.1c-1.1,0-2,0.7-2,1.7c0,9.4,0,21.4,0,30.9c0,1.2,0.9,2.2,2,2.2c25.7,0.1,50.7,2.6,50.7,0.4
			c0-8.2,0-20.2,0-28.4C73.6,42.7,48.7,38.2,22.9,38.1z"/>
		
			<linearGradient id="SVGID_17_" gradientUnits="userSpaceOnUse" x1="20.95" y1="23.9551" x2="73.17" y2="23.9551" gradientTransform="matrix(1 0 0 -1 0 80)">
			<stop  offset="0.375" style="stop-color:#000000"/>
			<stop  offset="1" style="stop-color:#000000;stop-opacity:0"/>
		</linearGradient>
		<path class="st22" d="M22.9,38.1c-1.1,0-2,0.7-2,1.7c0,9.4,0,21.4,0,30.9c0,1.2,0.9,2.2,2,2.2c25.5,0.1,50.3,2.2,50.3,0.1
			c0-8,0-19.9,0-27.9C73.2,43,48.5,38.4,22.9,38.1z"/>
	</g>
	<g>
		<g>
			
				<linearGradient id="SVGID_18_" gradientUnits="userSpaceOnUse" x1="20.95" y1="11.7406" x2="73.17" y2="11.7406" gradientTransform="matrix(1 0 0 -1 0 80)">
				<stop  offset="0" style="stop-color:#700000"/>
				<stop  offset="0.3275" style="stop-color:#730000"/>
				<stop  offset="0.5905" style="stop-color:#7D0000"/>
				<stop  offset="0.8302" style="stop-color:#8E0000"/>
				<stop  offset="1" style="stop-color:#9F0000"/>
			</linearGradient>
			<path class="st23" d="M21,70.7c0,1.2,0.9,2.2,1.9,2.3c25.6,0.2,50.3-1,50.3-4.8C73.2,56.5,21,70.7,21,70.7z"/>
			<g>
				<path class="st24" d="M21.2,71.6c0-0.1-0.1-0.2-0.1-0.3C21.1,71.4,21.1,71.5,21.2,71.6z"/>
				
					<linearGradient id="SVGID_19_" gradientUnits="userSpaceOnUse" x1="21.16" y1="17.0339" x2="21.16" y2="6.9242" gradientTransform="matrix(1 0 0 -1 0 80)">
					<stop  offset="0.35" style="stop-color:#DFDFDF"/>
					<stop  offset="0.6454" style="stop-color:#DDDDDD"/>
					<stop  offset="0.7517" style="stop-color:#D6D6D6"/>
					<stop  offset="0.8276" style="stop-color:#CBCBCB"/>
					<stop  offset="0.8889" style="stop-color:#BABABA"/>
					<stop  offset="0.9414" style="stop-color:#A4A4A4"/>
					<stop  offset="0.987" style="stop-color:#898989"/>
					<stop  offset="1" style="stop-color:#808080"/>
				</linearGradient>
				<path class="st25" d="M21.2,71.6C21.2,71.6,21.2,71.6,21.2,71.6C21.2,71.6,21.2,71.6,21.2,71.6z"/>
				
					<linearGradient id="SVGID_20_" gradientUnits="userSpaceOnUse" x1="45.2" y1="16.4472" x2="45.2" y2="7.022" gradientTransform="matrix(1 0 0 -1 0 80)">
					<stop  offset="0.35" style="stop-color:#0050CF"/>
					<stop  offset="0.6454" style="stop-color:#004ECD"/>
					<stop  offset="0.7517" style="stop-color:#0049C6"/>
					<stop  offset="0.8276" style="stop-color:#003FBB"/>
					<stop  offset="0.8889" style="stop-color:#0031AA"/>
					<stop  offset="0.9414" style="stop-color:#001E94"/>
					<stop  offset="0.987" style="stop-color:#000879"/>
					<stop  offset="1" style="stop-color:#000070"/>
				</linearGradient>
				<path class="st26" d="M56.1,69.4l-4.9-4.9c-5.8,0.8-11.8,1.9-16.9,3.1l4.3,4.3C45,71.2,51,70.2,56.1,69.4z"/>
				
					<linearGradient id="SVGID_21_" gradientUnits="userSpaceOnUse" x1="47.06" y1="16.4461" x2="47.06" y2="7.0245" gradientTransform="matrix(1 0 0 -1 0 80)">
					<stop  offset="0.35" style="stop-color:#CF2000"/>
					<stop  offset="0.6454" style="stop-color:#CD1F00"/>
					<stop  offset="0.7517" style="stop-color:#C61D00"/>
					<stop  offset="0.8276" style="stop-color:#BB1900"/>
					<stop  offset="0.8889" style="stop-color:#AA1300"/>
					<stop  offset="0.9414" style="stop-color:#940C00"/>
					<stop  offset="0.987" style="stop-color:#790300"/>
					<stop  offset="1" style="stop-color:#700000"/>
				</linearGradient>
				<path class="st27" d="M51.2,64.4l4.9,4.9c10-1.7,16.6-2.9,16.6-1.1c0,3.5-24.3,4.8-49.9,4.6c-0.1,0-0.1,0-0.2,0
					c-0.7-0.1-1.2-0.5-1.5-1.2c0,0,0,0,0,0c0-0.1-0.1-0.2-0.1-0.3c0,0.1,0.1,0.2,0.1,0.3l0,0c0.3,0.7,1,1.2,1.7,1.2
					c5.4,0,10.7-0.4,15.7-0.9l-4.3-4.3c-7.6,1.7-13.3,3.2-13.3,3.2c0,1.2,0.9,2.3,2,2.3c25.6,0.2,50.2-0.6,50.3-4.8
					C73.2,62.9,62.7,62.9,51.2,64.4z"/>
			</g>
		</g>
		
			<linearGradient id="SVGID_22_" gradientUnits="userSpaceOnUse" x1="20.96" y1="27.5942" x2="73.18" y2="27.5942" gradientTransform="matrix(1 0 0 -1 0 80)">
			<stop  offset="0" style="stop-color:#CF2000"/>
			<stop  offset="2.100000e-02" style="stop-color:#D12201"/>
			<stop  offset="0.2435" style="stop-color:#E23309"/>
			<stop  offset="0.4872" style="stop-color:#EC3D0E"/>
			<stop  offset="0.7911" style="stop-color:#EF4010"/>
			<stop  offset="0.8415" style="stop-color:#EC3D0F"/>
			<stop  offset="0.8819" style="stop-color:#E2330D"/>
			<stop  offset="0.919" style="stop-color:#D12208"/>
			<stop  offset="0.9537" style="stop-color:#B90A03"/>
			<stop  offset="0.966" style="stop-color:#AF0000"/>
			<stop  offset="1" style="stop-color:#EF4010"/>
		</linearGradient>
		<path class="st28" d="M22.9,37.8L22.9,37.8c-1.1,0-2,0.9-2,2c0,10.3,0,20.6,0,30.9c0,1.1,0.9,1.9,1.9,1.9
			c25.6-0.2,50.3-8.7,50.3-4.5c0-11.6,0-23.2,0-34.8C73.2,29.2,48.5,37.6,22.9,37.8z"/>
		<g>
			
				<linearGradient id="SVGID_23_" gradientUnits="userSpaceOnUse" x1="20.9528" y1="27.045" x2="73.172" y2="27.045" gradientTransform="matrix(1 0 0 -1 0 80)">
				<stop  offset="0" style="stop-color:#0050CF"/>
				<stop  offset="2.100000e-02" style="stop-color:#0252D1"/>
				<stop  offset="0.2435" style="stop-color:#1363E2"/>
				<stop  offset="0.4872" style="stop-color:#1D6DEC"/>
				<stop  offset="0.7911" style="stop-color:#2070EF"/>
				<stop  offset="0.8415" style="stop-color:#1E6DEC"/>
				<stop  offset="0.8819" style="stop-color:#1963E2"/>
				<stop  offset="0.919" style="stop-color:#1152D1"/>
				<stop  offset="0.9537" style="stop-color:#053AB9"/>
				<stop  offset="0.966" style="stop-color:#0030AF"/>
				<stop  offset="1" style="stop-color:#2070EF"/>
			</linearGradient>
			<path class="st29" d="M38.4,36.8c0,10.2,0,27,0,34.8c6.3-0.7,12.3-1.7,17.4-2.6c0-9.4,0-26,0-34.8C50.7,35.1,44.8,36.1,38.4,36.8
				z"/>
		</g>
		<g>
			
				<linearGradient id="SVGID_24_" gradientUnits="userSpaceOnUse" x1="20.9531" y1="25.975" x2="73.1707" y2="25.975" gradientTransform="matrix(1 0 0 -1 0 80)">
				<stop  offset="0" style="stop-color:#FBBF00"/>
				<stop  offset="2.100000e-02" style="stop-color:#FBC102"/>
				<stop  offset="0.2435" style="stop-color:#FDD213"/>
				<stop  offset="0.4872" style="stop-color:#FFDC1D"/>
				<stop  offset="0.7911" style="stop-color:#FFDF20"/>
				<stop  offset="0.8415" style="stop-color:#FDDC1E"/>
				<stop  offset="0.8819" style="stop-color:#F8D219"/>
				<stop  offset="0.919" style="stop-color:#EEC111"/>
				<stop  offset="0.9537" style="stop-color:#E1A905"/>
				<stop  offset="0.966" style="stop-color:#DB9F00"/>
				<stop  offset="1" style="stop-color:#FFDF20"/>
			</linearGradient>
			<path class="st30" d="M31.1,54c0.5-0.4,0.8-0.5,1.4-0.9c-1.1,0.1-1.6,0.1-2.7,0.2c-1.1,0.1-1.6,0.1-2.7,0.1
				c0.5,0.3,0.8,0.5,1.4,0.8c0.5,0.3,0.8,0.5,1.4,0.8C30.2,54.6,30.5,54.4,31.1,54z"/>
			
				<linearGradient id="SVGID_25_" gradientUnits="userSpaceOnUse" x1="20.9524" y1="28.8573" x2="73.1722" y2="28.8573" gradientTransform="matrix(1 0 0 -1 0 80)">
				<stop  offset="0" style="stop-color:#FBBF00"/>
				<stop  offset="2.100000e-02" style="stop-color:#FBC102"/>
				<stop  offset="0.2435" style="stop-color:#FDD213"/>
				<stop  offset="0.4872" style="stop-color:#FFDC1D"/>
				<stop  offset="0.7911" style="stop-color:#FFDF20"/>
				<stop  offset="0.8415" style="stop-color:#FDDC1E"/>
				<stop  offset="0.8819" style="stop-color:#F8D219"/>
				<stop  offset="0.919" style="stop-color:#EEC111"/>
				<stop  offset="0.9537" style="stop-color:#E1A905"/>
				<stop  offset="0.966" style="stop-color:#DB9F00"/>
				<stop  offset="1" style="stop-color:#FFDF20"/>
			</linearGradient>
			<path class="st31" d="M31.5,51c-0.5,0.4-1.1,0.6-1.8,0.7s-1.3-0.1-1.8-0.4c-0.5-0.3-0.9-0.8-1.2-1.3c0,0,0,0,0,0
				c0,0.8,0.3,1.5,0.9,2c0.5,0.5,1.3,0.8,2.1,0.8c0.8,0,1.6-0.4,2.1-1c0.5-0.6,0.9-1.3,0.9-2.2c0,0,0,0,0,0
				C32.5,50.1,32,50.6,31.5,51z"/>
			
				<linearGradient id="SVGID_26_" gradientUnits="userSpaceOnUse" x1="20.9524" y1="35.999" x2="73.174" y2="35.999" gradientTransform="matrix(1 0 0 -1 0 80)">
				<stop  offset="0" style="stop-color:#FBBF00"/>
				<stop  offset="2.100000e-02" style="stop-color:#FBC102"/>
				<stop  offset="0.2435" style="stop-color:#FDD213"/>
				<stop  offset="0.4872" style="stop-color:#FFDC1D"/>
				<stop  offset="0.7911" style="stop-color:#FFDF20"/>
				<stop  offset="0.8415" style="stop-color:#FDDC1E"/>
				<stop  offset="0.8819" style="stop-color:#F8D219"/>
				<stop  offset="0.919" style="stop-color:#EEC111"/>
				<stop  offset="0.9537" style="stop-color:#E1A905"/>
				<stop  offset="0.966" style="stop-color:#DB9F00"/>
				<stop  offset="1" style="stop-color:#FFDF20"/>
			</linearGradient>
			<path class="st32" d="M29.7,46.2c0.8,0,1.4-0.7,1.4-1.5c0-0.5-0.3-0.6-0.3-0.8c0-0.2,0.2-0.5-0.2-0.8c0.2,0.3-0.1,0.4-0.1,0.8
				s0.1,0.3,0.1,0.6c0,0.2-0.1,0.3-0.3,0.3c-0.1,0-0.3-0.1-0.3-0.3c0-0.3,0.3-0.6,0.3-1S30.2,43,30,42.7c-0.2-0.3-0.5-0.6-0.3-0.9
				c-0.4,0.2-0.2,0.7-0.2,1s-0.3,0.6-0.3,1s0.2,0.5,0.2,0.7c0,0.2-0.1,0.3-0.3,0.3c-0.1,0-0.3-0.1-0.3-0.3c0-0.3,0.1-0.3,0.1-0.6
				s-0.3-0.4-0.1-0.7c-0.4,0.4-0.2,0.6-0.2,0.8c0,0.2-0.3,0.3-0.3,0.8C28.3,45.7,28.9,46.2,29.7,46.2z"/>
			
				<linearGradient id="SVGID_27_" gradientUnits="userSpaceOnUse" x1="20.9529" y1="31.076" x2="73.1697" y2="31.076" gradientTransform="matrix(1 0 0 -1 0 80)">
				<stop  offset="0" style="stop-color:#FBBF00"/>
				<stop  offset="2.100000e-02" style="stop-color:#FBC102"/>
				<stop  offset="0.2435" style="stop-color:#FDD213"/>
				<stop  offset="0.4872" style="stop-color:#FFDC1D"/>
				<stop  offset="0.7911" style="stop-color:#FFDF20"/>
				<stop  offset="0.8415" style="stop-color:#FDDC1E"/>
				<stop  offset="0.8819" style="stop-color:#F8D219"/>
				<stop  offset="0.919" style="stop-color:#EEC111"/>
				<stop  offset="0.9537" style="stop-color:#E1A905"/>
				<stop  offset="0.966" style="stop-color:#DB9F00"/>
				<stop  offset="1" style="stop-color:#FFDF20"/>
			</linearGradient>
			<path class="st33" d="M29.7,51.1c0.6,0,1.2-0.3,1.5-0.7c0.4-0.4,0.6-1,0.6-1.6s-0.2-1.1-0.6-1.5c-0.4-0.4-1-0.6-1.5-0.5
				c-0.6,0-1.1,0.3-1.5,0.7s-0.6,1-0.6,1.6s0.2,1.1,0.6,1.5S29.1,51.1,29.7,51.1z"/>
			
				<linearGradient id="SVGID_28_" gradientUnits="userSpaceOnUse" x1="20.9532" y1="20.2753" x2="73.1694" y2="20.2753" gradientTransform="matrix(1 0 0 -1 0 80)">
				<stop  offset="0" style="stop-color:#FBBF00"/>
				<stop  offset="2.100000e-02" style="stop-color:#FBC102"/>
				<stop  offset="0.2435" style="stop-color:#FDD213"/>
				<stop  offset="0.4872" style="stop-color:#FFDC1D"/>
				<stop  offset="0.7911" style="stop-color:#FFDF20"/>
				<stop  offset="0.8415" style="stop-color:#FDDC1E"/>
				<stop  offset="0.8819" style="stop-color:#F8D219"/>
				<stop  offset="0.919" style="stop-color:#EEC111"/>
				<stop  offset="0.9537" style="stop-color:#E1A905"/>
				<stop  offset="0.966" style="stop-color:#DB9F00"/>
				<stop  offset="1" style="stop-color:#FFDF20"/>
			</linearGradient>
			<path class="st34" d="M29.7,59.7c0.4,0,0.7-0.2,0.9-0.4s0.4-0.6,0.4-0.9s-0.1-0.7-0.4-0.9c-0.2-0.2-0.5-0.3-0.9-0.3c0,0,0,0,0,0
				c-0.8,0-1.4,0.4-1.9,0.9s-0.8,1.2-0.8,2c0,0.5,0.1,1,0.4,1.4c0.2,0.4,0.6,0.7,1,0.9c-0.2-0.3-0.3-0.6-0.3-0.9
				c0-0.5,0.2-0.9,0.5-1.2C28.8,59.9,29.2,59.7,29.7,59.7z M29.7,57.9c0.3,0,0.5,0.2,0.5,0.5S30,58.9,29.7,59s-0.5-0.2-0.5-0.5
				C29.1,58.1,29.4,57.9,29.7,57.9z"/>
			
				<linearGradient id="SVGID_29_" gradientUnits="userSpaceOnUse" x1="20.9518" y1="20.0147" x2="73.175" y2="20.0147" gradientTransform="matrix(1 0 0 -1 0 80)">
				<stop  offset="0" style="stop-color:#FBBF00"/>
				<stop  offset="2.100000e-02" style="stop-color:#FBC102"/>
				<stop  offset="0.2435" style="stop-color:#FDD213"/>
				<stop  offset="0.4872" style="stop-color:#FFDC1D"/>
				<stop  offset="0.7911" style="stop-color:#FFDF20"/>
				<stop  offset="0.8415" style="stop-color:#FDDC1E"/>
				<stop  offset="0.8819" style="stop-color:#F8D219"/>
				<stop  offset="0.919" style="stop-color:#EEC111"/>
				<stop  offset="0.9537" style="stop-color:#E1A905"/>
				<stop  offset="0.966" style="stop-color:#DB9F00"/>
				<stop  offset="1" style="stop-color:#FFDF20"/>
			</linearGradient>
			<path class="st35" d="M31,57.4c0.2,0.2,0.3,0.6,0.3,0.9c0,0.5-0.2,0.9-0.5,1.2c-0.3,0.3-0.7,0.5-1.1,0.5c-0.4,0-0.7,0.2-0.9,0.4
				c-0.2,0.2-0.4,0.6-0.4,0.9c0,0.3,0.1,0.7,0.4,0.9c0.2,0.2,0.5,0.3,0.9,0.3c0,0,0,0,0,0c0.8,0,1.4-0.4,1.9-0.9
				c0.5-0.5,0.8-1.2,0.8-2c0-0.5-0.2-1-0.4-1.4C31.8,57.9,31.4,57.6,31,57.4z M29.7,61.8c-0.3,0-0.5-0.2-0.5-0.5s0.2-0.6,0.5-0.6
				c0.3,0,0.5,0.2,0.5,0.5C30.2,61.6,30,61.8,29.7,61.8z"/>
			
				<linearGradient id="SVGID_30_" gradientUnits="userSpaceOnUse" x1="20.9531" y1="16.345" x2="73.1707" y2="16.345" gradientTransform="matrix(1 0 0 -1 0 80)">
				<stop  offset="0" style="stop-color:#FBBF00"/>
				<stop  offset="2.100000e-02" style="stop-color:#FBC102"/>
				<stop  offset="0.2435" style="stop-color:#FDD213"/>
				<stop  offset="0.4872" style="stop-color:#FFDC1D"/>
				<stop  offset="0.7911" style="stop-color:#FFDF20"/>
				<stop  offset="0.8415" style="stop-color:#FDDC1E"/>
				<stop  offset="0.8819" style="stop-color:#F8D219"/>
				<stop  offset="0.919" style="stop-color:#EEC111"/>
				<stop  offset="0.9537" style="stop-color:#E1A905"/>
				<stop  offset="0.966" style="stop-color:#DB9F00"/>
				<stop  offset="1" style="stop-color:#FFDF20"/>
			</linearGradient>
			<path class="st36" d="M26.9,63.3c0,0.4,0,0.7,0,1.1c1.1,0,1.9-0.1,2.7-0.1c0.8-0.1,1.6-0.1,2.7-0.2c0-0.4,0-0.7,0-1.1
				c-1.1,0.1-1.9,0.1-2.7,0.2C28.9,63.2,28,63.2,26.9,63.3z"/>
			
				<linearGradient id="SVGID_31_" gradientUnits="userSpaceOnUse" x1="20.9545" y1="20.495" x2="73.1671" y2="20.495" gradientTransform="matrix(1 0 0 -1 0 80)">
				<stop  offset="0" style="stop-color:#FBBF00"/>
				<stop  offset="2.100000e-02" style="stop-color:#FBC102"/>
				<stop  offset="0.2435" style="stop-color:#FDD213"/>
				<stop  offset="0.4872" style="stop-color:#FFDC1D"/>
				<stop  offset="0.7911" style="stop-color:#FFDF20"/>
				<stop  offset="0.8415" style="stop-color:#FDDC1E"/>
				<stop  offset="0.8819" style="stop-color:#F8D219"/>
				<stop  offset="0.919" style="stop-color:#EEC111"/>
				<stop  offset="0.9537" style="stop-color:#E1A905"/>
				<stop  offset="0.966" style="stop-color:#DB9F00"/>
				<stop  offset="1" style="stop-color:#FFDF20"/>
			</linearGradient>
			<path class="st37" d="M33,66.2c1.1-0.1,1.6-0.1,2.7-0.2c0-1.1,0-12.1,0-13.1c-1.1,0.1-1.7,0.2-2.7,0.2C33,54.1,33,65.1,33,66.2z"
				/>
			
				<linearGradient id="SVGID_32_" gradientUnits="userSpaceOnUse" x1="20.9525" y1="19.95" x2="73.173" y2="19.95" gradientTransform="matrix(1 0 0 -1 0 80)">
				<stop  offset="0" style="stop-color:#FBBF00"/>
				<stop  offset="2.100000e-02" style="stop-color:#FBC102"/>
				<stop  offset="0.2435" style="stop-color:#FDD213"/>
				<stop  offset="0.4872" style="stop-color:#FFDC1D"/>
				<stop  offset="0.7911" style="stop-color:#FFDF20"/>
				<stop  offset="0.8415" style="stop-color:#FDDC1E"/>
				<stop  offset="0.8819" style="stop-color:#F8D219"/>
				<stop  offset="0.919" style="stop-color:#EEC111"/>
				<stop  offset="0.9537" style="stop-color:#E1A905"/>
				<stop  offset="0.966" style="stop-color:#DB9F00"/>
				<stop  offset="1" style="stop-color:#FFDF20"/>
			</linearGradient>
			<path class="st38" d="M23.6,66.7c1.1,0,1.6,0,2.7-0.1c0-1.1,0-12.1,0-13.1c-1.1,0-1.6,0.1-2.7,0.1C23.6,54.6,23.6,65.6,23.6,66.7
				z"/>
			
				<linearGradient id="SVGID_33_" gradientUnits="userSpaceOnUse" x1="20.9531" y1="14.495" x2="73.1707" y2="14.495" gradientTransform="matrix(1 0 0 -1 0 80)">
				<stop  offset="0" style="stop-color:#FBBF00"/>
				<stop  offset="2.100000e-02" style="stop-color:#FBC102"/>
				<stop  offset="0.2435" style="stop-color:#FDD213"/>
				<stop  offset="0.4872" style="stop-color:#FFDC1D"/>
				<stop  offset="0.7911" style="stop-color:#FFDF20"/>
				<stop  offset="0.8415" style="stop-color:#FDDC1E"/>
				<stop  offset="0.8819" style="stop-color:#F8D219"/>
				<stop  offset="0.919" style="stop-color:#EEC111"/>
				<stop  offset="0.9537" style="stop-color:#E1A905"/>
				<stop  offset="0.966" style="stop-color:#DB9F00"/>
				<stop  offset="1" style="stop-color:#FFDF20"/>
			</linearGradient>
			<path class="st39" d="M26.9,64.9c0.5,0.3,0.8,0.5,1.4,0.8c0.5,0.3,0.8,0.4,1.4,0.8c0.5-0.4,0.8-0.5,1.4-0.9
				c0.5-0.4,0.8-0.6,1.4-0.9c-1.1,0.1-1.6,0.1-2.7,0.2C28.6,64.8,28,64.9,26.9,64.9z"/>
			
				<linearGradient id="SVGID_34_" gradientUnits="userSpaceOnUse" x1="20.9531" y1="23.995" x2="73.1703" y2="23.995" gradientTransform="matrix(1 0 0 -1 0 80)">
				<stop  offset="0" style="stop-color:#FBBF00"/>
				<stop  offset="2.100000e-02" style="stop-color:#FBC102"/>
				<stop  offset="0.2435" style="stop-color:#FDD213"/>
				<stop  offset="0.4872" style="stop-color:#FFDC1D"/>
				<stop  offset="0.7911" style="stop-color:#FFDF20"/>
				<stop  offset="0.8415" style="stop-color:#FDDC1E"/>
				<stop  offset="0.8819" style="stop-color:#F8D219"/>
				<stop  offset="0.919" style="stop-color:#EEC111"/>
				<stop  offset="0.9537" style="stop-color:#E1A905"/>
				<stop  offset="0.966" style="stop-color:#DB9F00"/>
				<stop  offset="1" style="stop-color:#FFDF20"/>
			</linearGradient>
			<path class="st40" d="M26.9,55.6c0,0.4,0,0.7,0,1.1c1.1,0,1.9-0.1,2.7-0.1c0.8,0,1.6-0.1,2.8-0.2c0-0.4,0-0.7,0-1.1
				c-1.1,0.1-1.9,0.1-2.7,0.2C28.9,55.5,28,55.6,26.9,55.6z"/>
		</g>
		<g class="st41">
			
				<linearGradient id="SVGID_35_" gradientUnits="userSpaceOnUse" x1="20.96" y1="27.5942" x2="73.18" y2="27.5942" gradientTransform="matrix(1 0 0 -1 0 80)">
				<stop  offset="0" style="stop-color:#404040"/>
				<stop  offset="0.7911" style="stop-color:#FFFFFF"/>
				<stop  offset="0.966" style="stop-color:#FFFFFF"/>
				<stop  offset="1" style="stop-color:#FFFFFF"/>
			</linearGradient>
			<path class="st42" d="M22.9,37.8L22.9,37.8c-1.1,0-2,0.9-2,2l0,0c0,10.3,0,20.6,0,30.9l0,0c0,1.1,0.9,1.9,1.9,1.9l0,0
				c25.6-0.2,50.3-8.7,50.3-4.5c0-11.6,0-23.2,0-34.8C73.2,29.2,48.5,37.6,22.9,37.8z"/>
		</g>
	</g>
</g>
</svg>
