<?xml version="1.0" encoding="utf-8"?>
<!-- Generator: Adobe Illustrator 24.2.3, SVG Export Plug-In . SVG Version: 6.00 Build 0)  -->
<svg version="1.1" id="Layer_1" xmlns="http://www.w3.org/2000/svg" xmlns:xlink="http://www.w3.org/1999/xlink" x="0px" y="0px"
	 viewBox="0 0 80 80" style="enable-background:new 0 0 80 80;" xml:space="preserve">
<style type="text/css">
	.st0{display:none;opacity:0.2;fill:#FF1749;enable-background:new    ;}
	.st1{display:none;fill:#0E3CA5;}
	.st2{fill:#0E3CA5;}
	.st3{fill:#5493F7;}
	.st4{display:none;opacity:0.3;fill:#FF1A82;enable-background:new    ;}
	.st5{opacity:0.3;}
	.st6{fill:url(#SVGID_1_);fill-opacity:0;}
	.st7{opacity:6.250000e-02;fill:url(#SVGID_2_);enable-background:new    ;}
	.st8{opacity:0.125;fill:url(#SVGID_3_);enable-background:new    ;}
	.st9{opacity:0.1875;fill:url(#SVGID_4_);enable-background:new    ;}
	.st10{opacity:0.25;fill:url(#SVGID_5_);enable-background:new    ;}
	.st11{opacity:0.3125;fill:url(#SVGID_6_);enable-background:new    ;}
	.st12{opacity:0.375;fill:url(#SVGID_7_);enable-background:new    ;}
	.st13{opacity:0.4375;fill:url(#SVGID_8_);enable-background:new    ;}
	.st14{opacity:0.5;fill:url(#SVGID_9_);enable-background:new    ;}
	.st15{opacity:0.5625;fill:url(#SVGID_10_);enable-background:new    ;}
	.st16{opacity:0.625;fill:url(#SVGID_11_);enable-background:new    ;}
	.st17{opacity:0.6875;fill:url(#SVGID_12_);enable-background:new    ;}
	.st18{opacity:0.75;fill:url(#SVGID_13_);enable-background:new    ;}
	.st19{opacity:0.8125;fill:url(#SVGID_14_);enable-background:new    ;}
	.st20{opacity:0.875;fill:url(#SVGID_15_);enable-background:new    ;}
	.st21{opacity:0.9375;fill:url(#SVGID_16_);enable-background:new    ;}
	.st22{fill:url(#SVGID_17_);}
	.st23{fill:url(#SVGID_18_);}
	.st24{fill:url(#SVGID_19_);}
	.st25{fill:url(#SVGID_20_);}
	.st26{fill:#FFFFFF;}
</style>
<rect class="st0" width="80" height="80"/>
<g>
	<g>
		<g id="Symbol_4_">
			<g>
				<g>
					<path class="st1" d="M21.6,16.1c-9.2,12.2,26.2,20.7,38.8,18.6c2.2-0.4,8.9-1.5,4.3-10.2c-0.7-1.1-1.5-2.5-2.3-3.6
						c-0.9-1.1-2.1-2.5-3-3.5c-0.3-0.3-0.6-0.6-0.9-0.9c-2.5-2.1-7.5-6.6-20.6-6.7C30.2,9.9,24.7,12.1,21.6,16.1"/>
					<g>
						<path class="st2" d="M33.7,55.7c1.7,6.2,7.7,10.9,10.7,10.7c0.1,0,11.5-2.1,17.7-12.5c4.8-8.1,3.2-15.9-3.4-16
							C56.2,38,30.5,44,33.7,55.7"/>
					</g>
					<g>
						<path class="st2" d="M58,16.1L58,16.1L58,16.1c-5-4.3-11.6-6.9-18.7-6.9c-4.2,0-8.1,0.9-11.7,2.5c-0.6,0.3-1.2,0.6-1.8,0.9
							c-0.4,0.2-0.8,0.4-1.2,0.7l0.1,0c-1.2,0.8-2.2,1.8-3,2.9c-8.3,10.9,19.5,18.9,34.3,18.9C62.8,40,64.7,21.3,58,16.1z"/>
					</g>
					<path class="st1" d="M64.1,48.9c1.9-6.2-0.2-11.2-5.5-11.4c-2.4,0.2-28.1,6.1-24.9,17.9c1.7,6.2,7.7,10.9,10.7,10.7
						c0.1,0,9-1.7,15.4-9.3c2.7-1.7,4.7-3.1,4.7-3.1c0.7-1.2,1.2-2.4,1.8-3.7l0,0C66,49.8,65.2,49.4,64.1,48.9z"/>
				</g>
			</g>
			<g>
				<path class="st3" d="M29.2,16.3c-3.8,5.7-16.5,9.8-18.6,9.1c0,0,0,0,0,0c0.1-0.2,0.2-0.3,0.3-0.5c0.7-1.4,1.6-2.7,2.5-4
					s1.9-2.4,3-3.5s2.3-2.1,3.5-3c0.8-0.6,1.6-1.1,2.4-1.6c1.8-1,3.6-1.1,4.2-1.1C32.2,11.7,29.3,16.3,29.2,16.3"/>
				<path class="st3" d="M26.1,56.8c0.3,1.8,0,8.9-0.4,9.5c-0.3,0-1,0.1-2.9-1c-1-0.6-2-1.2-2.9-1.9c-1.3-0.9-2.4-1.9-3.5-3
					c-1.1-1.1-2.1-2.3-3-3.5c-0.9-1.3-1.8-2.6-2.5-4S9.6,50,9.1,48.5c-0.5-1.5-0.9-3.1-1.2-4.7s-0.4-3.2-0.4-4.9s0.1-3.3,0.4-4.9
					c0.3-1.6,0.7-3.2,1.2-4.7c0.1-0.3,0.2-0.6,0.3-0.9l0,0c2.2,2.9,4.7,5.5,6.9,8.5c2,2.8,4.9,7.4,5.4,8.3
					C25.3,51.3,25.9,55,26.1,56.8"/>
				<path class="st3" d="M68.3,38.9c0,3.9-0.8,7.7-2.1,11.2c-3.6,3.8-27.7-5.6-28-5.7c-3.3-1.5-13.4-5.8-14.3-12.8
					c-1.3-10,18.9-16.9,27.8-17.1c1.1,0,4.3,0.1,6.2,1.6C64.3,21.6,68.3,29.8,68.3,38.9"/>
				<path class="st3" d="M52,65.9c-2.6,1.2-5.5,0.3-4.8-2.2c1.5-4.9,14.1-10,16.9-10.2c0.3,0,0.5,0.2,0.3,0.5
					C61.5,59,57.2,63.2,52,65.9"/>
			</g>
		</g>
		<circle class="st4" cx="37.9" cy="38.9" r="30.4"/>
	</g>
	<g class="st5">
		
			<linearGradient id="SVGID_1_" gradientUnits="userSpaceOnUse" x1="20.96" y1="21.6777" x2="79.5" y2="21.6777" gradientTransform="matrix(1 0 0 -1 0 80)">
			<stop  offset="0.375" style="stop-color:#000000;stop-opacity:0"/>
			<stop  offset="1" style="stop-color:#000000;stop-opacity:0"/>
		</linearGradient>
		<path class="st6" d="M22.9,38.1c-1.1,0-2,0.7-2,1.7c0,9.4,0,21.4,0,30.9c0,1.2,0.9,2.3,2,2.3c28.7,0.4,56.6,8.6,56.6,4.4
			c0-10.3,0-24.5,0-34.8C79.5,38.3,51.6,38.1,22.9,38.1z"/>
		
			<linearGradient id="SVGID_2_" gradientUnits="userSpaceOnUse" x1="20.96" y1="21.8327" x2="79.11" y2="21.8327" gradientTransform="matrix(1 0 0 -1 0 80)">
			<stop  offset="0.375" style="stop-color:#000000;stop-opacity:6.250000e-02"/>
			<stop  offset="1" style="stop-color:#000000;stop-opacity:0"/>
		</linearGradient>
		<path class="st7" d="M22.9,38.1c-1.1,0-2,0.7-2,1.7c0,9.4,0,21.4,0,30.9c0,1.2,0.9,2.2,2,2.3c28.5,0.2,56.2,8.2,56.2,4.2
			c0-10.2,0-24.2,0-34.4C79.1,38.6,51.4,38.1,22.9,38.1z"/>
		
			<linearGradient id="SVGID_3_" gradientUnits="userSpaceOnUse" x1="20.95" y1="21.9785" x2="78.7" y2="21.9785" gradientTransform="matrix(1 0 0 -1 0 80)">
			<stop  offset="0.375" style="stop-color:#000000;stop-opacity:0.125"/>
			<stop  offset="1" style="stop-color:#000000;stop-opacity:0"/>
		</linearGradient>
		<path class="st8" d="M22.9,38.1c-1.1,0-2,0.7-2,1.7c0,9.4,0,21.4,0,30.9c0,1.2,0.9,2.2,2,2.3c28.3,0.2,55.8,7.8,55.8,3.9
			c0-10,0-23.9,0-34C78.7,38.9,51.2,38.2,22.9,38.1z"/>
		
			<linearGradient id="SVGID_4_" gradientUnits="userSpaceOnUse" x1="20.95" y1="22.1246" x2="78.31" y2="22.1246" gradientTransform="matrix(1 0 0 -1 0 80)">
			<stop  offset="0.375" style="stop-color:#000000;stop-opacity:0.1875"/>
			<stop  offset="1" style="stop-color:#000000;stop-opacity:0"/>
		</linearGradient>
		<path class="st9" d="M22.9,38.1c-1.1,0-2,0.7-2,1.7c0,9.4,0,21.4,0,30.9c0,1.2,0.9,2.2,2,2.3c28.1,0.2,55.4,7.4,55.4,3.6
			c0-9.9,0-23.6,0-33.5C78.3,39.2,51,38.2,22.9,38.1z"/>
		
			<linearGradient id="SVGID_5_" gradientUnits="userSpaceOnUse" x1="20.95" y1="22.2685" x2="77.91" y2="22.2685" gradientTransform="matrix(1 0 0 -1 0 80)">
			<stop  offset="0.375" style="stop-color:#000000;stop-opacity:0.25"/>
			<stop  offset="1" style="stop-color:#000000;stop-opacity:0"/>
		</linearGradient>
		<path class="st10" d="M22.9,38.1c-1.1,0-2,0.7-2,1.7c0,9.4,0,21.4,0,30.9c0,1.2,0.9,2.2,2,2.3c27.9,0.2,55,7,55,3.3
			c0-9.8,0-23.3,0-33.1C77.9,39.5,50.8,38.2,22.9,38.1z"/>
		
			<linearGradient id="SVGID_6_" gradientUnits="userSpaceOnUse" x1="20.95" y1="22.4141" x2="77.52" y2="22.4141" gradientTransform="matrix(1 0 0 -1 0 80)">
			<stop  offset="0.375" style="stop-color:#000000;stop-opacity:0.3125"/>
			<stop  offset="1" style="stop-color:#000000;stop-opacity:0"/>
		</linearGradient>
		<path class="st11" d="M22.9,38.1c-1.1,0-2,0.7-2,1.7c0,9.4,0,21.4,0,30.9c0,1.2,0.9,2.2,2,2.3c27.7,0.1,54.6,6.6,54.6,3.1
			c0-9.6,0-23,0-32.7C77.5,39.8,50.7,38.2,22.9,38.1z"/>
		
			<linearGradient id="SVGID_7_" gradientUnits="userSpaceOnUse" x1="20.95" y1="22.5571" x2="77.12" y2="22.5571" gradientTransform="matrix(1 0 0 -1 0 80)">
			<stop  offset="0.375" style="stop-color:#000000;stop-opacity:0.375"/>
			<stop  offset="1" style="stop-color:#000000;stop-opacity:0"/>
		</linearGradient>
		<path class="st12" d="M22.9,38.1c-1.1,0-2,0.7-2,1.7c0,9.4,0,21.4,0,30.9c0,1.2,0.9,2.2,2,2.3c27.5,0.1,54.2,6.2,54.2,2.8
			c0-9.5,0-22.8,0-32.2C77.1,40.1,50.5,38.2,22.9,38.1z"/>
		
			<linearGradient id="SVGID_8_" gradientUnits="userSpaceOnUse" x1="20.95" y1="22.7015" x2="76.73" y2="22.7015" gradientTransform="matrix(1 0 0 -1 0 80)">
			<stop  offset="0.375" style="stop-color:#000000;stop-opacity:0.4375"/>
			<stop  offset="1" style="stop-color:#000000;stop-opacity:0"/>
		</linearGradient>
		<path class="st13" d="M22.9,38.1c-1.1,0-2,0.7-2,1.7c0,9.4,0,21.4,0,30.9c0,1.2,0.9,2.2,2,2.3c27.3,0.1,53.8,5.8,53.8,2.5
			c0-9.3,0-22.5,0-31.8C76.7,40.4,50.2,38.2,22.9,38.1z"/>
		
			<linearGradient id="SVGID_9_" gradientUnits="userSpaceOnUse" x1="20.95" y1="22.836" x2="76.33" y2="22.836" gradientTransform="matrix(1 0 0 -1 0 80)">
			<stop  offset="0.375" style="stop-color:#000000;stop-opacity:0.5"/>
			<stop  offset="1" style="stop-color:#000000;stop-opacity:0"/>
		</linearGradient>
		<path class="st14" d="M22.9,38.1c-1.1,0-2,0.7-2,1.7c0,9.4,0,21.4,0,30.9c0,1.2,0.9,2.2,2,2.3c27.1,0.1,53.4,5.4,53.4,2.3
			c0-9.2,0-22.2,0-31.4C76.3,40.7,50,38.2,22.9,38.1z"/>
		
			<linearGradient id="SVGID_10_" gradientUnits="userSpaceOnUse" x1="20.95" y1="22.98" x2="75.94" y2="22.98" gradientTransform="matrix(1 0 0 -1 0 80)">
			<stop  offset="0.375" style="stop-color:#000000;stop-opacity:0.5625"/>
			<stop  offset="1" style="stop-color:#000000;stop-opacity:0"/>
		</linearGradient>
		<path class="st15" d="M22.9,38.1c-1.1,0-2,0.7-2,1.7c0,9.4,0,21.4,0,30.9c0,1.2,0.9,2.2,2,2.3c26.9,0.1,53,5,53,2
			c0-9,0-21.9,0-30.9C75.9,41,49.8,38.2,22.9,38.1z"/>
		
			<linearGradient id="SVGID_11_" gradientUnits="userSpaceOnUse" x1="20.95" y1="23.1234" x2="75.54" y2="23.1234" gradientTransform="matrix(1 0 0 -1 0 80)">
			<stop  offset="0.375" style="stop-color:#000000;stop-opacity:0.625"/>
			<stop  offset="1" style="stop-color:#000000;stop-opacity:0"/>
		</linearGradient>
		<path class="st16" d="M22.9,38.1c-1.1,0-2,0.7-2,1.7c0,9.4,0,21.4,0,30.9c0,1.2,0.9,2.2,2,2.3c26.7,0.1,52.7,4.6,52.6,1.7
			c0-8.9,0-21.6,0-30.5C75.6,41.2,49.7,38.2,22.9,38.1z"/>
		
			<linearGradient id="SVGID_12_" gradientUnits="userSpaceOnUse" x1="20.95" y1="23.264" x2="75.14" y2="23.264" gradientTransform="matrix(1 0 0 -1 0 80)">
			<stop  offset="0.375" style="stop-color:#000000;stop-opacity:0.6875"/>
			<stop  offset="1" style="stop-color:#000000;stop-opacity:0"/>
		</linearGradient>
		<path class="st17" d="M22.9,38.1c-1.1,0-2,0.7-2,1.7c0,9.4,0,21.4,0,30.9c0,1.2,0.9,2.2,2,2.3c26.5,0.1,52.3,4.2,52.2,1.5
			c0-8.8,0-21.3,0-30.1C75.2,41.5,49.5,38.2,22.9,38.1z"/>
		
			<linearGradient id="SVGID_13_" gradientUnits="userSpaceOnUse" x1="20.95" y1="23.4086" x2="74.75" y2="23.4086" gradientTransform="matrix(1 0 0 -1 0 80)">
			<stop  offset="0.375" style="stop-color:#000000;stop-opacity:0.75"/>
			<stop  offset="1" style="stop-color:#000000;stop-opacity:0"/>
		</linearGradient>
		<path class="st18" d="M22.9,38.1c-1.1,0-2,0.7-2,1.7c0,9.4,0,21.4,0,30.9c0,1.2,0.9,2.2,2,2.2c26.3,0.1,51.9,3.8,51.8,1.2
			c0-8.6,0-21,0-29.7C74.8,41.8,49.2,38.2,22.9,38.1z"/>
		
			<linearGradient id="SVGID_14_" gradientUnits="userSpaceOnUse" x1="20.95" y1="23.5532" x2="74.35" y2="23.5532" gradientTransform="matrix(1 0 0 -1 0 80)">
			<stop  offset="0.375" style="stop-color:#000000;stop-opacity:0.8125"/>
			<stop  offset="1" style="stop-color:#000000;stop-opacity:0"/>
		</linearGradient>
		<path class="st19" d="M22.9,38.1c-1.1,0-2,0.7-2,1.7c0,9.4,0,21.4,0,30.9c0,1.2,0.9,2.2,2,2.2C49,73,74.4,76.3,74.3,73.9
			c0-8.5,0-20.8,0-29.2C74.4,42.1,49.1,38.2,22.9,38.1z"/>
		
			<linearGradient id="SVGID_15_" gradientUnits="userSpaceOnUse" x1="20.95" y1="23.692" x2="73.96" y2="23.692" gradientTransform="matrix(1 0 0 -1 0 80)">
			<stop  offset="0.375" style="stop-color:#000000;stop-opacity:0.875"/>
			<stop  offset="1" style="stop-color:#000000;stop-opacity:0"/>
		</linearGradient>
		<path class="st20" d="M22.9,38.1c-1.1,0-2,0.7-2,1.7c0,9.4,0,21.4,0,30.9c0,1.2,0.9,2.2,2,2.2C48.8,73,74,75.9,74,73.6
			c0-8.3,0-20.5,0-28.8C74,42.4,48.9,38.2,22.9,38.1z"/>
		
			<linearGradient id="SVGID_16_" gradientUnits="userSpaceOnUse" x1="20.95" y1="23.8285" x2="73.56" y2="23.8285" gradientTransform="matrix(1 0 0 -1 0 80)">
			<stop  offset="0.375" style="stop-color:#000000;stop-opacity:0.9375"/>
			<stop  offset="1" style="stop-color:#000000;stop-opacity:0"/>
		</linearGradient>
		<path class="st21" d="M22.9,38.1c-1.1,0-2,0.7-2,1.7c0,9.4,0,21.4,0,30.9c0,1.2,0.9,2.2,2,2.2c25.7,0.1,50.7,2.6,50.7,0.4
			c0-8.2,0-20.2,0-28.4C73.6,42.7,48.7,38.2,22.9,38.1z"/>
		
			<linearGradient id="SVGID_17_" gradientUnits="userSpaceOnUse" x1="20.95" y1="23.9551" x2="73.17" y2="23.9551" gradientTransform="matrix(1 0 0 -1 0 80)">
			<stop  offset="0.375" style="stop-color:#000000"/>
			<stop  offset="1" style="stop-color:#000000;stop-opacity:0"/>
		</linearGradient>
		<path class="st22" d="M22.9,38.1c-1.1,0-2,0.7-2,1.7c0,9.4,0,21.4,0,30.9c0,1.2,0.9,2.2,2,2.2c25.5,0.1,50.3,2.2,50.3,0.1
			c0-8,0-19.9,0-27.9C73.2,43,48.5,38.4,22.9,38.1z"/>
	</g>
	<g>
		<g>
			
				<linearGradient id="SVGID_18_" gradientUnits="userSpaceOnUse" x1="20.95" y1="11.7406" x2="73.17" y2="11.7406" gradientTransform="matrix(1 0 0 -1 0 80)">
				<stop  offset="0" style="stop-color:#004080"/>
				<stop  offset="0.3246" style="stop-color:#004383"/>
				<stop  offset="0.5853" style="stop-color:#004D8D"/>
				<stop  offset="0.823" style="stop-color:#005E9D"/>
				<stop  offset="1" style="stop-color:#0070AF"/>
			</linearGradient>
			<path class="st23" d="M21,70.7c0,1.2,0.9,2.2,1.9,2.3c25.6,0.2,50.3-1,50.3-4.8C73.2,56.5,21,70.7,21,70.7z"/>
			
				<linearGradient id="SVGID_19_" gradientUnits="userSpaceOnUse" x1="47.06" y1="16.4487" x2="47.06" y2="7.0245" gradientTransform="matrix(1 0 0 -1 0 80)">
				<stop  offset="0.35" style="stop-color:#009FDF"/>
				<stop  offset="0.6454" style="stop-color:#009DDD"/>
				<stop  offset="0.7517" style="stop-color:#0096D6"/>
				<stop  offset="0.8276" style="stop-color:#008BCB"/>
				<stop  offset="0.8889" style="stop-color:#007ABA"/>
				<stop  offset="0.9414" style="stop-color:#0064A4"/>
				<stop  offset="0.987" style="stop-color:#004989"/>
				<stop  offset="1" style="stop-color:#004080"/>
			</linearGradient>
			<path class="st24" d="M21,70.7L21,70.7c0,1.2,0.9,2.3,2,2.3c25.6,0.2,50.2-0.6,50.3-4.8C73.2,56.5,21,70.7,21,70.7z M22.9,72.8
				c-0.1,0-0.1,0-0.2,0c-0.8-0.1-1.4-0.7-1.7-1.5C21.3,72.2,22,72.8,22.9,72.8c25.6-0.2,49.9-8,49.9-4.6
				C72.8,71.8,48.5,73,22.9,72.8z"/>
		</g>
		<g>
			
				<linearGradient id="SVGID_20_" gradientUnits="userSpaceOnUse" x1="20.96" y1="27.5942" x2="73.18" y2="27.5942" gradientTransform="matrix(1 0 0 -1 0 80)">
				<stop  offset="0" style="stop-color:#009FDF"/>
				<stop  offset="2.100000e-02" style="stop-color:#02A1E1"/>
				<stop  offset="0.2435" style="stop-color:#13B2F2"/>
				<stop  offset="0.4872" style="stop-color:#1DBCFC"/>
				<stop  offset="0.7911" style="stop-color:#20BFFF"/>
				<stop  offset="0.8415" style="stop-color:#1EBCFC"/>
				<stop  offset="0.8819" style="stop-color:#19B2F2"/>
				<stop  offset="0.919" style="stop-color:#11A1E1"/>
				<stop  offset="0.9537" style="stop-color:#0589C9"/>
				<stop  offset="0.966" style="stop-color:#007FBF"/>
				<stop  offset="1" style="stop-color:#20BFFF"/>
			</linearGradient>
			<path class="st25" d="M22.9,37.8L22.9,37.8c-1.1,0-2,0.9-2,2c0,10.3,0,20.6,0,30.9c0,1.1,0.9,1.9,1.9,1.9
				c25.6-0.2,50.3-8.7,50.3-4.5c0-11.6,0-23.2,0-34.8C73.2,29.2,48.5,37.6,22.9,37.8z"/>
		</g>
		<g>
			<path class="st26" d="M45.8,49c-0.1,0-0.1,0.1-0.2,0.1c0,0,0,0,0,0c1.3,0.7,2,1.9,2.1,3.2c0,1.3-0.7,2.7-2,3.7c0,0,0.1,0,0.1,0.1
				c0.1,0,0.2,0.1,0.3,0.2c1,0.4,2.1,0.5,3.2,0.3c1.2-0.2,2.3-0.8,3-1.5c1-1.2,1.9-3,1.7-4.4c-0.2-1.4-1.2-2.5-2.5-3
				C49.9,47.3,47.5,47.8,45.8,49z M49.3,48.3c0,0,0,0.1,0,0.1C49.2,48.5,49.2,48.5,49.3,48.3C49.2,48.4,49.2,48.3,49.3,48.3z
				 M49.1,48.7c0,0,0.1,0,0.1,0c0,0,0,0,0,0.1c0,0,0,0,0,0c0,0,0,0,0.1,0c0,0,0,0,0.1,0c0,0,0,0,0.1,0c0,0,0,0,0,0.1
				c-0.1,0-0.1,0-0.2,0c0,0-0.1,0-0.2,0c0,0,0-0.1,0-0.1C49.1,48.8,49.1,48.8,49.1,48.7z M49.4,48.8c0,0-0.1,0-0.1-0.1
				c0,0,0-0.1,0-0.1c0,0,0,0,0-0.1c0,0,0,0,0,0c0.1,0,0.1,0,0.1,0.1C49.4,48.7,49.4,48.7,49.4,48.8z M49.1,48.5
				C49.1,48.5,49.2,48.5,49.1,48.5c0.1,0,0.1,0.1,0,0.1C49.1,48.7,49.1,48.6,49.1,48.5C49.1,48.6,49.1,48.5,49.1,48.5z M48.8,48.7
				C48.9,48.7,48.9,48.7,48.8,48.7c0.1,0,0.1,0,0.1,0c0,0,0.1,0.1,0,0.1s-0.1,0.1-0.1,0C48.8,48.9,48.8,48.8,48.8,48.7z M46.4,49
				C46.4,49.1,46.4,49.1,46.4,49c-0.1,0.1-0.2,0.1-0.3,0.1c-0.1,0-0.1,0-0.2,0c0.1-0.1,0.2-0.1,0.3-0.2c0.1,0,0.2,0,0.3-0.1
				c0,0,0.1-0.1,0.1-0.1c0.1,0,0.1,0,0.2-0.1c0,0,0.1,0,0.1,0c0.1,0,0.1-0.1,0.1-0.1c0.1,0,0.2,0,0.3,0c0.1,0,0.2,0,0.2,0.1
				c0,0,0,0,0,0.1c0,0,0.1,0.1,0.1,0.1s0,0,0,0.1c0,0,0,0,0,0c0,0.1-0.1,0.1-0.1,0.1s-0.1,0.1-0.1,0.1c0,0,0-0.1,0-0.2
				c0,0-0.1,0-0.1,0c0,0-0.1,0-0.1,0c0,0-0.1,0.1-0.1,0.1c-0.1,0-0.1,0-0.2,0c-0.1,0-0.2,0-0.3,0C46.6,49,46.5,49,46.4,49
				C46.4,49,46.4,49,46.4,49z M46.7,49.9c0,0-0.1,0-0.1,0s0,0,0.1-0.1C46.7,49.8,46.7,49.8,46.7,49.9C46.8,49.9,46.7,49.9,46.7,49.9
				z M46.9,49.8C46.8,49.8,46.8,49.8,46.9,49.8C46.8,49.7,46.9,49.7,46.9,49.8c0.1-0.1,0.1-0.1,0.1,0C47,49.8,46.9,49.8,46.9,49.8z
				 M48.4,50.3C48.4,50.4,48.3,50.3,48.4,50.3c-0.1-0.1-0.2-0.1-0.1-0.2c0.1,0,0.1,0,0.1,0C48.4,50.3,48.5,50.3,48.4,50.3z
				 M51.4,48.1C51.4,48.1,51.4,48.1,51.4,48.1c0.1-0.1,0.1-0.1,0.2-0.1c0,0,0.1,0,0.1,0.1c0,0,0.1,0.1,0.1,0.1c0,0,0,0,0,0.1
				c0,0,0,0-0.1,0c0,0-0.1,0-0.1,0c0,0,0,0,0,0C51.5,48.1,51.5,48.2,51.4,48.1C51.4,48.2,51.4,48.2,51.4,48.1
				C51.4,48.1,51.4,48.1,51.4,48.1z M51.4,51.4c0,0,0.1,0,0.2,0c0,0,0,0,0,0C51.5,51.4,51.5,51.4,51.4,51.4
				C51.4,51.4,51.4,51.4,51.4,51.4c-0.1,0-0.1,0-0.1,0C51.3,51.4,51.3,51.3,51.4,51.4C51.4,51.3,51.4,51.3,51.4,51.4z M51.4,49.7
				C51.4,49.7,51.4,49.6,51.4,49.7C51.5,49.6,51.5,49.6,51.4,49.7C51.5,49.7,51.4,49.7,51.4,49.7C51.3,49.8,51.4,49.7,51.4,49.7z
				 M51.4,49.5c0,0,0-0.1,0-0.2c0,0,0-0.1,0.1,0c0,0,0,0.1,0,0.1c0,0,0.1,0,0.1,0c0,0,0,0.1,0,0.1s0,0,0,0
				C51.5,49.4,51.5,49.5,51.4,49.5z M51.7,51.4C51.7,51.4,51.7,51.4,51.7,51.4c0.1,0,0.1,0,0.1,0S51.7,51.4,51.7,51.4
				C51.7,51.4,51.7,51.4,51.7,51.4z M51.4,49.2C51.4,49.3,51.5,49.3,51.4,49.2c0,0.2-0.1,0.2-0.1,0.2c0,0-0.1,0-0.1,0
				c0,0-0.1,0.1-0.1,0.1c0,0,0.1,0,0.1,0c0.1,0,0,0,0.1,0c0,0,0,0,0.1,0c0,0,0,0-0.1-0.1c0,0,0.1,0,0.1,0c0,0,0,0,0,0c0,0,0,0,0,0
				c0,0.1,0,0,0,0.1c0,0,0,0,0,0.1c0,0.1-0.1,0.2-0.1,0.2c0,0.1,0,0.1-0.1,0.2c-0.1,0-0.1,0.2-0.1,0.2c0,0,0,0.2,0,0.2
				c-0.1,0.1-0.1,0.1-0.2,0.2c0,0,0,0.1,0,0.1c0,0,0,0,0,0.1c0.1,0.1,0.1,0.2,0,0.2c0,0.1-0.1,0-0.1,0c0,0,0-0.1,0-0.1
				c0,0-0.1-0.1-0.1-0.1c-0.1,0-0.1,0-0.2,0c-0.1,0-0.1,0-0.2,0.1c0,0-0.1,0-0.1,0c-0.1,0-0.1,0-0.1,0C50,51.2,50,51.3,50,51.3
				c0,0.1-0.1,0.1-0.1,0.1c0,0.1,0,0.1,0.1,0.1c0,0,0.1,0.1,0.1,0.1s0.1,0,0.1,0c0.1,0,0.2-0.1,0.3-0.1c0.1,0-0.1,0.2,0,0.2
				c0.1,0.1,0.2,0,0.3,0c0.1,0,0.1,0.1,0.1,0.2c0,0,0,0.1,0,0.1c0,0,0.1,0,0.1,0c0,0,0.1-0.1,0.1-0.1s0.1,0,0.1,0c0,0,0,0,0-0.1
				c0,0,0,0,0,0c0,0,0,0,0,0c0,0,0-0.1,0.1-0.1c0.1,0,0.2-0.1,0.3-0.1c0,0,0,0,0,0c0,0,0,0,0,0.1c0,0,0,0.1-0.1,0.1
				c0.1,0,0.1-0.1,0.2-0.1c0-0.1,0,0,0.1,0c0,0,0,0,0.1,0c0,0,0.1,0.1,0.2,0.1c0,0,0.1,0.1,0.1,0.1c0,0,0,0,0.1,0.1c0,0,0,0,0,0.1
				c0,0,0.1,0,0.2,0c0,0,0.1,0.1,0.1,0.1c0,0,0,0.1,0,0.2c0,0,0.1,0,0.1,0c0,0,0,0,0.1,0c0.1,0,0.1,0,0.2,0c0,0,0.1,0,0.1,0
				c0,0,0.1,0,0.1,0.1c0,0,0.1,0.1,0.1,0.2c0,0,0.1,0.1,0,0.1c0,0-0.1,0.1-0.1,0.1c-0.1,0.1-0.1,0.2-0.2,0.2
				C53,53.1,53,53.2,53,53.2c0,0,0,0.1,0,0.1c-0.1,0-0.1,0.1-0.1,0.1c0,0.1-0.1,0.2-0.2,0.2s-0.1,0.1-0.2,0.2c0,0-0.1,0.1-0.2,0.2
				c-0.1,0.1-0.1,0.1-0.2,0.2c0,0,0,0.1-0.1,0.1c0,0-0.1,0-0.1,0.1c0,0.1-0.2,0.1-0.2,0.2c-0.1,0.1-0.1,0.2-0.2,0.2
				c-0.1,0.1-0.2,0.1-0.3,0.2c0,0-0.1,0.1-0.2,0.2c-0.1,0.1-0.1,0.2-0.2,0.3c-0.1,0.1-0.1,0.2-0.1,0.2c0,0.1,0,0.1-0.1,0.1
				c0,0,0,0-0.1,0c0,0,0,0,0,0.1c0,0,0.1-0.1,0.1,0c0,0,0,0,0,0c0,0,0,0,0,0c0,0,0,0,0,0c0,0-0.1,0-0.1,0c0,0,0,0-0.1,0
				c0,0,0,0-0.1,0c0,0,0-0.1,0-0.1c0,0-0.1,0-0.1,0c-0.1-0.1,0-0.1,0-0.2c-0.1,0,0-0.1,0-0.1c0.1,0,0-0.1,0-0.2c0,0,0.1-0.1,0.1-0.1
				c0,0,0.1,0,0.1-0.1c0,0,0,0,0,0c0-0.1,0.1-0.1,0.1-0.2c0-0.1,0.1-0.1,0.1-0.2c0-0.1,0.1-0.1,0.1-0.2c0,0,0,0,0-0.1c0,0,0,0,0-0.1
				c0,0,0-0.1,0.1-0.1c0,0,0-0.1,0-0.1c0,0,0,0,0,0c0,0,0-0.1,0-0.1c0-0.1,0-0.1,0-0.2c0,0,0-0.1,0-0.1c0,0,0-0.1,0-0.1s0-0.1,0-0.1
				c0,0-0.1,0-0.1-0.1c0,0,0-0.1-0.1-0.1c0,0,0-0.1,0-0.1c0-0.1,0-0.2,0-0.2c0,0,0-0.1,0-0.1c0,0,0-0.1,0-0.1c0,0,0-0.2,0-0.2
				s0-0.1,0-0.2c0-0.1,0-0.1,0.1-0.1c0-0.1,0-0.2-0.1-0.2c-0.1,0-0.1,0-0.1,0c0,0,0,0.1,0,0.1c0,0,0,0-0.1-0.1c0,0,0,0-0.1,0
				c0,0-0.1,0-0.1,0c0,0,0-0.1-0.1-0.1c0,0-0.1,0-0.1,0c-0.1,0-0.2,0-0.2-0.1c-0.1,0-0.1,0-0.2,0c0,0-0.1,0-0.2,0
				c-0.2,0-0.3-0.1-0.4-0.3c0,0,0-0.1-0.1-0.1c0,0-0.1,0-0.1,0c0,0-0.1-0.1-0.1-0.1c0,0-0.1,0-0.1-0.1c0,0-0.1-0.1-0.1-0.1
				c0,0,0,0-0.1-0.1c0,0,0-0.1-0.1-0.1c-0.1,0-0.1,0-0.1,0.1c0,0,0.1,0.1,0.1,0.1c0,0,0.1,0,0,0.1c0,0,0,0.1,0.1,0.1
				c0,0,0.1,0.1,0,0.1c-0.1,0-0.1-0.1-0.2-0.2s-0.1-0.1-0.1-0.2c0,0-0.1,0-0.1-0.1c0,0-0.1-0.1-0.1-0.1c0,0-0.1-0.1-0.1-0.1
				c0,0,0-0.1,0-0.1c0-0.1,0-0.2,0-0.3c0,0,0-0.1,0-0.1s0,0,0-0.1c0,0,0,0,0,0c-0.1-0.2-0.2-0.3-0.3-0.5c0,0-0.1-0.2-0.2-0.1
				c-0.1,0-0.2,0-0.4,0c0,0-0.1,0-0.1,0c-0.1,0-0.1,0-0.1,0c-0.1,0-0.1,0-0.2,0c0,0-0.1,0-0.1,0s0,0-0.1,0c0.1-0.1,0.2,0,0.2-0.1
				c0.1,0,0.1,0,0.1,0c0,0,0,0,0-0.1c0,0,0-0.1,0-0.2c0,0,0,0,0.1-0.1c0,0,0,0,0.1-0.1c0,0,0.1,0,0.1,0c0,0,0-0.1,0.1-0.1
				c0,0,0.1,0,0.2-0.1c0.1,0,0.2-0.1,0.3-0.1c0,0,0.1,0,0.1,0c0,0,0.1,0,0.1,0c0.1,0,0.2,0,0.3,0.1c0.1,0,0.2,0,0.3,0
				c0.1,0,0.1,0,0.1,0c0.1,0,0.1,0,0.2,0.1c0.1,0,0.2,0,0.3,0c0.1,0,0.1,0,0.2-0.1c0-0.1,0-0.1-0.1-0.1c0,0,0-0.1,0-0.1
				c0-0.1,0.1-0.1,0.1,0c0.1,0,0.1,0,0.1,0.1c0,0,0.1,0,0.1,0.1c0.1,0,0.2,0,0.2,0.1C50,49,50,49,50,49c0,0,0,0.1,0,0.1
				c0,0.1-0.1,0.1-0.1,0.2c-0.1,0-0.1,0.1,0,0.1c0,0,0,0,0.1,0c0,0,0.1,0,0.1,0c0.1,0,0.1,0,0.2,0c0.1,0,0.1,0,0.2,0
				c0.1,0,0.1,0,0.2,0.1c0-0.1,0-0.2,0-0.2c0,0-0.1,0-0.1-0.1c0,0,0,0,0-0.1c-0.1,0-0.1,0-0.1-0.1c0,0,0-0.1,0.1-0.1
				c0.1,0,0.2,0,0.3,0c0.1,0,0.1,0,0.1,0c0.1,0,0.1,0,0.1,0c0.1,0.1,0.1,0.1,0.2,0.1C51.2,49.1,51.3,49.2,51.4,49.2
				c0-0.1,0-0.1,0-0.1C51.4,49.2,51.4,49.2,51.4,49.2z M51.2,51.4c0,0-0.1,0-0.1,0c-0.1,0-0.1,0-0.2-0.1c0,0-0.1,0-0.1-0.1
				c0,0,0.1,0,0.1,0C50.9,51.4,51,51.4,51.2,51.4C51.1,51.4,51.2,51.4,51.2,51.4z M50.2,49.1C50.2,49.1,50.2,49.2,50.2,49.1
				c-0.1,0.1-0.2,0.1-0.2,0c0,0,0,0,0,0c0,0,0,0,0.1,0C50.1,49.1,50.1,49.1,50.2,49.1z M49.7,48c0-0.1,0.1-0.1,0.1-0.1
				c0.1,0,0.1,0,0.2,0c0.1,0,0.2-0.1,0.3,0c0,0,0,0,0.1,0c0.1,0,0.1,0,0.2,0c0.1,0,0.1,0,0.2,0.1c0,0,0.1,0,0.1,0.1c0,0,0.1,0,0.1,0
				c0.1,0,0.1,0,0.1,0c0,0,0,0,0,0.1c0,0,0,0.1,0.1,0.1c0,0,0,0,0,0.1c0,0,0.1,0.1,0.1,0.1c0,0,0,0,0.1,0.1c0.1,0,0.1,0.1,0.1,0.1
				c0,0.1-0.1,0.2-0.2,0.2c-0.1,0-0.2,0-0.2,0c-0.1,0-0.2,0-0.3-0.1c0,0-0.1-0.1-0.1-0.1c-0.1,0-0.1,0-0.1-0.1s0-0.1,0-0.1
				c-0.1,0-0.1,0-0.2,0c-0.1,0-0.2,0-0.3,0c0,0-0.1,0-0.2,0c0,0,0,0,0,0c0,0,0,0-0.1,0c0,0.1,0.2,0,0.2,0.1c0.1,0,0.2,0,0.3,0
				c0.1,0,0.1,0,0.1,0.1c0,0,0.1,0,0.1,0.1c0.1,0,0.1,0,0.2,0c0.1,0,0.1,0,0,0.1c0,0-0.1,0-0.1,0c0,0.1,0,0.1,0,0.1
				c0,0,0,0.1-0.1,0.1c0,0-0.1,0-0.2,0s-0.3,0.1-0.3,0c0,0,0.1-0.1,0.1-0.1c0-0.1,0,0-0.1-0.1c-0.1,0-0.1,0-0.2,0
				c-0.1,0-0.1,0-0.2-0.1c0,0-0.1,0-0.1,0c0,0,0,0-0.1-0.1c0,0-0.1-0.1-0.1-0.1c-0.1,0-0.1,0-0.1-0.1c0,0,0,0,0-0.1c0,0,0,0-0.1,0
				c0,0,0,0,0,0s-0.1,0-0.1-0.1c0-0.1,0.1,0,0.1,0c0,0,0.1-0.1,0.1-0.1s0,0,0-0.1C49.6,48.1,49.6,48.1,49.7,48
				C49.7,48,49.7,48,49.7,48z M49.6,48C49.6,48,49.5,48,49.6,48c-0.1,0-0.2,0.1-0.2,0.1c0,0-0.1,0-0.1,0.1c0,0-0.1,0-0.1,0
				s0.1-0.1,0.1-0.2C49.5,48,49.6,47.9,49.6,48z M52.2,44.2c0,0-0.1-0.1-0.1-0.2c0-0.1,0-0.2,0.1-0.3c0.1-0.2,0.4-0.7,0.4-0.7
				s0.2-0.2,0.3-0.3c0.1,0,0.2,0,0.2,0c0.1,0,0.2,0,0.2,0s0.2,0.1,0.2,0.3c-0.1,0.2-0.1,0.4-0.6,1c0,0-0.2,0.3-0.4,0.2
				C52.3,44.3,52.2,44.3,52.2,44.2z M54.2,48c0.8,1.1,1.3,2.3,1.3,3.8c0,4.8-3.8,9.5-9.9,10.6c0.4-0.1,0.9-0.3,1.3-0.5
				c1-0.4,2-0.9,2.9-1.5c1.1-0.7,1.9-1.5,2.5-2.4c0.7-1,1.3-2.3,1.6-3.6c0.2-0.8,0.2-1.7,0.2-2.5c0-1.1,0-2.2,0-3.2
				C54.2,48.5,54.2,48.2,54.2,48z M50.5,50c0,0-0.1,0.2-0.2,0.2c0,0,0,0,0-0.1c0,0,0-0.1,0-0.1C50.3,50,50.4,50,50.5,50z M39.3,44.6
				c-0.2-0.2-0.2-0.4-0.4-0.6c0.2-0.1,0.2-0.2,0.4-0.3c0,0,0.1,0,0.2,0c0.1,0,0.3,0.4,0.3,0.4s0,0.1-0.1,0.2
				C39.7,44.3,39.3,44.6,39.3,44.6z M50.7,50.1c0,0-0.1,0-0.1,0c0,0-0.2-0.1-0.1-0.1C50.6,50,50.6,50,50.7,50.1
				C50.7,50,50.8,50,50.7,50.1z M50.4,49.8c0,0,0,0.1,0.1,0.1c-0.1,0-0.1,0-0.2,0c0,0-0.2,0-0.1,0C50.2,49.9,50.3,49.9,50.4,49.8
				c-0.1,0-0.2,0-0.1,0C50.3,49.8,50.4,49.8,50.4,49.8z M51,49.9c0,0-0.1,0-0.2,0.1c0,0,0,0,0,0C50.8,49.9,50.9,50,51,49.9
				C50.9,49.9,51,49.9,51,49.9z M45.8,42.7c-0.3,0-0.5,0.1-0.8,0.1c0.2-0.3,0.3-0.5,0.4-0.8C45.6,42.3,45.7,42.5,45.8,42.7z
				 M40.7,51.8c0.1,0,0-0.1,0-0.1c0,0,0-0.1,0-0.1c0,0,0-0.1,0.1-0.1c0,0,0.1,0,0.1,0c0,0-0.1,0.1,0,0.1c0,0,0,0,0,0.1
				C40.9,51.8,40.9,51.9,40.7,51.8C40.8,51.9,40.7,52,40.7,51.8C40.7,51.9,40.7,51.8,40.7,51.8z M40,50.7c0,0-0.1,0-0.1,0
				c-0.1,0-0.1-0.1,0-0.2c0,0.1,0.2,0,0.3,0c0,0,0,0,0-0.1c0,0,0,0,0.1,0c0,0,0.1-0.1,0.1-0.1c0-0.1,0.2-0.2,0.2-0.2
				c0,0,0.1,0,0.1,0s0,0.1-0.1,0.1c0,0-0.1,0-0.1,0s-0.1,0-0.1,0.1c0,0,0,0,0,0c0,0,0,0,0,0c0,0,0.1,0,0.1,0c0.1,0,0.1,0,0.2,0
				c0.1,0,0.1,0,0.1,0c0,0.1-0.2,0-0.2,0.1s-0.1,0-0.2,0.1c0,0-0.1,0-0.1,0C40.1,50.7,40.1,50.7,40,50.7z M40.2,50.7
				C40.2,50.7,40.2,50.7,40.2,50.7C40.2,50.7,40.2,50.7,40.2,50.7z M46.7,60.7c0.2,0,0.5-0.1,0.7-0.2c0.1,0,0.3-0.1,0.4-0.2
				c0.1,0,0.2-0.1,0.3-0.2c0.1-0.1,0.3-0.2,0.4-0.2c0.1,0,0.1,0,0.2,0c0.1,0,0.1,0,0.1,0c0-0.1,0-0.1-0.1-0.1c0,0-0.1,0-0.1,0
				c-0.1,0-0.1,0-0.2,0c-0.1,0-0.1,0-0.2,0.1c-0.1,0-0.2,0-0.2,0c-0.2,0-0.5,0-0.7,0c-0.1,0-0.2,0-0.3,0c-0.1,0-0.2,0-0.4,0
				c-0.2,0-0.4-0.1-0.6-0.1c-0.1,0-0.2,0-0.3-0.1c-0.1,0-0.2,0-0.4,0c-0.2,0-0.5,0-0.7,0.1c-0.1,0-0.1,0-0.2,0.1c-0.1,0-0.1,0-0.1,0
				c-0.1,0-0.3,0-0.4,0c0,0-0.2,0-0.1-0.1c0,0,0.1,0,0.1-0.1c0.1,0,0.2-0.1,0.3-0.1c0.1,0,0.1,0,0.2,0c0,0,0.1,0,0.1,0
				c0.1,0,0.2,0,0.3,0c0.2-0.1,0.5-0.1,0.7-0.2c0.1,0,0.2-0.1,0.4-0.1c0,0,0.1,0,0.2-0.1c0,0,0.1,0,0.2,0c0.1,0,0.1-0.1,0.2-0.1
				c0,0,0.1,0,0.2,0c0.1,0,0.2-0.1,0.3-0.1c0.2-0.1,0.4-0.2,0.6-0.3c0.1,0,0.2-0.1,0.3-0.2c0.1,0,0.2-0.1,0.3-0.2
				c0.1-0.1,0.2-0.1,0.3-0.2c0.1,0,0.2-0.1,0.3-0.2c0.1-0.1-0.1-0.1-0.2-0.1c-0.1,0-0.2,0-0.3,0c-0.1,0-0.2,0.1-0.3,0.1
				c-0.1,0-0.2,0-0.3,0s-0.2,0-0.3,0c-0.1,0-0.3,0-0.4,0c-0.2,0-0.4,0.1-0.7,0.1c-0.1,0-0.2,0.1-0.3,0.1c-0.1,0-0.2,0-0.3,0.1
				c-0.2,0.1-0.5,0.2-0.7,0.4c-0.2,0.1-0.4,0.3-0.5,0.4c-0.1,0.1-0.1,0.2-0.2,0.2c0,0-0.1,0.1-0.1,0.1c0,0-0.1,0-0.1,0.1
				c-0.1,0-0.2,0.1-0.3,0.1c-0.1,0-0.1,0.1-0.1,0.1c-0.1,0-0.1,0-0.2,0c-0.1,0-0.1,0-0.2,0c0,0-0.1,0-0.1,0c-0.1,0-0.2,0-0.3,0
				c0,0,0.1-0.1,0.1-0.1c0,0,0,0,0-0.1c0,0,0,0,0,0c0,0,0.1-0.1,0.1-0.1c0,0,0,0,0,0c0,0,0,0,0,0c0,0,0.1,0.1,0.1,0.1
				c0,0.1-0.1,0.1-0.1,0.2c0,0,0.1,0,0.2,0c0.1,0,0.1,0,0.2,0c0.1,0,0.3-0.1,0.4-0.1c0.1,0,0.1-0.1,0.2-0.1c0,0,0-0.1,0.1-0.2
				C44,59.2,44,59.1,44,59c0-0.1,0-0.2-0.1-0.2c0,0-0.1,0-0.2,0c-0.1,0-0.1,0-0.2,0s-0.2,0-0.3,0c-0.1,0-0.2,0-0.3,0.1
				c-0.1,0-0.2,0.1-0.3,0.2c0,0.1-0.1,0.1-0.1,0.1c0,0.1-0.1,0.1-0.1,0.2c0,0,0,0.1,0.1,0.1c0,0,0,0,0,0c0,0,0,0.1-0.1,0.1
				c0,0,0,0.1-0.1,0.2c0,0-0.1,0-0.1,0c-0.1,0-0.2,0-0.3,0c-0.2,0-0.4-0.1-0.6-0.2c-0.2,0-0.4-0.1-0.6-0.2c-0.2-0.1-0.3-0.2-0.5-0.3
				c-0.1,0-0.2-0.1-0.3-0.1c-0.1,0-0.2,0-0.2,0c-0.1-0.1-0.1-0.1-0.1-0.1c-0.1,0,0,0.1,0,0.1c0,0,0.1,0.1,0.2,0.1
				c0.2,0.1,0.3,0.2,0.5,0.3c0.1,0.2,0.1,0.3,0.3,0.4c0,0,0.1,0,0.2,0c0,0,0.1,0,0.1,0c0.1,0,0.2,0,0.2,0c0.1,0,0.1,0,0.1,0
				c0.2,0,0.5,0.1,0.7,0.1c0.2,0,0.4,0.1,0.6,0.1c0.1,0,0.2,0,0.3,0c0.1,0,0.2,0,0.4,0c0-0.1-0.1-0.1,0-0.2c0.1-0.1,0.1,0,0.1,0.1
				s0.1,0.1,0.1,0.1c0.1,0,0.1,0.1,0.2,0.1c0,0,0,0,0,0.1c0,0,0,0,0,0.1c0,0,0.1,0.1,0.1,0.1c-0.1,0.1-0.1,0-0.1,0
				c0,0-0.1-0.1-0.1-0.2c-0.1,0.1-0.1,0.2-0.2,0.3c0,0,0,0.1,0,0.2c0,0,0,0.1,0,0.1c0,0.1,0.1,0.1,0.1,0.2c0,0,0.1,0.1,0.2,0.1
				c0.1,0.1,0.2,0.1,0.3,0.1c0.1,0,0.2,0,0.3,0c0.1,0,0.1,0,0.2-0.1c0,0,0.1-0.1,0.1-0.1s0-0.1,0.1-0.2c0,0,0-0.1,0-0.1
				c0-0.1,0-0.2-0.1-0.3c-0.1-0.2-0.2-0.4-0.5-0.4c-0.1,0-0.2,0-0.2,0.1c-0.1,0,0,0-0.1-0.1c-0.1-0.1-0.1-0.1-0.2-0.2c0,0,0,0,0.1,0
				c0,0,0.1,0,0.1,0s0.1,0,0.1,0c0,0,0,0.1,0.1,0.1c0.1,0,0.2,0,0.3,0c0.1,0,0.1,0.1,0.2,0.1c0.1,0,0.1,0.1,0.2,0.1
				c0.1,0.1,0.2,0.2,0.3,0.2c0.2,0.1,0.5,0.1,0.8,0.2c0.1,0,0.2,0,0.3,0C46.1,60.8,46.5,60.8,46.7,60.7z M45.2,59.1
				c0.2-0.1,0.5-0.2,0.8-0.3c0.2-0.1,0.5-0.1,0.7-0.2c0.2-0.1,0.5-0.1,0.7-0.2c0.1,0,0.2-0.1,0.3-0.1c0.1,0,0.1,0,0.2,0c0,0,0,0,0,0
				s0,0-0.1,0c-0.1,0-0.2,0-0.3,0.1c-0.1,0-0.2,0.1-0.4,0.1c-0.1,0-0.2,0.1-0.3,0.2c-0.1,0-0.2,0.1-0.3,0.1c-0.2,0-0.5,0.1-0.7,0.2
				c-0.2,0.1-0.5,0.1-0.7,0.2c-0.2,0.1-0.4,0.2-0.7,0.3c0,0,0,0-0.1,0C44.7,59.3,44.9,59.2,45.2,59.1z M40.6,59.7
				C40.6,59.7,40.6,59.7,40.6,59.7c0-0.1-0.1-0.2-0.1-0.2s0,0,0.1,0c0-0.1-0.1-0.2-0.2-0.2c0,0-0.2-0.1-0.2-0.2
				c0.1,0,0.1,0.1,0.2,0.1c0.1,0,0.2,0.1,0.2,0.1c0.1,0.1,0.1,0.2,0.1,0.3C40.7,59.8,40.7,59.8,40.6,59.7z M45.5,60.2
				c-0.1,0-0.2,0-0.3-0.1c-0.1,0-0.3,0-0.3,0c0.2,0,0.5-0.1,0.7,0c0.3,0,0.5,0.1,0.8,0.1c0.2,0,0.3,0,0.5,0c0.1,0,0.3,0,0.4,0
				c0.1,0,0.2,0,0.3,0c0,0,0,0,0,0.1c-0.1,0-0.2,0-0.3,0.1c-0.1,0-0.3,0-0.5,0.1c-0.1,0-0.2,0-0.3,0c-0.1,0-0.2,0-0.3,0
				C45.9,60.3,45.7,60.2,45.5,60.2z M41.7,57.7c1.2-0.1,2.3-0.6,3.3-1.3c0,0,0,0,0,0c-0.1,0-0.1,0-0.1-0.1c0,0,0.1-0.1,0.1-0.1
				c0,0,0,0,0,0c0,0,0.1,0,0.1,0c0,0,0,0,0,0c0,0,0,0,0.1,0c0,0,0.1-0.1,0.1-0.1c0,0,0,0,0,0c0,0,0.1,0,0.1-0.1
				c0.1-0.1,0.2-0.2,0.3-0.3c0,0-0.1,0.1-0.2,0.1c-0.1,0-0.1,0-0.1,0c-0.1,0-0.1,0-0.2,0c-0.1,0-0.1,0-0.1,0c0,0,0-0.1-0.1-0.1
				c0-0.1,0-0.2,0-0.3c-0.1,0-0.1,0.1-0.1,0.1c-0.1,0,0,0-0.1-0.1c-0.1-0.1-0.1-0.2-0.2-0.2c-0.2,0-0.5,0.1-0.7,0.1c0,0-0.1,0-0.1,0
				c0,0-0.1-0.1,0-0.1c0,0,0.1-0.1,0.1-0.1c0-0.1,0-0.1,0-0.1c0,0,0-0.1,0.1-0.1c0-0.1,0-0.1,0.1-0.1c0-0.1,0.1-0.2,0.2-0.2
				c0.1,0,0.2-0.1,0.3-0.2c0,0,0,0,0.1,0c0,0,0,0,0.1,0c0-0.1,0.1-0.1,0.1-0.1c0.1-0.1,0.2-0.1,0.3-0.2c0.1,0,0.2-0.1,0.3-0.2
				c0.1,0,0.1,0,0.2,0c0,0,0.1,0,0.2,0c0.1,0,0,0,0,0.1c0,0,0,0.1-0.1,0.1c-0.1,0.1,0,0.1,0.1,0.2c0,0,0.1,0,0.1,0
				c0-0.1,0.1-0.1,0.1-0.1c0-0.1,0.1-0.1,0.1-0.1c0-0.1,0-0.1,0.1-0.1c0.1-0.1,0.1,0.2,0.1,0.2s0,0.1,0,0.1s0,0.1,0,0.1
				c0,0.1,0,0.2,0,0.3c0,0.1,0,0.2,0,0.2c0,0,0,0.1,0,0.1c0,0-0.1,0.1-0.1,0.1c0,0.1-0.1,0.1-0.1,0.2c0,0-0.1,0.1-0.1,0.1
				c0,0,0,0,0,0c0.5-0.5,0.9-1.2,1.1-1.8c0,0,0,0,0,0c-0.1,0,0,0-0.1-0.1c0,0,0,0,0,0c0,0,0,0,0,0c0,0,0.1,0,0.1-0.1c0,0,0,0,0,0
				c0.1-0.4,0.2-0.7,0.2-1.1c0-1.3-0.8-2.4-2-3.1c-1-0.6-2.4-0.8-3.7-0.6c-2.9,0.4-4.6,2.7-4.6,5.2C37.1,56.3,38.8,58,41.7,57.7z
				 M40.5,55c0,0-0.1,0.1-0.1,0.1c0,0-0.1,0.1-0.1,0.1c0,0,0,0.1,0,0.1c0,0,0.1,0.1,0,0.1c0,0-0.1,0.1-0.1,0.1c0,0-0.1,0-0.1-0.1
				c-0.1,0,0-0.2,0-0.2s0-0.1,0-0.1c0,0,0-0.1,0-0.1c0,0,0-0.1,0.1-0.1c0.1,0,0.1-0.1,0.1-0.1c0,0,0,0,0.1-0.1c0,0,0.1,0,0.1,0.1
				C40.6,54.8,40.5,54.9,40.5,55z M42.5,53.3c0,0,0,0.1-0.1,0.1c-0.1,0,0-0.1,0-0.1c0,0,0.1-0.1,0.1-0.1
				C42.6,53.2,42.5,53.3,42.5,53.3z M44,53.8c0,0.1-0.1-0.1-0.2-0.1c0-0.1-0.1-0.1-0.1-0.2c0,0-0.2-0.1-0.2-0.1c0,0-0.1,0-0.1,0
				c0,0,0,0,0-0.1c0.1,0,0.2,0,0.3,0c0.1,0,0.1,0.1,0.2,0.1c0.1,0,0.1,0.1,0.2,0.1C44.1,53.6,44,53.8,44,53.8z M44.5,54
				c0,0-0.1,0-0.1,0s-0.1,0-0.2,0c0,0-0.1,0-0.1-0.1c0,0,0-0.1,0-0.1c0,0,0,0.1,0.1,0.1c0,0,0.1,0,0.2,0s0.1,0,0.1,0
				C44.6,53.9,44.6,53.9,44.5,54z M44.6,53.6c0,0-0.1,0-0.1,0c0,0-0.1,0-0.1,0c0,0,0-0.1,0-0.1c0,0-0.1,0,0-0.1c0,0,0,0,0.1-0.1
				c0.1,0,0.2,0,0.2-0.1c0,0,0.1-0.1,0.1-0.1c0,0,0.1-0.1,0.1-0.1c0,0,0.1,0,0.1,0c0,0.1,0,0-0.1,0.1c0,0,0,0.1,0,0.1
				c0.1,0,0,0,0,0.1c0,0-0.1,0.1-0.1,0.1c0,0,0,0.1,0,0.1C44.6,53.6,44.6,53.6,44.6,53.6z M45.3,52.9c0,0,0.1,0.1,0,0.1
				c-0.1,0-0.1,0-0.1,0c0,0-0.1,0-0.1,0c0,0,0,0,0,0c-0.1,0-0.1,0,0-0.1c0.1,0,0.1,0,0.2,0c0,0,0-0.1,0-0.1s0,0-0.1,0
				c0,0,0.1-0.1,0.1-0.1s0.1,0.1,0,0.1C45.2,52.8,45.3,52.8,45.3,52.9z M45.2,53.5C45.1,53.5,45,53.5,45.2,53.5
				c-0.1,0.1,0,0.1,0,0.1c0,0,0,0-0.1,0c0,0-0.1,0-0.1,0c0,0,0,0-0.1,0c0,0.1,0.1,0.2,0,0.2c0,0-0.1,0-0.1-0.1c0,0,0-0.1,0-0.1
				c0-0.1,0-0.2,0.1-0.2c0.1-0.1,0.2-0.1,0.3-0.1c0.1,0,0,0.1-0.1,0.1c-0.1,0-0.1,0-0.1,0.1C45.1,53.5,45.3,53.4,45.2,53.5z
				 M45,52.6C45,52.6,45.1,52.7,45,52.6C45,52.7,44.9,52.7,45,52.6z M45.1,50.1c0,0,0-0.1-0.1-0.2c-0.1-0.1-0.3-0.1-0.3-0.2
				c0,0,0,0,0,0c0.1,0,0.3,0.1,0.4,0.2c0,0,0,0,0.1,0.1c0,0,0,0,0,0.1c0,0,0.2,0.1,0.1,0.1C45.3,50.2,45.2,50.1,45.1,50.1z
				 M45.1,52.6C45,52.6,45.1,52.5,45.1,52.6C45.1,52.5,45.2,52.6,45.1,52.6C45.2,52.6,45.1,52.6,45.1,52.6z M45,52c0,0,0-0.1,0-0.2
				c0,0,0,0,0-0.1c0,0,0.1,0,0.1,0c0,0,0,0.1,0,0.2C45.1,52,45,52,45,52z M45,52.3C45.1,52.3,45,52.3,45,52.3c-0.1,0.1,0,0.2,0,0.2
				c0,0,0,0.1,0,0.1s-0.1,0-0.1,0c0,0,0,0,0-0.1C44.9,52.4,44.8,52.2,45,52.3C45,52.2,45,52.2,45,52.3z M44.8,54c-0.1,0-0.1,0-0.1,0
				c0,0-0.1,0,0,0C44.7,53.9,44.7,53.9,44.8,54C44.8,53.9,44.9,53.9,44.8,54c0.1-0.1,0.2-0.1,0.2,0c0.1,0,0.1,0,0,0
				C45,54,44.8,54,44.8,54z M45.3,54C45.2,54,45.2,54,45.3,54c-0.1,0-0.1,0-0.2,0c0,0-0.1,0-0.1,0c0,0-0.1,0,0,0
				C45.1,54,45.2,54,45.3,54C45.3,54,45.3,54,45.3,54C45.4,54,45.4,54,45.3,54z M45.3,53.3c0-0.1,0-0.1,0-0.2c0,0,0.1,0,0.1,0
				s0,0.1,0,0.1s0,0,0.1,0s0,0.1,0,0.1C45.4,53.3,45.3,53.3,45.3,53.3z M45.5,51.1c0,0-0.1,0.1-0.2,0.1
				C45.3,51.2,45.5,51.1,45.5,51.1z M47.1,53.5c-0.1,0-0.1-0.2,0-0.2C47.2,53.3,47.2,53.5,47.1,53.5z M46.9,53.2
				c0.1,0,0.2,0,0.2,0.1c0,0,0,0.1-0.1,0.1c0,0,0,0,0-0.1C47,53.3,47,53.2,46.9,53.2C46.9,53.2,46.9,53.2,46.9,53.2
				C46.9,53.2,46.9,53.2,46.9,53.2z M46.9,53.4C46.9,53.4,46.9,53.3,46.9,53.4C46.9,53.3,46.9,53.4,46.9,53.4
				C46.9,53.4,46.9,53.4,46.9,53.4c0,0.1,0,0.1,0,0.1C46.8,53.5,46.8,53.5,46.9,53.4C46.8,53.4,46.9,53.4,46.9,53.4z M45.8,53.2
				C45.8,53.2,45.8,53.2,45.8,53.2c0,0.1,0,0.1,0,0.1c0.1,0,0.2-0.1,0.3-0.1c0.1,0,0.1,0.2,0.2,0.2c0,0,0.1,0,0.1,0c0,0,0,0,0,0
				c0,0,0.1,0,0.1,0c0.1,0.1,0.1,0.2,0.2,0.2c0,0,0.2,0.2,0.1,0.2c-0.1,0-0.1-0.1-0.1-0.1c0,0-0.1,0-0.1,0c-0.1,0-0.1-0.1-0.2-0.1
				c-0.1,0-0.1,0.1-0.2,0c-0.1,0-0.1-0.1-0.2-0.1c-0.1,0-0.2,0-0.1-0.1c0,0,0-0.1,0-0.1c0,0,0,0,0-0.1c-0.1,0-0.1-0.1-0.2-0.1
				c0,0-0.1,0-0.1,0c0,0,0,0-0.1-0.1c0,0-0.1,0,0,0c0,0,0.1,0,0.1,0c0,0,0,0,0,0C45.5,53.1,45.6,53.1,45.8,53.2
				C45.8,53.1,45.8,53.1,45.8,53.2z M45.7,50.8C45.7,50.8,45.7,50.8,45.7,50.8C45.7,50.8,45.8,50.8,45.7,50.8c0,0.1-0.1,0.1-0.1,0.1
				c0,0,0,0,0,0.1c0,0,0,0-0.1,0c-0.1,0-0.1,0.1-0.2,0.1c0,0,0,0.1-0.1,0.1c0,0,0,0,0,0c0,0,0,0.1,0,0.1c0,0,0,0.1-0.1,0.1
				c-0.1,0,0-0.1,0.1-0.2c0,0,0,0,0,0c0,0,0-0.1,0-0.1c0-0.1,0.1-0.1,0.1-0.2c0,0,0.1,0,0.1,0c0,0-0.1-0.1-0.1-0.1s0.1-0.1,0.1-0.2
				c0,0,0-0.1,0-0.2c0,0,0-0.1,0.1-0.2c0,0,0,0.1,0,0.1c0,0,0.1,0,0.1,0c0,0,0,0.1,0,0.1C45.7,50.7,45.7,50.7,45.7,50.8z M45.7,50.3
				c0,0-0.1,0.1-0.1,0.1c0,0,0,0.1-0.1,0.1c-0.1,0,0-0.1-0.1-0.1c0,0-0.2-0.1,0-0.2c0,0,0.1,0,0.1,0C45.5,50.2,45.6,50.1,45.7,50.3
				C45.7,50.2,45.7,50.2,45.7,50.3z M45.5,49.8C45.5,49.8,45.6,49.8,45.5,49.8C45.7,49.8,45.7,49.8,45.5,49.8
				C45.6,49.8,45.5,49.8,45.5,49.8C45.5,49.8,45.5,49.8,45.5,49.8z M45.6,49.7c0,0-0.1,0-0.2,0C45.5,49.7,45.5,49.6,45.6,49.7
				C45.5,49.6,45.7,49.7,45.6,49.7z M39.6,49.6c0,0,0.1,0,0.1,0c0.1,0,0.1,0,0.1,0c0.1,0,0,0.1,0,0.1c-0.1,0-0.1,0.1-0.2,0.1
				c-0.1,0-0.1,0-0.1,0C39.5,49.7,39.6,49.6,39.6,49.6z M39.3,50.4c0-0.1,0.1-0.1,0.2-0.1c0,0,0.1,0,0.1,0c0,0.1-0.1,0.1-0.1,0.1
				c0,0.1-0.1,0.1-0.1,0.2c0,0,0,0,0,0.1c0,0,0,0-0.1,0c0,0,0,0-0.1,0c0,0,0,0-0.1,0c0,0-0.1,0-0.1,0c0,0,0-0.1,0-0.1
				c0-0.1,0.1,0,0.2-0.1C39.3,50.5,39.3,50.5,39.3,50.4z M39,50.5C39,50.5,39.1,50.4,39,50.5c0.1-0.1,0.1-0.1,0.1-0.1c0,0,0,0,0.1,0
				c0,0,0,0,0,0.1c0,0,0,0,0,0.1c0,0,0,0-0.1,0C39.1,50.5,39,50.6,39,50.5c0,0.1-0.1,0.2-0.1,0.1C38.9,50.5,39,50.5,39,50.5z
				 M39,50.8C39,50.8,38.9,50.8,39,50.8C39,50.7,39,50.7,39,50.8z M38.3,54.3c0,0,0-0.1,0-0.2c0,0-0.1,0-0.1,0c0,0,0-0.1-0.1-0.1
				c0,0-0.2,0-0.2,0s-0.1,0-0.1,0c0,0,0,0-0.1,0c0,0-0.1,0-0.1,0c0,0,0,0,0-0.1c0,0,0-0.1,0-0.1c0,0,0-0.1-0.1-0.2
				c0-0.1,0-0.2-0.1-0.2c0,0,0-0.1,0-0.1c0,0,0-0.1,0-0.1c0-0.1,0-0.2,0-0.3c0,0,0-0.2,0-0.2c0-0.1,0.1-0.2,0.2-0.3
				c0.1-0.2,0.2-0.3,0.4-0.4c0.1-0.1,0.2-0.2,0.3-0.3c0,0,0,0,0.1-0.1c0,0,0,0,0.1,0c0,0,0.1,0,0.1,0.1c0,0,0.1,0,0.1,0
				c0.1,0,0.1,0,0.2,0c0,0,0.1,0,0.1,0c0,0,0,0,0,0c0,0,0,0,0,0c0,0,0,0,0,0c0,0,0,0,0,0c0,0,0,0,0,0c0,0,0,0,0,0c0,0,0,0,0,0.1
				c0,0,0,0,0-0.1c0,0,0,0,0,0c0,0,0,0,0,0.1c0,0.1,0.2,0,0.2,0.1c0,0,0,0,0.1,0.1c0,0,0.1,0,0.1,0c0.1,0,0.1,0,0.1,0
				c0.1,0,0.1,0,0.1,0.1c0.1,0,0.1,0,0.1,0c0,0,0.1,0,0.1,0c0,0,0.1-0.1,0.1-0.1c0,0,0-0.1-0.1-0.1c0,0-0.1,0-0.1,0c0,0,0,0,0,0
				s-0.1,0-0.1,0c0,0,0,0,0,0c0,0,0,0,0,0c0,0,0-0.1,0-0.1c0,0-0.1,0-0.1,0c0,0,0,0.1,0,0.1c0,0.1-0.1,0.1-0.2,0.1
				c0-0.1,0-0.2,0-0.2s0-0.2-0.1-0.2c0,0,0,0,0,0s0,0,0,0.1c0,0,0.1,0,0.1,0.1c0,0.1,0,0.2-0.1,0.2c0,0,0,0,0-0.1
				c-0.1,0.1-0.1,0.1-0.2,0.1c0,0,0,0,0-0.1c0,0,0,0,0-0.1c0,0,0,0,0-0.1c0,0,0,0,0-0.1c0,0,0-0.1,0-0.1c0,0,0-0.1-0.1-0.1
				c0,0-0.1,0-0.1,0c0,0-0.1,0-0.1,0c0,0-0.1,0-0.1,0c0,0,0,0,0,0.1c0,0,0,0,0,0.1c0,0.1,0,0.1-0.1,0.1c0,0-0.1,0-0.2,0
				c0,0-0.1,0-0.1,0c0,0,0-0.1,0-0.1s0-0.1,0-0.1c0,0,0,0,0-0.1s0-0.1,0.1-0.1c0-0.1,0,0,0.1,0c0,0,0.1,0,0.1,0c0,0,0,0.1,0.1,0
				c0,0,0-0.1,0.1-0.1c0,0,0-0.1,0.1-0.1c0-0.1,0-0.1,0.1-0.1c0,0,0.1,0,0.1,0c0,0,0.1,0,0.1,0c0,0,0.1,0,0.1,0
				c0.1,0,0.2-0.1,0.2-0.2c0.1,0,0.1,0,0.1,0c0,0,0.1,0,0.1,0c0,0,0,0,0,0.1c0,0,0-0.1,0-0.1c0,0,0,0,0,0c0,0,0,0,0,0
				c0,0-0.1,0-0.1,0s0-0.1,0-0.1c0.1,0,0.1-0.1,0.1-0.1c0.1,0,0.1,0,0.2,0c0.1,0,0.1,0,0.2,0s0.1-0.1,0.1-0.1c0,0,0.1,0,0.1,0
				c0,0,0,0,0.1,0c0,0,0.1-0.1,0.1-0.1s0.1,0,0.2,0c0,0,0.1,0,0.1,0c0.1,0,0.2,0,0.2,0.1c0,0,0,0.1,0.1,0.1c0,0,0,0.1,0,0.1
				c0.1,0,0.1,0,0.1,0c0,0,0.1,0,0.2,0c0.1,0,0.2,0,0.3-0.1c0.1,0,0.1,0,0.1,0c0,0,0.1,0,0.1,0c0.1-0.1,0.1,0,0.1,0
				c0,0,0.1,0,0.1,0.1c0-0.1-0.1-0.1,0-0.1c0,0,0.1-0.1,0.1-0.1c0.1,0,0.2-0.1,0.3-0.2c0.1,0,0.1-0.1,0.1-0.1c0-0.1,0.1-0.1,0.1-0.1
				c0.1,0,0.1,0,0.2,0c0.1,0,0.1,0,0.2,0c0,0,0.1,0,0.1,0c0.1,0,0.1,0,0.2,0c0.1,0,0.1,0,0.2,0c0,0,0.1,0,0.1-0.1c0,0,0-0.1,0.1-0.1
				c0,0,0,0,0-0.1c0,0,0,0,0.1,0c0.1-0.1,0.1-0.1,0.2-0.1c0.1,0,0.1,0,0.1,0c0.1,0,0.2,0,0.3,0.1c0.1,0,0.1,0,0.1,0
				c0.1,0,0.1,0,0.1,0.1c0.1,0,0.2,0.1,0.3,0.2c0.1,0,0.2,0.1,0.3,0.1c0,0,0,0,0,0.1s0,0-0.1,0c-0.1,0-0.2,0-0.3,0c-0.1,0,0,0-0.1,0
				c0,0,0,0,0,0c0,0,0,0-0.1,0c0,0-0.1-0.1-0.1-0.2c-0.1,0-0.1,0.1-0.1,0.1s-0.1,0-0.1,0.1c-0.1,0-0.1,0-0.1,0.1c0,0-0.1,0.1,0,0.1
				c0,0,0.1-0.1,0.1,0c0,0,0.1,0,0.1,0c0,0,0,0,0,0c0,0,0.1,0,0.1,0.1s0.1,0,0.1,0.1c0.1,0,0.1,0.2,0.2,0.2c0,0.1,0,0.2,0,0.3
				c0,0,0,0,0,0c0,0,0,0,0,0c0,0.1,0,0.1,0,0.1C45,50.6,45,50.7,45,50.8s0,0.1,0.1,0.1c0,0,0,0.1,0,0.1c0,0-0.1,0.1-0.1,0.1
				c0,0,0,0-0.1,0c0,0,0,0,0,0c0,0,0-0.1-0.1-0.1c0,0-0.1,0-0.1-0.1s0,0-0.1,0c0,0,0,0-0.1,0c0,0,0,0.1,0,0.1c0,0,0.1-0.1,0.1,0
				c0,0,0,0.1-0.1,0.1c0.1,0.1,0.1,0.2,0.2,0.3c0,0,0,0.1,0,0.2s0,0.1-0.1,0.2c0,0-0.1,0.1-0.2,0.2c-0.1,0-0.1,0.1-0.1,0.1
				c0,0,0,0.1,0,0.1c0,0-0.1,0.1-0.1,0c0,0,0,0,0,0c0,0,0,0,0-0.1c0,0-0.1,0.1-0.1,0.1c0,0.1,0,0.1,0,0.2c0,0.1,0.1,0.2,0.1,0.3
				c0,0.1,0,0.1-0.1,0.1c0,0,0,0-0.1,0c0,0-0.1,0.1-0.1,0.1c-0.1,0-0.2-0.1-0.2-0.2c-0.1,0.1-0.1,0.1-0.1,0.2c0,0,0,0.1,0.1,0.1
				c0,0,0.1,0,0.1,0.1c0,0,0.1,0.1,0.1,0.2c0,0,0,0,0,0.1c0,0,0,0,0,0c0,0,0,0,0,0.1c-0.1,0-0.2-0.1-0.2-0.2c0,0-0.1-0.1-0.1-0.2
				c0-0.1,0-0.2-0.1-0.2c-0.1,0-0.1-0.2-0.1-0.2c-0.1,0.1-0.1,0.1-0.2,0c0,0,0-0.1,0-0.1c0,0-0.1,0-0.1,0c0,0,0,0,0,0
				c0,0,0-0.1,0-0.1c0,0-0.1,0-0.1,0c-0.1,0-0.2,0-0.2,0.1c-0.1,0.1-0.2,0.1-0.2,0.2c-0.1,0.1-0.1,0.1-0.1,0.2c0,0,0,0.1,0,0.1
				s-0.1,0-0.1,0.1s-0.1,0.1-0.1,0.2c-0.1,0-0.1-0.1-0.2-0.2C42.1,53.1,42,53,42,53s-0.1-0.2-0.1-0.3c0,0,0,0-0.1,0s-0.1,0-0.1,0
				s-0.1-0.1-0.1-0.1c0,0-0.1,0-0.1,0s-0.2,0-0.3,0.1c0,0-0.1,0-0.2,0c0,0-0.1,0-0.1-0.1c-0.1,0-0.1,0-0.1,0c0,0-0.1,0-0.1,0
				c0,0,0-0.1,0-0.1c0,0-0.1,0-0.1,0c0,0,0,0,0,0.1c0,0,0,0.1,0.1,0.1c0,0,0,0,0.1,0c0.1,0,0.2,0,0.2,0c0,0,0.1,0,0.1,0.1
				c0,0,0,0,0.1,0c0,0,0,0.1,0,0.1c0,0-0.1,0.1-0.1,0.1c0,0-0.1,0.1-0.1,0.1c-0.1,0-0.1,0-0.2,0c-0.1,0.1-0.2,0.1-0.2,0.2
				c-0.1,0-0.1,0-0.2,0.1c0,0-0.1,0-0.2,0s-0.1,0-0.1-0.1c0,0,0-0.1,0-0.2c0,0,0-0.1-0.1-0.1c0,0-0.1,0-0.1-0.1
				c-0.1-0.1-0.1-0.2-0.1-0.2c0,0,0-0.2-0.1-0.2c0,0-0.1,0-0.1,0.1c0,0,0,0.1,0,0.1c0,0,0,0.1,0,0.1c0,0,0,0,0.1,0.1
				c0,0.1,0.1,0.2,0.1,0.2c0,0,0,0.1,0,0.1c0,0,0,0,0.1,0c0,0,0.1,0.1,0.1,0.1c0.1,0,0.1,0.2,0.2,0.2c0,0,0.1,0,0.2,0
				c0.1-0.1,0.2-0.2,0.3-0.2c0.1,0,0,0.1,0,0.1c0,0.1-0.1,0.1-0.1,0.1c0,0.1-0.1,0.2-0.1,0.3c-0.2,0.2-0.3,0.3-0.5,0.5
				c-0.1,0.1-0.1,0.1-0.2,0.2c0,0,0.1,0.2,0.1,0.2c0,0.1,0,0.2,0,0.4c0,0.1,0,0.1-0.1,0.2c-0.1,0.1-0.1,0.1-0.1,0.2c0,0,0,0.1,0,0.1
				s0,0,0,0c0.1,0.1,0,0.2-0.1,0.2c0,0-0.1,0-0.1,0.1c0,0.1,0,0.2-0.1,0.3c-0.1,0.1-0.2,0.1-0.3,0.2c0,0-0.1,0.1-0.1,0.1
				c0,0-0.1,0-0.1,0c0-0.1-0.1-0.2-0.1-0.2c-0.1-0.2-0.2-0.3-0.2-0.5c0,0,0-0.1-0.1-0.2c0,0-0.1-0.1-0.1-0.1c0,0,0,0,0-0.1
				c0,0,0-0.1,0-0.1s0-0.1,0-0.1c0-0.1-0.1-0.2-0.1-0.2c0-0.1,0-0.2-0.1-0.2C38.3,54.4,38.3,54.4,38.3,54.3z M48.1,59.2
				c0.2-0.1,0.5-0.1,0.6-0.3c-0.1,0-0.2,0-0.3,0.1c0,0-0.1,0-0.1,0c0,0-0.1,0-0.1,0c-0.1,0-0.1,0-0.2,0c0,0-0.1,0-0.1,0
				c-0.1,0-0.2,0.1-0.3,0.1c-0.2,0.1-0.4,0.1-0.5,0.1c-0.1,0-0.2,0-0.3,0c-0.1,0-0.2,0.1-0.3,0c0.1,0,0.2-0.1,0.3-0.1
				c0.1,0,0.2-0.1,0.3-0.1c0.2-0.1,0.5-0.2,0.7-0.3c0.2-0.1,0.4-0.2,0.7-0.3c0.1,0,0.2,0,0.3,0c0.1,0,0.3,0,0.5-0.1
				c0.2,0,0.4-0.2,0.6-0.3c0.2,0,0.2-0.1,0.4-0.1c0.1,0,0.1,0,0.2,0c0,0,0,0,0.1,0c0,0,0.1,0.1,0.1,0.1c0,0,0,0.1-0.1,0.1
				c0,0-0.1,0-0.1,0c0,0-0.1,0.1-0.1,0.1c-0.1,0.1-0.2,0.2-0.3,0.3c-0.2,0.1-0.3,0.3-0.4,0.4c-0.1,0.1-0.2,0.1-0.2,0.2
				c-0.1,0-0.2,0.1-0.3,0.2c-0.2,0.1-0.5,0.2-0.7,0.2c-0.2,0-0.4,0.1-0.7,0.1c-0.2,0-0.3,0-0.5,0c-0.2,0-0.3,0-0.5-0.1
				c-0.2,0-0.4-0.1-0.5-0.1c0.2,0,0.5,0,0.7,0c0.2,0,0.5-0.1,0.8-0.1c0.1,0,0.2-0.1,0.3-0.1C47.8,59.3,48,59.2,48.1,59.2z M43,46.5
				c-1.2,0.2-2.4,0.3-3.4,0.5c1.4-1.1,3.5-1.9,5.8-2.2c2.3-0.3,4.3,0,5.8,0.7c-0.1,0-0.1,0-0.2,0c-1.1,0.2-2.4,0.3-3.7,0.5
				C45.9,46.1,44.4,46.3,43,46.5z M44.4,62.5c0.2,0,0.3,0,0.5,0.1c-6,0.7-9.1-3-9.1-7.5c0-1.5,0.4-3,1.1-4.4c0,0.6,0,1.2,0,1.8
				c0,1,0,2,0,2.9c0,0.2,0,0.5,0,0.7c0,0.6,0.1,1.2,0.2,1.7c0.3,1,0.9,2,1.7,2.7c0.7,0.7,1.7,1.2,2.8,1.6
				C42.5,62.2,43.4,62.4,44.4,62.5z M40.5,51.6c0,0,0,0,0,0.1s-0.2,0-0.2,0c0,0-0.1,0-0.1,0c0,0,0-0.1,0.1-0.1c0,0,0.1-0.1,0.1,0
				c0,0,0,0,0,0C40.3,51.5,40.3,51.5,40.5,51.6C40.4,51.5,40.4,51.5,40.5,51.6z M58.4,46.1c-0.8,0.8-1.2,1.1-1.9,1.9
				c0,0.1,0,0.1,0,0.2c-0.1,0-0.1,0-0.2,0.1c-0.3-0.5-0.5-0.7-0.8-1.2c0.1,0,0.1,0,0.2-0.1c0.1,0.1,0.2,0.2,0.3,0.3
				c0.2-0.2,0.2-0.2,0.4-0.4c-0.2-0.2-0.3-0.3-0.5-0.6c-0.2,0.1-0.3,0.1-0.6,0.2c0,0.1,0.1,0.1,0.1,0.2c-0.1,0-0.1,0.1-0.1,0.1
				c-0.2-0.2-0.3-0.3-0.5-0.4c0.1,0,0.1-0.1,0.1-0.1c0.1,0.1,0.1,0.1,0.2,0.2c1-0.3,1.6-0.5,2.8-0.8C58.1,45.8,58.2,45.9,58.4,46.1z
				 M56,51.7c-0.2,5.3-5.1,10.2-10.5,11c-6.3,1-9.9-2.9-9.9-7.7c0-1.7,0.5-3.4,1.3-4.9c0-0.4,0-0.7,0-1.1c0-0.5,0-1,0-1.5
				c0.2,0,0.4-0.1,0.6-0.1c0.6-0.1,1.1-0.2,1.7-0.3c1.5-1.3,3.7-2.2,6.2-2.5c2.5-0.3,4.7,0,6.2,0.8c0.5-0.1,1-0.2,1.6-0.3
				c0,0,0,0,0,0c0,0,0.1,0,0.1,0c0.1,0,0.1,0,0.2,0c0.1,0,0.2,0,0.3-0.1c0.1,0,0.2,0,0.4-0.1c0,0.3,0,0.6,0,0.9c0,0.6,0,1.2,0,1.8
				C55.2,48.6,56,50.1,56,51.7z M54.8,43.4c0.3,0.2,0.5,0.3,0.9,0.5c-0.1,0.6-0.1,0.8-0.2,1.4c0.4-0.3,0.5-0.4,0.9-0.7
				c-0.1-0.1-0.1-0.1-0.2-0.2c0.1-0.1,0.1-0.1,0.2-0.1c0.2,0.2,0.4,0.3,0.6,0.5c-0.1,0.1-0.1,0.1-0.2,0.1c-0.1-0.1-0.1-0.1-0.2-0.2
				c-0.8,0.6-1.3,0.9-2,1.4c-0.1-0.1-0.2-0.1-0.3-0.2c0-0.1,0-0.1,0-0.2c0.1-0.6,0.1-0.9,0.2-1.5c-0.2,0.2-0.3,0.3-0.6,0.6
				c-0.1,0-0.2,0-0.3,0.1c0.5-0.5,0.7-0.7,1.2-1.2c-0.1-0.1-0.1-0.1-0.2-0.2C54.7,43.4,54.8,43.4,54.8,43.4z M52.9,42.4
				c0.3,0.2,0.5,0.3,0.9,0.4c0,0,0.6,0.4,0.1,1.2c-0.3,0.5-1,0.8-1.5,0.6c-0.1,0-0.7-0.5-0.7-0.5s-0.4-0.2-0.3-0.8
				C51.6,42.9,51.9,42.3,52.9,42.4z M50.7,41.7c0,0,1.2,0.3,1.2,0.3c0,0,0,0.2,0,0.2c-0.1,0-0.1,0-0.2-0.1c-0.3,0.6-0.4,1-0.7,1.6
				c0.1,0,0.1,0.1,0.2,0.1c0,0.1,0,0.1-0.1,0.2c0,0-1.2-0.4-1.3-0.3c0-0.1,0-0.1,0-0.1c0.1,0,0.2,0,0.3,0c0.3-0.7,0.5-1,0.8-1.6
				c-0.1,0-0.1-0.1-0.2-0.1C50.7,41.7,50.7,41.7,50.7,41.7z M47.8,41.4c0,0,1.7,0,2.6,0.2c-0.1,0.2-0.1,0.3-0.2,0.5
				c-0.1,0-0.1,0-0.2,0c0-0.1,0-0.1,0.1-0.2c0,0-0.5-0.2-0.5-0.2c0,0-0.5,1.6-0.5,1.6c0.1,0,0.2,0,0.3,0c0,0.1,0,0.1,0,0.2
				c0,0-1.4-0.2-1.5-0.2c0-0.1,0-0.1,0-0.1c0.1,0,0.2,0,0.3,0c0.2-0.6,0.3-1,0.5-1.6c-0.3,0-0.4,0-0.7,0.1c0,0.1,0,0.1-0.1,0.2
				c-0.1,0-0.1,0-0.2,0C47.6,41.8,47.7,41.4,47.8,41.4z M44.4,43.5c0.4-0.8,0.6-1.2,1.1-2c0.3,0,0.5,0,0.8-0.1
				c0.4,0.7,0.6,1.1,1,1.8c0.1,0,0.1,0,0.2,0c0,0.1,0,0.1,0,0.2c0,0-1.4,0-1.6,0.1c0-0.1,0-0.1,0-0.2c0.1,0,0.2,0,0.3-0.1
				C46,43.1,46,43,45.9,42.8c-0.4,0.1-0.6,0.1-1,0.2c-0.1,0.2-0.1,0.3-0.2,0.4c0.1,0,0.1,0,0.2,0c0,0.1,0,0.1,0,0.2
				c0,0-0.7,0.1-0.8,0.1c0-0.1,0-0.1,0-0.2C44.3,43.5,44.3,43.5,44.4,43.5z M42.1,42.3c0.5,0.3,0.8,0.5,1.4,0.8c0-0.4-0.1-0.6-0.1-1
				c-0.1,0-0.2,0-0.3,0.1c0,0,0-0.1,0-0.1c0.3-0.1,0.5-0.1,0.9-0.2c0,0.1,0,0.1,0,0.2c-0.1,0-0.2,0.1-0.3,0.1c0.1,0.7,0.2,1,0.3,1.8
				c-0.3,0.1-0.5,0.1-0.8,0.2c-0.5-0.3-0.8-0.5-1.3-0.9c0.1,0.4,0.2,0.6,0.3,1c0.1,0,0.1,0,0.2-0.1c0,0.1,0,0.1,0,0.2
				c-0.3,0.1-0.4,0.2-0.7,0.3c0,0,0-0.1-0.1-0.1c0.1,0,0.2,0,0.3-0.1c-0.2-0.6-0.3-0.9-0.5-1.5c-0.1,0-0.1,0-0.2,0.1
				c0-0.1,0-0.1-0.1-0.2C41.4,42.5,41.6,42.4,42.1,42.3z M39.8,43.2c0.5-0.1,1,0.4,0.4,0.9c0,0,0.1,0,0.2,0s0.3,0.1,0.3,0.1
				c0,0,0.2,0.2,0.2,0.2c0,0,0.1,0.1,0.2,0.1c0.1,0,0.2,0,0.2,0c0,0,0,0,0,0c0,0.1,0,0.1,0.1,0.2c-0.2,0.1-0.4,0.2-0.6,0.3
				c0,0-0.3,0.1-0.3,0.1c0,0-0.2,0-0.2,0c-0.1-0.1-0.3-0.5-0.3-0.5s-0.1,0-0.1,0c-0.1,0-0.2,0.1-0.2,0.1c-0.1,0.1-0.2,0.1-0.3,0.2
				c0.1,0.2,0.2,0.3,0.4,0.6c0,0,0,0,0.1,0c0.1,0,0.1-0.1,0.1-0.1c0,0.1,0,0.1,0.1,0.2c-0.5,0.3-0.7,0.5-1.1,0.8c0,0-0.1,0-0.1-0.1
				c0.1-0.1,0.1-0.1,0.2-0.2c-0.3-0.5-0.5-0.8-0.8-1.3c-0.1,0.1-0.1,0.1-0.2,0.1c0,0-0.1,0-0.1-0.1C38,44.6,39.4,43.4,39.8,43.2z
				 M37.7,44.8c0.1,0.1,0.2,0.2,0.2,0.3c0,0-0.1,0.1-0.1,0.1c0,0-0.1-0.1-0.1-0.1c0,0-0.3,0.2-0.7,0.6c0.2,0.2,0.3,0.3,0.5,0.5
				c0,0,0.2-0.2,0.2-0.3c0,0-0.1,0-0.1-0.1c0,0,0.1-0.1,0.1-0.1c0.1,0.2,0.2,0.2,0.3,0.4c0,0-0.1,0.1-0.1,0.1c0,0-0.1-0.1-0.1-0.1
				c-0.1,0.1-0.1,0.1-0.2,0.2c0,0,0,0,0,0c0,0,0.5,0.4,0.5,0.4s0,0,0,0c0,0,0.4-0.5,0.4-0.6c0,0,0,0-0.1-0.1s0,0,0,0
				c0,0,0.1-0.1,0.1-0.1c0.1,0.2,0.2,0.2,0.3,0.4c-0.4,0.4-0.5,0.5-0.9,0.9c-0.2,0-0.4,0.1-0.6,0.1c-0.4-0.3-0.5-0.5-0.9-0.9
				c-0.1,0.1-0.1,0.1-0.2,0.2c0,0-0.1,0-0.1-0.1C36.1,46.5,37.5,44.9,37.7,44.8z M36,46.7c0.1,0.1,0.2,0.2,0.3,0.3
				c0,0.1-0.1,0.1-0.1,0.2c0,0-0.1,0-0.1-0.1c0,0-0.3,0.2-0.4,0.4c0.5,0.3,0.7,0.5,1.2,0.8c0,0.2,0,0.2,0,0.4
				c-0.2,0.2-0.2,0.4-0.4,0.6c0,0-0.1,0-0.1-0.1c0-0.1,0.1-0.1,0.1-0.2c-0.5-0.3-0.8-0.5-1.2-0.8c0,0-0.2,0.3-0.2,0.6
				c0,0,0.1,0.1,0.1,0.1c0,0,0,0.1-0.1,0.1c-0.2-0.1-0.2-0.1-0.4-0.2C34.6,48.6,35.8,46.9,36,46.7z M33.8,50.4
				c0.6-0.2,0.9-0.3,1.5-0.4c-0.4-0.2-0.6-0.2-1-0.4c0,0.1-0.1,0.1-0.1,0.2c0,0-0.1,0-0.1-0.1c0.1-0.3,0.2-0.4,0.3-0.7
				c0,0,0.1,0,0.1,0.1c0,0.1-0.1,0.1-0.1,0.2c0.6,0.3,1,0.4,1.6,0.6c-0.1,0.3-0.2,0.4-0.3,0.7c-0.6,0.2-0.9,0.2-1.4,0.4
				c0.4,0.1,0.6,0.2,1,0.2c0-0.1,0.1-0.1,0.1-0.2c0,0,0.1,0,0.1,0.1c-0.1,0.3-0.1,0.4-0.2,0.7c0,0-0.1,0-0.1,0c0-0.1,0-0.1,0.1-0.2
				c-0.6-0.2-0.9-0.2-1.5-0.4c0,0.1-0.1,0.2-0.1,0.3c0,0-0.1,0-0.1-0.1C33.5,51,33.6,50.8,33.8,50.4z M33.3,51.8c0,0,0.1,0,0.1,0
				c0,0.1,0,0.1,0,0.2c0.6,0.1,1,0.1,1.6,0.2c0-0.1,0-0.1,0.1-0.2c0,0,0.1,0,0.1,0c-0.1,0.5-0.2,0.8-0.3,1.3c-0.1,0-0.1,0-0.2,0
				c0-0.1,0-0.2,0-0.2c-0.6-0.1-1-0.1-1.6-0.2c0,0.1,0,0.2,0,0.2c-0.1,0-0.1,0-0.2,0C33.1,52.6,33.1,52.3,33.3,51.8z M33.5,55
				c0.1-0.2,0.1-0.4,0.2-0.6c0.1,0.2,0.1,0.3,0.2,0.6c0.2,0,0.4,0,0.6-0.1c-0.2,0.2-0.3,0.3-0.5,0.5c0.1,0.2,0.1,0.3,0.2,0.5
				c-0.2-0.1-0.3-0.2-0.5-0.3c-0.2,0.2-0.3,0.3-0.5,0.5c0.1-0.2,0.1-0.4,0.2-0.6c-0.2-0.1-0.3-0.2-0.5-0.3C33.2,55,33.3,55,33.5,55z
				 M33.6,59.7c-0.2-0.5-0.2-0.7-0.4-1.1c0,0,0.1,0,0.1-0.1c0,0.1,0.1,0.1,0.1,0.2c0.4-0.2,0.6-0.3,1-0.5c-0.5,0-0.8,0-1.3,0.1
				c0-0.2-0.1-0.2-0.1-0.4c0.5-0.3,0.7-0.5,1.2-0.9c-0.4,0.1-0.7,0.2-1.1,0.3c0,0.1,0,0.1,0,0.2c0,0-0.1,0-0.1,0.1
				c0-0.3-0.1-0.4-0.1-0.7c0,0,0.1,0,0.1,0c0,0.1,0,0.1,0,0.2c0.7-0.2,1-0.3,1.6-0.5c0-0.1,0-0.2,0-0.3c0.1,0,0.1,0,0.2,0
				c0,0,0.1,0.9,0.2,1c0,0-0.8,0.7-0.8,0.7c0.4,0,0.6,0,1,0c0.1,0.3,0.2,0.5,0.3,0.8c0,0-0.1,0.1-0.1,0.1c0-0.1-0.1-0.1-0.1-0.2
				c-0.6,0.3-0.9,0.5-1.5,0.8c0,0.1,0,0.1,0.1,0.2C33.7,59.7,33.6,59.7,33.6,59.7z M34.4,61.2c-0.1-0.1-0.4-0.7-0.4-0.7
				s-0.2-0.4,0.1-0.9c0.2-0.3,0.8-0.8,1.5-0.3c0.2,0.3,0.3,0.5,0.4,0.7c0,0,0.2,0.6-0.3,1.1C35.4,61.5,34.7,61.5,34.4,61.2z
				 M35.8,62.9c0.1-0.6,0.2-1,0.3-1.6c-0.3,0.3-0.5,0.5-0.9,0.8c0.1,0.1,0.1,0.1,0.2,0.2c0,0-0.1,0.1-0.1,0.1
				c-0.2-0.2-0.3-0.3-0.4-0.5c0,0,0.1-0.1,0.1-0.1c0.1,0.1,0.1,0.1,0.2,0.2c0.5-0.5,0.8-0.7,1.3-1.2c0,0-0.1-0.1-0.1-0.1
				c0,0,0.1-0.1,0.1-0.1c0.2,0.2,0.3,0.3,0.5,0.5c-0.1,0.6-0.2,1-0.3,1.6c0.3-0.3,0.5-0.5,0.8-0.9c0-0.1-0.1-0.1-0.1-0.2
				c0,0,0.1-0.1,0.1-0.1c0.2,0.1,0.2,0.2,0.4,0.4c0,0.1,0,0.1-0.1,0.1c0,0-0.1-0.1-0.1-0.1c-0.5,0.6-0.7,0.8-1.2,1.4
				C36.2,63.2,36,63.1,35.8,62.9z M38.5,62.8c-0.2,0.2-0.3,0.4-0.4,0.6c0.1,0.1,0.1,0.1,0.2,0.2c0,0,0.1-0.1,0.1-0.1
				c0,0,0.1,0,0.1,0.1c-0.1,0.2-0.2,0.3-0.2,0.4c0,0-0.1,0-0.1,0c0-0.1,0.1-0.1,0.1-0.2c-0.1-0.1-0.1-0.1-0.2-0.2
				c-0.2,0.2-0.3,0.3-0.5,0.6c0,0,0.3,0.3,0.6,0.3c0-0.1,0.1-0.1,0.1-0.2c0.1,0,0.1,0.1,0.2,0.1c-0.1,0.2-0.2,0.2-0.2,0.4
				c0,0-1.3-0.9-1.5-1.1c0,0,0-0.1,0.1-0.1c0.1,0,0.1,0.1,0.2,0.1c0.4-0.5,0.6-0.8,1-1.4c0,0-0.1-0.1-0.1-0.1c0-0.1,0-0.1,0.1-0.1
				c0,0,0.7,0.7,1.4,1c-0.1,0.2-0.2,0.3-0.3,0.5c0,0-0.1,0-0.1-0.1c0-0.1,0.1-0.1,0.1-0.2C39,63.2,38.8,62.8,38.5,62.8z M40.3,65.6
				c-0.5-0.2-0.8-0.2-1.3-0.4c0-0.1,0-0.1,0-0.1c0.1,0,0.2,0.1,0.2,0.1c0.3-0.6,0.4-0.9,0.7-1.6c0,0-0.4-0.1-0.5,0
				c0,0-0.1,0.1-0.1,0.1c-0.1,0-0.1,0-0.1-0.1c0.1-0.2,0.1-0.3,0.2-0.5c0,0,1.4,0.6,2.2,0.7c-0.1,0.2-0.1,0.3-0.2,0.5
				c-0.1,0-0.1,0-0.2,0c0-0.1,0-0.1,0.1-0.2c0,0-0.4-0.2-0.5-0.2c-0.3,0.7-0.5,1-0.8,1.6c0.1,0,0.1,0,0.2,0.1
				C40.3,65.5,40.3,65.5,40.3,65.6z M43.7,65.8c0,0-1.5,0-1.7,0c0,0,0-0.1,0-0.1c0.2,0,0.2,0,0.4,0c0-0.2,0-0.2-0.1-0.4
				c-0.4,0-0.6,0-1-0.1c-0.1,0.2-0.2,0.2-0.3,0.4c0.1,0,0.1,0,0.2,0.1c0,0.1-0.1,0.1-0.1,0.1c-0.3-0.1-0.4-0.1-0.7-0.1
				c0-0.1,0-0.1,0.1-0.1c0.1,0,0.1,0,0.2,0c0.5-0.7,0.8-1,1.4-1.7c0.4,0,0.5,0,0.9,0.1c0.2,0.7,0.3,1.1,0.5,1.8c0.1,0,0.1,0,0.2,0
				C43.7,65.7,43.7,65.8,43.7,65.8z M46.2,65.5c-0.1,0-0.2-0.1-0.2-0.1c0,0,0-0.6,0-0.6s-0.1-0.1-0.1-0.1c0,0-0.5,0.1-0.5,0.1
				c0,0.3,0,0.4,0,0.7c0.1,0,0.1,0,0.2,0c0,0.1,0,0.1,0,0.2c0,0-1.5,0.2-1.5,0.2c0,0,0-0.2,0-0.2c0.1,0,0.1,0,0.2,0
				c0-0.7,0.1-1,0.1-1.6c-0.1,0-0.1,0-0.2,0c0-0.1,0-0.1,0-0.2c0,0,1.6-0.2,2.2-0.3c0,0,0.2,0,0.3,0c0.1,0,0.5,0.1,0.5,0.4
				s-0.5,0.6-0.5,0.6s0.4,0.1,0.4,0.4c0,0.1,0,0.1,0,0.1s0,0,0,0c0.1,0,0.3,0,0.3,0c0,0,0,0,0,0c0,0.1,0,0.1,0.1,0.2
				C47.3,65.2,46.2,65.4,46.2,65.5z M50,62.4c-0.2,0.5-0.3,0.7-0.5,1.2c0.1,0.3,0.1,0.4,0.2,0.7c0.1,0,0.2,0,0.2-0.1
				c0,0.1,0,0.1,0.1,0.1c-0.6,0.2-0.8,0.3-1.5,0.5c0,0,0-0.1-0.1-0.1c0.1-0.1,0.2-0.1,0.3-0.1c-0.1-0.3-0.1-0.4-0.2-0.7
				c-0.5-0.2-0.7-0.3-1.2-0.5c-0.1,0-0.1,0-0.2,0.1c0-0.1,0-0.1,0-0.2c0.7-0.2,1-0.3,1.6-0.5c0,0,0.1,0.1,0.1,0.1c0,0-0.2,0-0.2,0.1
				c0,0,0.7,0.3,0.7,0.3s0.4-0.8,0.4-0.9c-0.1,0-0.1,0-0.2,0.1c0,0,0-0.1-0.1-0.1c0.3-0.1,0.4-0.2,0.7-0.3c0,0,0,0,0.1,0.1
				C50.1,62.3,50,62.3,50,62.4z M52.3,62.9c0,0-0.1-0.1-0.1-0.1c0.1-0.1,0.1-0.1,0.2-0.2c-0.3-0.5-0.5-0.8-0.8-1.3
				c-0.1,0.1-0.2,0.1-0.2,0.2c0,0,0-0.1,0-0.1c0,0,1.3-1,1.5-1.3c0.1,0.1,0.2,0.2,0.3,0.3c-0.1,0.1-0.1,0.1-0.1,0.2
				c-0.1,0-0.1-0.1-0.2-0.1c0,0-0.4,0.2-0.6,0.4c0.2,0.2,0.2,0.3,0.4,0.6c0.1-0.1,0.1-0.1,0.2-0.2c0-0.1,0-0.1-0.1-0.2
				c0.1,0,0.1-0.1,0.2-0.1c0.1,0.1,0.2,0.2,0.3,0.3c-0.1,0.1-0.1,0.1-0.2,0.2c0,0-0.1-0.1-0.1-0.1c-0.1,0.1-0.2,0.1-0.3,0.2
				c0.2,0.2,0.2,0.3,0.4,0.6c0.1-0.1,0.1-0.1,0.2-0.2c0,0,0.1,0.1,0.1,0.1C52.9,62.4,52.7,62.6,52.3,62.9z M56,59.6
				c-0.1,0.1-0.8,0.8-0.8,0.8s-0.3,0.2-0.5,0.3c-0.1,0-0.4,0-0.5-0.1c-0.1,0-1.1-0.7-1.1-0.7C53.1,59.9,53.1,60,53,60
				c0,0,0-0.1-0.1-0.1c0.3-0.4,0.5-0.6,0.9-1c0.1,0,0.1,0.1,0.2,0.1c-0.1,0.1-0.1,0.1-0.2,0.2c0.4,0.3,0.6,0.4,1.1,0.7
				c0,0,0.3,0.1,0.5-0.1c0.2-0.2,0.4-0.3,0.4-0.5c-0.1-0.2-0.2-0.2-0.2-0.2c-0.1,0-1.2-0.6-1.2-0.6c-0.1,0.1-0.1,0.1-0.2,0.2
				c-0.1,0-0.1-0.1-0.2-0.1c0.2-0.2,0.3-0.3,0.5-0.6c0.1,0,0.1,0,0.2,0.1c-0.1,0.1-0.1,0.1-0.1,0.2c0.5,0.2,0.7,0.3,1.2,0.6
				c0,0,0.3,0.3,0.3,0.5C56.1,59.5,56,59.6,56,59.6z M58.2,56.9c-1,0.3-1.4,0.4-2.3,0.7c0.5,0.2,0.7,0.3,1.2,0.4
				c0.1-0.1,0.1-0.2,0.2-0.3c0.1,0,0.1,0,0.2,0c-0.2,0.3-0.3,0.4-0.6,0.7c-0.1,0-0.1,0-0.2,0c0.1-0.1,0.1-0.2,0.2-0.2
				c-0.8-0.2-1.2-0.3-1.9-0.6c-0.1,0.1-0.1,0.1-0.2,0.2c-0.1,0-0.1,0-0.1,0c0.2-0.3,0.3-0.5,0.5-0.8c0.9-0.3,1.3-0.5,2.3-0.8
				c-0.6-0.1-0.8-0.1-1.4-0.2C56,56.2,56,56.2,56,56.3c-0.1,0-0.1,0-0.2,0c0.2-0.2,0.2-0.4,0.4-0.6c0.1,0,0.1,0,0.2,0
				c0,0.1-0.1,0.1-0.1,0.2c0.9,0.1,1.4,0.2,2.4,0.3C58.5,56.5,58.4,56.6,58.2,56.9z M59,55.6c-0.1,0-0.2,0-0.2,0
				c0-0.1,0.1-0.2,0.1-0.3c-0.9,0-1.4-0.1-2.3-0.1c0,0.1-0.1,0.1-0.1,0.2c-0.1,0-0.1,0-0.2,0c0.2-0.7,0.4-1,0.7-1.7
				c0,0,0.5-0.8,1.5-0.8c0.9,0,1.3,0.5,1.3,0.8C59.7,54.1,59,55.6,59,55.6z M59.1,51.3c0.1,0.2,0.2,0.3,0.3,0.5
				c-0.3-0.1-0.5-0.2-0.8-0.2c-0.3,0.2-0.5,0.3-0.8,0.5c0.1-0.3,0.2-0.4,0.3-0.7c-0.3-0.1-0.4-0.2-0.7-0.2c0.4-0.1,0.5-0.1,0.9-0.2
				c0.1-0.3,0.2-0.4,0.3-0.6c0.1,0.2,0.2,0.3,0.2,0.5c0.4-0.1,0.6-0.1,0.9-0.2C59.6,51,59.4,51.1,59.1,51.3z M59.6,48.7
				c0-0.1-0.1-0.2-0.1-0.2c-1,0.3-1.5,0.5-2.4,0.8c0,0,0.1,0.5,0.3,0.5c0.1,0,0.2,0,0.4-0.1c0,0.1,0,0.1,0,0.2
				c-0.3,0.1-0.4,0.1-0.7,0.2c0,0-0.4-1.6-0.6-1.7c0.1,0,0.1,0,0.2-0.1c0.1,0.1,0.1,0.1,0.2,0.2c0.9-0.3,1.4-0.5,2.4-0.8
				c0-0.1,0-0.2-0.1-0.2c0.1,0,0.1,0,0.2-0.1c0.2,0.5,0.3,0.7,0.5,1.2C59.8,48.7,59.7,48.7,59.6,48.7z M45.9,63.8
				C45.9,63.8,45.9,63.8,45.9,63.8c0.1,0.1,0.1,0.6,0.1,0.6s0,0.1-0.1,0.1c-0.1,0-0.5,0.1-0.5,0.1c0-0.3,0-0.4,0.1-0.8
				C45.6,63.8,45.7,63.8,45.9,63.8z M56.6,46.7c-0.2-0.2-0.2-0.3-0.4-0.5c0.5-0.1,0.7-0.2,1.2-0.3C57,46.2,56.9,46.4,56.6,46.7z
				 M35.8,60.2c0,0-0.4,0.3-0.9,0.7c0,0-0.2,0.2-0.4,0c0,0-0.1-0.1-0.1-0.2c0,0,0-0.1,0-0.2c0-0.1,0-0.2,0.2-0.3
				c0.1-0.1,0.7-0.5,0.7-0.5s0.2-0.2,0.3-0.1c0.1,0,0.2,0,0.2,0c0,0,0.1,0.1,0.1,0.1S35.9,60,35.8,60.2z M42.1,64.3
				c0.1,0.3,0.1,0.5,0.2,0.8c-0.4,0-0.5-0.1-0.9-0.1C41.7,64.8,41.8,64.6,42.1,64.3z M59.3,53.9c0.2,0,0.2,0.1,0.2,0.1
				c-0.1,0.2-0.1,0.3-0.2,0.4c0,0-2.4-0.1-2.4-0.1c0,0,0-0.2,0.1-0.3c0.1-0.2,0.3-0.1,0.3-0.1S59,53.9,59.3,53.9z"/>
		</g>
	</g>
</g>
</svg>
