<svg xmlns="http://www.w3.org/2000/svg" width="42.024" height="39.695" viewBox="0 0 42.024 39.695"><defs><style>.a{fill:#2845ae;}.a,.b{fill-rule:evenodd;}.b{fill:#5493f7;}</style></defs><g transform="translate(0 -0.366)"><path class="a" d="M12.534,32.626c1.151,4.277,5.282,7.544,7.367,7.409a19.518,19.518,0,0,0,12.2-8.676c3.341-5.6,2.2-11.017-2.341-11.135-1.633.121-19.425,4.25-17.23,12.4M29.343,5.142h-.006l.008-.006A19.87,19.87,0,0,0,8.334,2.09a11.8,11.8,0,0,0-1.264.622c-.278.149-.559.3-.832.46l.069.022a9.089,9.089,0,0,0-2.1,2C-1.521,12.787,17.657,18.307,27.91,18.326c4.718,3.4,6.043-9.579,1.432-13.181" transform="translate(5.539 0)"/><path class="b" d="M13.646,4.232C11.013,8.206,2.238,11.013.8,10.575l-.008-.019L.966,10.2A21.211,21.211,0,0,1,8.9,1.751,6.149,6.149,0,0,1,11.8.974c3.911.074,1.867,3.225,1.845,3.258" transform="translate(1.381 1.067)"/><g transform="translate(0 13.658)"><path class="b" d="M12.868,20.039a30.585,30.585,0,0,1-.259,6.6c-.22.014-.678.041-2-.7a20.929,20.929,0,0,1-4.453-3.418A20.967,20.967,0,0,1,2.342,17.3,21.249,21.249,0,0,1,1.292.3V.292c1.515,2.024,3.269,3.856,4.759,5.9,1.418,1.947,3.371,5.117,3.768,5.795a20.877,20.877,0,0,1,3.049,8.053" transform="translate(0 -0.292)"/></g><path class="b" d="M34.8,18.666a21.1,21.1,0,0,1-1.462,7.75c-2.473,2.672-19.161-3.9-19.323-3.974-2.289-1.008-9.229-4.065-9.857-8.863-.9-6.907,13.049-11.722,19.183-11.9.735.008,2.972.033,4.274,1.1A21.091,21.091,0,0,1,34.8,18.666" transform="translate(7.222 2.298)"/><g transform="translate(27.343 31.023)"><path class="b" d="M3.477,8.67c-1.818.854-3.82.234-3.3-1.548C1.177,3.707,9.9.2,11.825.013c.237-.022.339.138.231.325A21.273,21.273,0,0,1,3.477,8.67" transform="translate(-0.094 -0.011)"/></g></g></svg>