<svg xmlns="http://www.w3.org/2000/svg" viewBox="0 0 22 22">
  <path d="M18.408 5.618l.082.02 2.888.957a.5.5 0 01-.226.97l-.088-.02-1.714-.569.029.063a9.04 9.04 0 01.737 3.255l.006.34a9.133 9.133 0 01-9.134 9.134 9.077 9.077 0 01-4.785-1.363.5.5 0 01.526-.851 8.078 8.078 0 004.259 1.215 8.133 8.133 0 008.134-8.134c0-1.521-.425-2.982-1.214-4.26a.5.5 0 01.5-.757zm-7.712-.798a.5.5 0 01.492.41l.008.09v.866l.093.003c1.299.071 2.483.706 3.284 1.73a.5.5 0 11-.787.616 3.473 3.473 0 00-2.742-1.353 3.501 3.501 0 000 7.002 3.476 3.476 0 002.743-1.352.5.5 0 01.786.617 4.478 4.478 0 01-3.376 1.733v1.03a.5.5 0 01-.992.09l-.008-.09v-1.107a4.503 4.503 0 010-8.843V5.32a.5.5 0 01.5-.5zm.293-3.32c1.706 0 3.347.478 4.784 1.364a.5.5 0 11-.526.852A8.078 8.078 0 0010.99 2.5a8.135 8.135 0 00-8.135 8.135c0 1.52.425 2.98 1.215 4.26a.5.5 0 01-.502.757l-.082-.02-2.893-.966a.5.5 0 01.228-.97l.088.022 1.716.572-.027-.06a9.043 9.043 0 01-.737-3.254l-.006-.341A9.135 9.135 0 0110.989 1.5z"/>
</svg>
