<svg xmlns="http://www.w3.org/2000/svg" viewBox="0 0 22 22">
  <path d="M3 2.25a.75.75 0 01.743.648L3.75 3v14.685h15.889a.75.75 0 01.743.648l.007.102a.75.75 0 01-.648.743l-.102.007H3a.75.75 0 01-.743-.648l-.007-.102V3A.75.75 0 013 2.25zm16.366 2.743l.06.019c.056.02.108.048.157.08.17.112.296.293.326.52l.006.104v2.653a.75.75 0 01-1.493.101l-.007-.101v-.844l-5.35 5.352a.75.75 0 01-.92.11l-.093-.067-2.315-1.951-3.52 3.523a.75.75 0 01-.977.073l-.084-.073a.75.75 0 01-.073-.977l.073-.084 4.008-4.009a.75.75 0 01.92-.11l.094.067 2.314 1.95 4.863-4.864h-.809a.75.75 0 01-.101-1.493l.101-.007h2.609a.76.76 0 01.21.028z"/>
</svg>
