<svg xmlns="http://www.w3.org/2000/svg" viewBox="0 0 20 20">
  <path d="M10.026 3c1.141 0 2.076.886 2.156 2.007l.005.154-.001 1.007 4.725.001a2.16 2.16 0 012.154 2.007l.006.154v4.099a2.16 2.16 0 01-2.006 2.156l-.154.005h-.083v2.106c0 .614-.7.94-1.167.586l-.08-.07-2.622-2.622h-2.547a2.162 2.162 0 01-2.156-2.007l-.005-.154-.001-1.009H7.113l-2.515 2.517c-.45.448-1.183.209-1.33-.356l-.019-.103-.006-.103-.001-1.955-.081.001a2.162 2.162 0 01-2.14-1.855l-.016-.152L1 9.26V5.161c0-1.141.886-2.076 2.007-2.156L3.16 3h6.865zm2.161 6.26a2.162 2.162 0 01-2.007 2.156l-.154.005H9.25v1.008c0 .598.454 1.091 1.035 1.154l.127.007h2.96l2.456 2.455V13.59h1.083a1.16 1.16 0 001.153-1.035l.007-.126V8.33a1.16 1.16 0 00-1.034-1.154l-.126-.007-4.725-.001.001 2.092zM10.026 4H3.161c-.598 0-1.091.453-1.154 1.035L2 5.16V9.26c0 .598.453 1.091 1.035 1.154l.126.007h1.082l-.001 2.456 2.457-2.456h3.327c.598 0 1.091-.453 1.154-1.035l.007-.126V5.161c0-.598-.453-1.091-1.035-1.154L10.026 4zM4.018 6.523a.73.73 0 01.58 0c.09.04.17.09.24.16a.791.791 0 01.22.53c0 .1-.021.2-.061.29-.04.09-.09.17-.16.24a.794.794 0 01-.24.16.755.755 0 01-.821-.16.757.757 0 01-.16-.82c.031-.09.09-.17.16-.24a.811.811 0 01.242-.16zm2.286 0a.73.73 0 01.58 0c.09.04.17.09.24.16a.791.791 0 01.22.53c0 .1-.021.2-.061.29-.04.09-.09.17-.16.24a.794.794 0 01-.24.16.755.755 0 01-.821-.16.757.757 0 01-.16-.82c.032-.09.09-.17.16-.24a.811.811 0 01.242-.16zm2.286 0a.73.73 0 01.58 0c.09.04.17.09.24.16a.791.791 0 01.22.53c0 .1-.021.2-.061.29-.04.09-.09.17-.16.24a.794.794 0 01-.24.16.755.755 0 01-.821-.16.757.757 0 01-.16-.82c.032-.09.09-.17.16-.24a.811.811 0 01.242-.16z"/>
</svg>
