<svg xmlns="http://www.w3.org/2000/svg" viewBox="0 0 50 50">
  <path d="M2.33333333 26.4583333c.771875-.771875 1.995-.8104687 2.812-.1157812l.1255.1157812L15.4375 36.6666667 13.9791667 38.125c-.771875.771875-1.995.8104687-2.812.1157812l-.1255-.1157812-8.70833337-8.7083333c-.8125-.8125-.8125-2.1458334 0-2.9583334zM44.875 13.1041667c.771875-.771875 1.995-.8104688 2.794138-.0979193l.1225287.1187526H47.8125c.771875.771875.8104688 1.995.1157813 2.812l-.1157813.1255L25.75 38.1041667c-.771875.771875-1.995.8104687-2.812.1157812l-.1255-.1157812-8.7083333-8.7083334c-.8125-.8125-.8125-2.125 0-2.9375.771875-.771875 1.995-.8104687 2.812-.1157812l.1255.1157812 7.25 7.2291667L44.875 13.1041667zM33.1041667 13.125c.8125-.8125 2.125-.8125 2.9375 0 .75.75.7894737 1.9861496.118421 2.7873232l-.118421.1293435-11.75 11.7708333-2.9375-2.9375 11.75-11.75z"/>
</svg>
