<svg xmlns="http://www.w3.org/2000/svg" viewBox="0 0 50 50">
  <path d="M2.333 26.458a2.075 2.075 0 012.812-.115l.126.115 10.166 10.209-1.458 1.458a2.075 2.075 0 01-2.812.116l-.125-.116-8.709-8.708a2.1 2.1 0 010-2.959zm42.542-13.354a2.034 2.034 0 012.794-.098l.123.119h.02c.772.772.811 1.995.116 2.812l-.115.126L25.75 38.103a2.075 2.075 0 01-2.812.116l-.125-.116-8.709-8.708a2.075 2.075 0 010-2.938 2.075 2.075 0 012.812-.115l.126.115 7.25 7.23 20.583-20.584zm-11.77.021a2.075 2.075 0 012.937 0c.75.75.79 1.986.118 2.787l-.118.13-11.75 11.77-2.938-2.937 11.75-11.75z"/>
</svg>
