<svg xmlns="http://www.w3.org/2000/svg" viewBox="0 0 26 26">
  <path d="M24.486 3c.789 0 1.434.575 1.507 1.315l.007.14V19.77c0 .757-.599 1.376-1.368 1.45l-.146.007h-8.294l.006.053v.922c0 .171.182.405.39.634l.407.432c.059.064.109.123.144.173a.262.262 0 01.102.142l.008.06v.095c0 .124-.09.228-.212.255l-.063.007h-8.13a.27.27 0 01-.266-.202l-.007-.06v-.095a.25.25 0 01.107-.2c.035-.051.085-.11.144-.174l.407-.432c.175-.191.33-.386.377-.544l.015-.091v-.922l.006-.053H1.51C.724 21.223.08 20.649.007 19.91L0 19.77V4.455c0-.758.598-1.378 1.365-1.448L1.51 3h22.976zm.242 1.3H1.272v15.627h23.456V4.3zM13 3.38a.27.27 0 00-.277.265.27.27 0 00.277.264.27.27 0 00.275-.264A.271.271 0 0013 3.38z"/>
</svg>
