<svg xmlns="http://www.w3.org/2000/svg" viewBox="0 0 22 22">
  <path d="M13.55 4.4c1.031.078 1.992.428 2.738.79l.329.167.295.163.258.154.312.2.318.226.068.105.1.166.19.34.114.222.192.396.138.306.145.34.149.374.075.2.152.424c.05.147.101.3.152.458l.15.492.145.525c.357 1.355.66 3.023.78 5.002-1.042 1.202-2.34 1.837-3.417 2.173l-.332.097-.314.078-.149.033-.41.077-.348.05-.345.032-.21.01-.697-.928A8.51 8.51 0 0017.8 14.6c-1.376 1.041-3.453 2.125-6.8 2.125-3.099 0-5.11-.93-6.482-1.893L4.2 14.6a8.49 8.49 0 003.433 2.385l.239.087-.697.928-.21-.01-.245-.021-.324-.042a8.462 8.462 0 01-.123-.019l-.268-.048a8.857 8.857 0 01-.292-.062l-.314-.078-.332-.097c-1.077-.336-2.375-.971-3.417-2.173.117-1.936.41-3.575.757-4.913l.142-.52.145-.487.148-.455.075-.216.148-.407.074-.191.144-.359.14-.326.135-.294.126-.261.221-.425.2-.348L4.2 6.1l.225-.165.168-.114.33-.208.27-.156c.721-.4 1.782-.869 3.01-1.03L8.45 4.4l.207.415c-1.899.428-3.034 1.238-4.032 2.135l.675-.339.457-.218C7.142 5.753 8.685 5.25 11 5.25c2.315 0 3.858.503 5.243 1.143l.457.218.45.225.225.114-.333-.293c-.835-.715-1.73-1.31-3.363-1.755l-.336-.087.207-.415zm-5.313 5.95c-.821 0-1.487.76-1.487 1.7s.666 1.7 1.488 1.7c.821 0 1.487-.76 1.487-1.7s-.666-1.7-1.487-1.7zm5.525 0c-.821 0-1.487.76-1.487 1.7s.666 1.7 1.487 1.7c.822 0 1.488-.76 1.488-1.7s-.666-1.7-1.488-1.7z"/>
</svg>
