<svg xmlns="http://www.w3.org/2000/svg" viewBox="0 0 22 22">
  <path d="M13.86 1.5c.35 0 .683.12.951.34l.11.1 4.015 4.013c.248.248.398.568.432.912l.007.148V19c0 .779-.596 1.42-1.356 1.493l-.144.007H4.125c-.778 0-1.42-.596-1.493-1.355L2.625 19V3c0-.778.596-1.42 1.356-1.493l.144-.007h9.736zm-.485 1h-9.25a.5.5 0 00-.492.41L3.625 3v16c0 .245.177.45.41.492l.09.008h13.75c.245 0 .45-.177.492-.41l.008-.09V7.5h-5v-5zm-1.506 9.671v3.471l.658-.236.146.41-2.32.833a.167.167 0 01-.222-.156v-3.472l-.658.238-.146-.41 2.32-.834a.165.165 0 01.222.156zm-.87-3.494a1.37 1.37 0 11.002 2.741A1.37 1.37 0 0111 8.678zm3.376-5.87V6.5h3.693l-3.693-3.694z"/>
</svg>
