<svg xmlns="http://www.w3.org/2000/svg" viewBox="0 0 22 22">
  <path d="M20.75 15.64a.5.5 0 01.436.745l-.046.067-1.243 1.555a2.275 2.275 0 01-1.607.849l-.172.006H3.832a2.28 2.28 0 01-1.667-.724l-.113-.13L.81 16.451a.5.5 0 01.31-.806l.081-.006h19.55zm-1.041 1H2.24l.593.743c.182.227.435.383.713.447l.141.024.145.008h14.286c.34 0 .663-.135.901-.372l.097-.107.593-.743zM17.639 3.2c.962 0 1.75.74 1.827 1.683l.006.15v9.001a.5.5 0 01-.992.09l-.008-.09V5.033a.833.833 0 00-.728-.827l-.105-.006H4.31a.833.833 0 00-.826.729l-.007.104v9.001a.5.5 0 01-.992.09l-.008-.09V5.033c0-.962.741-1.75 1.683-1.827l.15-.006h13.33zm-.69 3.028a.5.5 0 01.016.64l-.063.065-5.55 4.865a.5.5 0 01-.607.04l-.075-.062L8.826 9.94 5.69 12.456a.5.5 0 01-.64-.012l-.063-.065a.5.5 0 01.012-.64l.065-.063L8.55 8.88a.5.5 0 01.593-.024l.073.06 1.829 1.822 5.198-4.557a.5.5 0 01.706.047z"/>
</svg>
