<svg xmlns="http://www.w3.org/2000/svg" viewBox="0 0 26 26">
  <path d="M18.501 0c.777 0 1.42.59 1.492 1.346L20 1.49v23.022c0 .773-.596 1.409-1.355 1.481l-.144.007H7.497c-.778 0-1.418-.59-1.49-1.345L6 24.512V1.49C6 .715 6.594.079 7.352.007L7.497 0H18.5zm-5.46 23.485a.848.848 0 00-.852.845c0 .469.38.848.852.848a.85.85 0 00.85-.848.849.849 0 00-.85-.845zm6.37-19.939H6.669v18.912h12.744V3.546zm-5.347-1.349h-2.131a.252.252 0 00-.253.25c0 .117.084.217.195.244l.058.006h2.13c.14 0 .253-.114.253-.25a.25.25 0 00-.195-.243l-.057-.007z"/>
</svg>
