<svg xmlns="http://www.w3.org/2000/svg" viewBox="0 0 22 22">
  <path d="M12.038.93l2.215 2.216h3.134c.809 0 1.467.658 1.467 1.467v3.134l2.217 2.215a1.472 1.472 0 010 2.076l-2.217 2.215v3.134c0 .81-.658 1.468-1.467 1.468h-3.134l-2.215 2.216a1.464 1.464 0 01-1.038.428c-.376 0-.751-.142-1.038-.428l-2.215-2.216H4.613a1.469 1.469 0 01-1.467-1.468v-3.134L.93 12.038a1.471 1.471 0 01-.001-2.076l2.217-2.215V4.613c0-.81.658-1.467 1.467-1.467h3.134L9.962.93a1.47 1.47 0 012.076 0zm-1.369.707L8.307 3.999a.5.5 0 01-.353.147H4.613a.467.467 0 00-.467.467v3.34c0 .133-.053.26-.147.355l-2.362 2.36a.47.47 0 000 .663l2.362 2.362c.094.093.147.22.147.353v3.34c0 .259.209.469.467.469h3.341c.132 0 .259.053.353.146l2.362 2.363a.471.471 0 00.662 0L13.693 18a.503.503 0 01.353-.146h3.341c.258 0 .467-.21.467-.468v-3.341c0-.133.053-.26.147-.353l2.362-2.362a.47.47 0 000-.662l-2.362-2.361a.502.502 0 01-.147-.354V4.613a.467.467 0 00-.467-.467h-3.341a.5.5 0 01-.353-.147l-2.362-2.362a.468.468 0 00-.662 0zM11 5.57A5.437 5.437 0 0116.431 11 5.437 5.437 0 0111 16.43 5.437 5.437 0 015.569 11 5.437 5.437 0 0111 5.57zm0 1v8.86A4.436 4.436 0 0015.431 11 4.435 4.435 0 0011 6.57z"/>
</svg>
