<svg xmlns="http://www.w3.org/2000/svg" viewBox="0 0 25 25">
  <path d="M12.5 0C19.404 0 25 5.596 25 12.5S19.404 25 12.5 25 0 19.404 0 12.5 5.596 0 12.5 0zm0 1C6.149 1 1 6.149 1 12.5S6.149 24 12.5 24 24 18.851 24 12.5 18.851 1 12.5 1zM8.417 11c.779 0 1.416.637 1.416 1.417a1.42 1.42 0 01-1.416 1.416A1.42 1.42 0 017 12.417C7 11.637 7.638 11 8.417 11zm8.5 0c.779 0 1.416.637 1.416 1.417a1.42 1.42 0 01-1.416 1.416 1.42 1.42 0 01-1.417-1.416c0-.78.637-1.417 1.417-1.417zm-4.25 0c.779 0 1.416.637 1.416 1.417a1.42 1.42 0 01-1.416 1.416 1.42 1.42 0 01-1.417-1.416c0-.78.637-1.417 1.417-1.417z"/>
</svg>
