<svg xmlns="http://www.w3.org/2000/svg" viewBox="0 0 20 20">
  <path d="M13.768 3.5a.5.5 0 01.492.41l.008.09v3.856h2.439a.5.5 0 01.469.327l.023.086 1.233 6.874a.5.5 0 01-.41.581l-.082.007H2.2a.5.5 0 01-.5-.505l.008-.083 1.23-6.874a.5.5 0 01.403-.404l.089-.008 2.44-.001V4a.5.5 0 01.41-.492l.09-.008h7.398zm2.52 5.356h-2.02v2.529h.515a.5.5 0 01.09.992l-.09.008H5.357a.5.5 0 01-.09-.992l.09-.008h.513V8.856H3.848L2.797 14.73h14.544l-1.053-5.874zM13.268 4.5H6.87l.001 3.857-.001.01v3.018h6.398V4.5z"/>
</svg>
