<svg xmlns="http://www.w3.org/2000/svg" viewBox="0 0 18 18">
  <path d="M7.604 1.442l.29.174.369.228.24.14c.198.11.385.194.498.194.15 0 .396-.12.649-.264l.371-.224.28-.17.287-.164c.534-.288 1.105-.482 1.68-.246.676.281.925.986 1.101 1.68l.146.597c.083.332.184.664.309.789.08.08.271.151.489.214l.269.071.585.14c.655.163 1.32.391 1.647.976l.076.154c.268.649.005 1.286-.333 1.873l-.174.29-.228.369-.14.24c-.11.199-.194.385-.194.497 0 .151.12.397.265.65l.15.25.244.401.164.288c.288.534.482 1.106.246 1.679-.238.572-.78.838-1.36 1.013l-.32.088-.597.146-.28.076c-.225.067-.42.143-.51.233-.079.08-.15.27-.214.489l-.071.268-.14.586c-.177.71-.43 1.431-1.13 1.721a1.443 1.443 0 01-.557.112c-.479 0-.943-.224-1.38-.48l-.594-.365-.24-.14c-.199-.11-.385-.194-.498-.194-.126 0-.317.084-.524.195l-.251.144-.525.32c-.615.366-1.288.688-1.968.41-.623-.26-.883-.88-1.059-1.52l-.081-.32-.143-.579c-.076-.28-.165-.54-.272-.647-.08-.08-.271-.152-.49-.215l-.268-.071-.586-.14c-.709-.177-1.43-.43-1.721-1.13-.291-.702.041-1.392.418-2.018l.387-.633c.14-.241.262-.483.262-.618 0-.15-.12-.397-.265-.65L1.52 7.7C1.153 7.083.83 6.409 1.11 5.73c.259-.623.88-.883 1.52-1.059l.32-.082.437-.105c.332-.084.664-.184.789-.31.08-.079.151-.27.214-.489l.104-.402.108-.452c.176-.709.43-1.43 1.13-1.721.648-.268 1.285-.007 1.872.331zm-1.5.569c-.117.048-.228.355-.315.67l-.1.39-.13.542c-.128.498-.297.975-.634 1.311-.348.35-.837.525-1.347.659l-.773.191-.261.073c-.26.078-.498.17-.534.258-.042.101.1.393.256.669l.25.42.235.387c.265.455.486.926.486 1.419 0 .476-.218.933-.48 1.375l-.426.7c-.187.32-.376.685-.32.82.048.118.354.228.67.316l.39.099.113.026c.643.15 1.308.306 1.74.739.349.348.525.836.66 1.346l.19.773.073.261c.078.26.17.499.257.534.09.032.316-.066.552-.192l.235-.131.303-.184c.576-.353 1.171-.72 1.806-.72.544 0 1.062.286 1.564.594l.394.244.237.14c.286.161.581.3.7.248.118-.048.228-.354.316-.67l.069-.266.16-.665c.129-.499.298-.976.635-1.312.397-.398.98-.57 1.566-.714l.553-.136.262-.073c.26-.078.498-.17.533-.257.037-.087-.062-.313-.19-.55l-.133-.236-.417-.69c-.265-.455-.487-.926-.487-1.42.001-.476.22-.932.48-1.375l.357-.583.14-.237c.16-.285.298-.58.25-.7-.05-.118-.355-.228-.67-.316l-.391-.098-.112-.027c-.643-.15-1.309-.305-1.74-.739-.4-.396-.572-.979-.715-1.566l-.136-.553c-.089-.34-.214-.748-.33-.795-.093-.033-.319.065-.554.191l-.234.132-.688.418c-.456.265-.926.486-1.42.486-.543 0-1.062-.285-1.563-.593l-.512-.314-.244-.138c-.244-.13-.475-.226-.576-.181zM9 5.5c1.93 0 3.5 1.57 3.5 3.5s-1.57 3.5-3.5 3.5S5.5 10.93 5.5 9 7.07 5.5 9 5.5zm0 1C7.62 6.5 6.5 7.62 6.5 9s1.12 2.5 2.5 2.5 2.5-1.12 2.5-2.5S10.38 6.5 9 6.5z"/>
</svg>
