<svg xmlns="http://www.w3.org/2000/svg" viewBox="0 0 22 22">
  <path d="M19.8 5.099a7.671 7.671 0 01-2.204.604 3.848 3.848 0 001.687-2.122 7.683 7.683 0 01-2.436.93 3.837 3.837 0 00-6.538 3.5 10.892 10.892 0 01-7.907-4.009 3.835 3.835 0 001.187 5.122 3.821 3.821 0 01-1.738-.48v.049a3.839 3.839 0 003.078 3.762 3.842 3.842 0 01-1.733.065 3.84 3.84 0 003.584 2.665 7.698 7.698 0 01-5.68 1.588 10.86 10.86 0 005.881 1.724c7.057 0 10.916-5.846 10.916-10.916 0-.166-.004-.331-.011-.496.75-.54 1.4-1.217 1.914-1.986"/>
</svg>
