<svg xmlns="http://www.w3.org/2000/svg" viewBox="0 0 18 18">
  <path d="M16.65 9.01l-1.872-1.884.425-2.622-2.621-.423-1.198-2.371-2.369 1.197-2.359-1.194-1.215 2.361-2.616.405.405 2.624-1.88 1.886 1.855 1.87-.423 2.603 2.622.425 1.198 2.37 2.37-1.197 2.361 1.214 1.214-2.362 2.625-.406-.406-2.624z"/>
  <path fill="#FFF" d="M5.87 8.645a.75.75 0 01.984-.067l.076.067 1.211 1.212 3.146-3.146a.75.75 0 01.984-.067l.077.067a.75.75 0 01.067.984l-.067.077-3.676 3.676a.75.75 0 01-.984.067l-.077-.067L5.87 9.706a.75.75 0 010-1.06z"/>
</svg>
