<svg xmlns="http://www.w3.org/2000/svg" viewBox="0 0 16 16">
  <path d="M13.111 2c.932 0 1.698.72 1.772 1.632l.006.146v8.444a1.78 1.78 0 01-1.632 1.772L13.11 14H2.89a1.78 1.78 0 01-1.772-1.632l-.006-.146V3.778c0-.932.72-1.698 1.632-1.772L2.89 2H13.11zM6.153 8.444H2v3.778c0 .453.34.827.778.882l.11.007h10.223a.89.89 0 00.882-.777l.007-.112V8.444H9.847A1.952 1.952 0 018 9.778a1.95 1.95 0 01-1.792-1.19l-.055-.144zM14 5.654H2v1.902h4.507c.225 0 .415.168.441.392.064.536.516.94 1.052.94s.988-.404 1.052-.94a.444.444 0 01.359-.385l.082-.007H14V5.653zm-.889-2.765H2.89a.89.89 0 00-.882.777L2 3.778v.986h12v-.986a.89.89 0 00-.778-.882l-.11-.007z"/>
</svg>
