<svg xmlns="http://www.w3.org/2000/svg" width="110" height="118">
  <path fill="#66ADFF" fill-rule="evenodd" d="M12.856 0c4.925 0 8.918 3.99 8.918 8.91a8.871 8.871 0 0 1-2.11 5.755l-.223.255L46.115 58.3a16.524 16.524 0 0 1 6.486-1.318c1.316 0 2.595.153 3.821.443l.522.133L70.672 26.34a8.89 8.89 0 0 1-3.216-6.851c0-4.921 3.992-8.91 8.917-8.91s8.918 3.989 8.918 8.91c0 4.922-3.993 8.91-8.918 8.91a8.74 8.74 0 0 1-.8-.036l-.394-.045-13.73 31.22a16.637 16.637 0 0 1 4.617 4.344l.282.403 18.812-8.943a12.614 12.614 0 0 1-.382-3.088c0-6.96 5.646-12.602 12.61-12.602 6.966 0 12.612 5.642 12.612 12.602s-5.646 12.602-12.611 12.602a12.59 12.59 0 0 1-9.893-4.786l-.22-.285-18.81 8.944a16.56 16.56 0 0 1 .713 4.818c0 1.227-.133 2.423-.387 3.573l-.117.49L95.36 88.78a6.285 6.285 0 0 1 4.401-1.79 6.303 6.303 0 0 1 6.306 6.3 6.303 6.303 0 0 1-6.306 6.301 6.303 6.303 0 0 1-6.299-6.027l-.006-.246-26.683-11.17c-2.91 4.776-8.167 7.964-14.172 7.964a16.51 16.51 0 0 1-10.912-4.097l-.31-.277-20.654 16.622a10.847 10.847 0 0 1 1.085 4.743c0 6.018-4.882 10.897-10.905 10.897S0 113.121 0 107.103c0-6.018 4.882-10.896 10.905-10.896 2.405 0 4.627.78 6.43 2.098l.297.225 20.655-16.623a16.467 16.467 0 0 1-2.263-8.36c0-2.785.688-5.408 1.903-7.711l.234-.429-12.749-9.94a6.953 6.953 0 0 1-3.638 1.021 6.981 6.981 0 0 1-6.984-6.978 6.981 6.981 0 0 1 6.984-6.98 6.981 6.981 0 0 1 6.763 8.727l-.094.331 12.75 9.942.359-.332.37-.32-26.676-43.383A8.92 8.92 0 0 1 3.939 8.911C3.939 3.99 7.931 0 12.856 0zm39.898 61.81v3.609l-3.366-.75v3.608l-3.368-.75v11.65l3.368.75v3.61l3.366.749v-3.61l3.368.752v-3.61l3.368.75v-11.65l-3.368-.749v-3.61l-3.368-.75zm-4.04 8.723 4.715 1.048v6.84l-4.715-1.05v-6.838z"/>
</svg>
